<svg version="1.1" xmlns="http://www.w3.org/2000/svg" viewBox="0 0 897.0538940429688 523.5052032470703" width="897.0538940429688" height="523.5052032470703" filter="invert(93%) hue-rotate(180deg)">
  <!-- svg-source:excalidraw -->
  
  <defs>
    <style>
      @font-face {
        font-family: "Virgil";
        src: url("https://excalidraw.com/Virgil.woff2");
      }
      @font-face {
        font-family: "Cascadia";
        src: url("https://excalidraw.com/Cascadia.woff2");
      }
    </style>
  </defs>
  <g stroke-linecap="round" transform="translate(372.4156494140625 10) rotate(0 75.4571533203125 39.10145568847656)"><path d="M5.2 4.52 C5.2 4.52, 5.2 4.52, 5.2 4.52 M5.2 4.52 C5.2 4.52, 5.2 4.52, 5.2 4.52 M1.01 15.45 C5.66 11.86, 10.27 5.5, 12.16 2.62 M1.01 15.45 C5.29 11.2, 9.97 6.1, 12.16 2.62 M0.74 21.85 C8.3 15.79, 14.68 8.87, 19.77 -0.04 M0.74 21.85 C6.05 16.34, 10.63 9.48, 19.77 -0.04 M1.14 27.49 C6.41 20.35, 12.79 14.69, 24.76 0.32 M1.14 27.49 C6.96 20.98, 12.94 14.05, 24.76 0.32 M0.88 33.89 C11.66 21.53, 24.75 7.81, 30.4 -0.07 M0.88 33.89 C11.23 24.12, 20.26 12.68, 30.4 -0.07 M0.62 40.29 C16.17 25.05, 27.59 9.58, 35.39 0.29 M0.62 40.29 C10.82 29.59, 20.25 18.28, 35.39 0.29 M1.01 45.93 C14.83 28.97, 27.94 14.85, 41.03 -0.11 M1.01 45.93 C16.49 28.65, 32.08 10.1, 41.03 -0.11 M0.75 52.33 C9.06 40.87, 17.6 30.88, 46.02 0.25 M0.75 52.33 C19.32 33.33, 35.07 12.18, 46.02 0.25 M1.14 57.97 C16.29 40.46, 33.55 21.7, 51.66 -0.14 M1.14 57.97 C20.14 35.21, 38.75 13.36, 51.66 -0.14 M0.88 64.37 C23.29 41.96, 43.65 18.22, 56.65 0.22 M0.88 64.37 C21.95 39.45, 42.82 16.09, 56.65 0.22 M2.59 68.5 C27.49 40.81, 50.99 14.48, 62.29 -0.18 M2.59 68.5 C18.78 50.03, 32.88 33.34, 62.29 -0.18 M4.95 71.88 C22.51 51.37, 39.56 29.19, 67.28 0.18 M4.95 71.88 C25.55 47.4, 45.59 23.98, 67.28 0.18 M7.32 75.26 C25.16 54.83, 43.25 30.71, 72.92 -0.21 M7.32 75.26 C30.82 46.65, 56.6 18.55, 72.92 -0.21 M10.33 77.88 C34.31 47.42, 62.65 16.9, 77.91 0.15 M10.33 77.88 C29.52 55.48, 47.56 34.95, 77.91 0.15 M14.66 79 C39.15 50.22, 61.29 21.69, 83.55 -0.25 M14.66 79 C41.63 47.76, 67.97 17.86, 83.55 -0.25 M20.31 78.6 C36.65 61.94, 50.46 42.41, 88.54 0.11 M20.31 78.6 C41.34 55.38, 62.61 31.47, 88.54 0.11 M25.29 78.96 C50.17 51.41, 76.07 20.24, 94.18 -0.28 M25.29 78.96 C52.44 48.05, 76.83 18.7, 94.18 -0.28 M30.94 78.57 C58.85 49.66, 83.65 19.27, 99.17 0.08 M30.94 78.57 C46.06 60.87, 60.58 45.99, 99.17 0.08 M35.92 78.93 C58.17 54.25, 81.71 27.88, 104.16 0.44 M35.92 78.93 C57.07 55.83, 76.49 34.06, 104.16 0.44 M41.57 78.53 C65.1 50.77, 88.85 22.52, 109.8 0.05 M41.57 78.53 C62.29 57.14, 81.78 35.06, 109.8 0.05 M46.56 78.9 C67.77 56.39, 88.13 33.08, 114.79 0.41 M46.56 78.9 C65.56 57.28, 84.98 34.3, 114.79 0.41 M52.2 78.5 C71.58 58.41, 88.14 38.27, 120.43 0.01 M52.2 78.5 C75.87 51.28, 100.21 25.33, 120.43 0.01 M57.19 78.86 C78.86 53.63, 98.06 32.24, 125.42 0.37 M57.19 78.86 C73.42 60.73, 88.01 40.95, 125.42 0.37 M62.83 78.47 C91.02 46.42, 117.8 14.44, 131.06 -0.02 M62.83 78.47 C79.7 58.86, 97.77 38.59, 131.06 -0.02 M67.82 78.83 C83.07 61.59, 99.45 42.4, 134.08 2.6 M67.82 78.83 C92.73 50.55, 118.03 21.34, 134.08 2.6 M73.46 78.43 C89.9 60.97, 103.35 43.77, 138.41 3.72 M73.46 78.43 C88.84 60.78, 103 44.01, 138.41 3.72 M78.45 78.79 C90.89 62.72, 108.31 47.24, 144.05 3.32 M78.45 78.79 C96.11 59.15, 113.92 37.86, 144.05 3.32 M84.09 78.4 C104.63 51.93, 127.19 28.09, 147.07 5.94 M84.09 78.4 C105 52.57, 127.49 26.37, 147.07 5.94 M89.08 78.76 C109.52 51.31, 133.32 27.05, 149.43 9.32 M89.08 78.76 C106.87 59.34, 123.44 39.45, 149.43 9.32 M94.06 79.12 C107.83 61.54, 121.29 48.16, 151.14 13.46 M94.06 79.12 C107.73 65.33, 119.7 49.6, 151.14 13.46 M99.71 78.72 C114.23 61.54, 130.59 43.09, 153.5 16.84 M99.71 78.72 C113.26 64.35, 126.59 48.78, 153.5 16.84 M104.69 79.08 C114.32 64.76, 125.84 54.3, 153.24 23.23 M104.69 79.08 C120.71 62.46, 133.44 44.57, 153.24 23.23 M110.34 78.69 C124.9 64.54, 135.35 48.29, 152.98 29.63 M110.34 78.69 C119.02 68.23, 129.32 57.12, 152.98 29.63 M115.32 79.05 C126.36 65.52, 139.12 51.09, 153.37 35.28 M115.32 79.05 C124.14 68.8, 131.87 60.14, 153.37 35.28 M120.97 78.65 C129.15 67.39, 139.43 54.77, 153.11 41.67 M120.97 78.65 C130.79 66.44, 143.44 53.79, 153.11 41.67 M125.95 79.01 C130.67 70.08, 137.23 65.26, 153.51 47.32 M125.95 79.01 C137.16 66.86, 147.66 54.36, 153.51 47.32 M131.6 78.62 C138.13 70.24, 143.76 65.02, 153.25 53.71 M131.6 78.62 C139.42 69.26, 145.94 60.36, 153.25 53.71 M138.55 76.72 C142.54 71.75, 147.06 65.16, 152.98 60.11 M138.55 76.72 C141.89 72.03, 147.61 66.77, 152.98 60.11" stroke="#40c057" stroke-width="0.5" fill="none"></path><path d="M19.55 0 M19.55 0 C59.1 -1.46, 96.88 -2.11, 131.36 0 M19.55 0 C55.29 -1.8, 91.68 0.01, 131.36 0 M131.36 0 C142.89 -1.92, 151.42 6.96, 150.91 19.55 M131.36 0 C142.7 -1.67, 151.49 6.65, 150.91 19.55 M150.91 19.55 C152.25 32.77, 152.72 44.02, 150.91 58.65 M150.91 19.55 C151.67 32.86, 150.2 47.92, 150.91 58.65 M150.91 58.65 C150.07 70.04, 144.52 78.14, 131.36 78.2 M150.91 58.65 C150.01 70.24, 143.82 80.48, 131.36 78.2 M131.36 78.2 C87.77 77.11, 41.99 79.27, 19.55 78.2 M131.36 78.2 C103.42 78.78, 73.36 79.35, 19.55 78.2 M19.55 78.2 C8.47 78.9, 0.07 70.31, 0 58.65 M19.55 78.2 C6.38 79.74, 1.17 72.94, 0 58.65 M0 58.65 C-1.39 47.9, -1.15 38.75, 0 19.55 M0 58.65 C0.28 48.1, -1.26 38.18, 0 19.55 M0 19.55 C0.23 8.09, 5.28 -0.25, 19.55 0 M0 19.55 C2.1 6.01, 7.72 2.1, 19.55 0" stroke="#ffffff" stroke-width="1" fill="none"></path></g><g transform="translate(374.27655029296875 19.703304603451585) rotate(0 73 29.999999999999986)"><text x="0" y="44" font-family="Tinkoff Sans, Segoe UI Emoji" font-size="48px" fill="#ffffff" text-anchor="start" style="white-space: pre;" direction="ltr">Iterable</text></g><g stroke-linecap="round" transform="translate(592.6080932617188 157.6572723388672) rotate(0 75.4571533203125 39.10145568847656)"><path d="M5.2 4.52 C5.2 4.52, 5.2 4.52, 5.2 4.52 M5.2 4.52 C5.2 4.52, 5.2 4.52, 5.2 4.52 M1.01 15.45 C4.61 12, 7.86 5.96, 12.16 2.62 M1.01 15.45 C5.33 11.34, 9.5 5.53, 12.16 2.62 M0.74 21.85 C4.24 18.58, 7.98 13.34, 19.77 -0.04 M0.74 21.85 C5.3 16.66, 9.57 12.72, 19.77 -0.04 M1.14 27.49 C6.87 19.58, 15.3 12.48, 24.76 0.32 M1.14 27.49 C6.9 20.29, 13.58 13.52, 24.76 0.32 M0.88 33.89 C9.83 24.09, 20.02 11.46, 30.4 -0.07 M0.88 33.89 C8.09 26.72, 14.24 18.21, 30.4 -0.07 M0.62 40.29 C12.87 23.37, 27.14 11.38, 35.39 0.29 M0.62 40.29 C12.86 25.32, 27.27 10.12, 35.39 0.29 M1.01 45.93 C14.55 27.74, 28.66 11.32, 41.03 -0.11 M1.01 45.93 C16.28 28.18, 30.11 11.8, 41.03 -0.11 M0.75 52.33 C12.45 37.94, 20.75 26.86, 46.02 0.25 M0.75 52.33 C14.81 36.48, 29.59 19.44, 46.02 0.25 M1.14 57.97 C15.83 42.82, 26.37 27.48, 51.66 -0.14 M1.14 57.97 C17.34 40.72, 34 21.82, 51.66 -0.14 M0.88 64.37 C11.95 50.47, 24.14 38.45, 56.65 0.22 M0.88 64.37 C14.3 49.11, 28.95 33.61, 56.65 0.22 M2.59 68.5 C20.35 47.21, 36.03 27.83, 62.29 -0.18 M2.59 68.5 C21.78 47.95, 41.04 24.09, 62.29 -0.18 M4.95 71.88 C18.84 58.67, 31.37 41.43, 67.28 0.18 M4.95 71.88 C25.47 48.69, 45.22 27.13, 67.28 0.18 M7.32 75.26 C22.11 57.34, 36.63 41.35, 72.92 -0.21 M7.32 75.26 C28.44 53.87, 46.26 31.25, 72.92 -0.21 M10.33 77.88 C26.61 57.47, 42.81 39.26, 77.91 0.15 M10.33 77.88 C26.11 58.72, 42.08 42.32, 77.91 0.15 M14.66 79 C35.25 54.38, 53.13 31.86, 83.55 -0.25 M14.66 79 C37.94 52.03, 62.07 24.18, 83.55 -0.25 M20.31 78.6 C42.42 52.49, 65.66 25.12, 88.54 0.11 M20.31 78.6 C42.47 53.44, 63.09 27.2, 88.54 0.11 M25.29 78.96 C44.38 56.84, 62.33 35.67, 94.18 -0.28 M25.29 78.96 C41.97 59.7, 58.27 42.52, 94.18 -0.28 M30.94 78.57 C46.72 62.65, 60.14 44.74, 99.17 0.08 M30.94 78.57 C46.44 60.58, 59.62 43.58, 99.17 0.08 M35.92 78.93 C63.79 49.24, 88.56 16.55, 104.16 0.44 M35.92 78.93 C57.57 54, 80.97 28.68, 104.16 0.44 M41.57 78.53 C69.45 45.46, 96.84 13.42, 109.8 0.05 M41.57 78.53 C55.16 62.48, 70.21 45.62, 109.8 0.05 M46.56 78.9 C64.9 59.33, 79.59 41.97, 114.79 0.41 M46.56 78.9 C62.05 60.89, 78.97 43.05, 114.79 0.41 M52.2 78.5 C73.83 56.65, 91.31 32.31, 120.43 0.01 M52.2 78.5 C72.29 54.73, 91.66 31.89, 120.43 0.01 M57.19 78.86 C73.79 60.7, 90.16 44.25, 125.42 0.37 M57.19 78.86 C82.34 51.07, 107.75 21.81, 125.42 0.37 M62.83 78.47 C82.78 57.86, 101.94 35.12, 131.06 -0.02 M62.83 78.47 C83.32 54.04, 103.24 31.21, 131.06 -0.02 M67.82 78.83 C90.96 54.41, 113.19 28.17, 134.08 2.6 M67.82 78.83 C93.74 48.26, 121.69 17.12, 134.08 2.6 M73.46 78.43 C94.16 55.6, 113.78 29.99, 138.41 3.72 M73.46 78.43 C98.32 48.65, 124.32 19.23, 138.41 3.72 M78.45 78.79 C102.33 51.27, 129.28 19.27, 144.05 3.32 M78.45 78.79 C104.03 48.24, 129.92 18.74, 144.05 3.32 M84.09 78.4 C102.35 59.12, 121.94 37.87, 147.07 5.94 M84.09 78.4 C104.81 53.69, 126.04 29.5, 147.07 5.94 M89.08 78.76 C108.62 54.5, 132.29 31.93, 149.43 9.32 M89.08 78.76 C107.54 58.55, 123.43 38.62, 149.43 9.32 M94.06 79.12 C106.86 65.96, 117.9 52.19, 151.14 13.46 M94.06 79.12 C109.12 62.49, 123.75 45.58, 151.14 13.46 M99.71 78.72 C111.86 63.74, 127.81 49.47, 153.5 16.84 M99.71 78.72 C120.44 54.75, 141.64 32.15, 153.5 16.84 M104.69 79.08 C117.58 64.09, 130.88 47.49, 153.24 23.23 M104.69 79.08 C117.65 64.26, 131.5 47.86, 153.24 23.23 M110.34 78.69 C121.22 67.11, 128.56 54.85, 152.98 29.63 M110.34 78.69 C120.71 65.88, 131.99 52.69, 152.98 29.63 M115.32 79.05 C124.77 70.93, 130.14 60.28, 153.37 35.28 M115.32 79.05 C124.66 66.12, 135.67 54.7, 153.37 35.28 M120.97 78.65 C130.77 66.69, 141.52 53.17, 153.11 41.67 M120.97 78.65 C130.9 68.94, 141.2 56.18, 153.11 41.67 M125.95 79.01 C133.99 69.59, 143.87 60.76, 153.51 47.32 M125.95 79.01 C133.86 68.77, 144.34 57.92, 153.51 47.32 M131.6 78.62 C140.04 72.15, 146.24 63.14, 153.25 53.71 M131.6 78.62 C139.45 69.84, 145.9 61.77, 153.25 53.71 M138.55 76.72 C144.64 70.28, 150.56 65.23, 152.98 60.11 M138.55 76.72 C142.92 73.38, 146.59 68.26, 152.98 60.11" stroke="#40c057" stroke-width="0.5" fill="none"></path><path d="M19.55 0 M19.55 0 C62.04 0.32, 105.07 -0.67, 131.36 0 M19.55 0 C58.51 -1.2, 99.8 -1.33, 131.36 0 M131.36 0 C145.36 -0.96, 151.49 4.64, 150.91 19.55 M131.36 0 C145.26 0.77, 150.74 5.98, 150.91 19.55 M150.91 19.55 C150.68 34.89, 150.36 49.44, 150.91 58.65 M150.91 19.55 C150.31 30.77, 150.38 43.38, 150.91 58.65 M150.91 58.65 C151.66 73.36, 142.45 77.58, 131.36 78.2 M150.91 58.65 C149.13 71.74, 142.3 77.71, 131.36 78.2 M131.36 78.2 C99.28 77.33, 72.25 77.55, 19.55 78.2 M131.36 78.2 C95.69 78.33, 61.17 80.09, 19.55 78.2 M19.55 78.2 C6 78.38, 1.8 72.09, 0 58.65 M19.55 78.2 C8.75 80.34, -0.5 70.45, 0 58.65 M0 58.65 C0.96 47.32, 0.25 38.2, 0 19.55 M0 58.65 C-0.77 47.61, -0.99 34.94, 0 19.55 M0 19.55 C-1.46 7.39, 5.84 1.03, 19.55 0 M0 19.55 C0.09 5.66, 5.84 2.15, 19.55 0" stroke="#ffffff" stroke-width="1" fill="none"></path></g><g stroke-linecap="round" transform="translate(156.940185546875 156.31224060058594) rotate(0 75.4571533203125 39.10145568847656)"><path d="M5.2 4.52 C5.2 4.52, 5.2 4.52, 5.2 4.52 M5.2 4.52 C5.2 4.52, 5.2 4.52, 5.2 4.52 M1.01 15.45 C5.59 10.34, 7.61 8.61, 12.16 2.62 M1.01 15.45 C4.08 12.85, 5.47 8.7, 12.16 2.62 M0.74 21.85 C9.86 12.25, 17.02 2.83, 19.77 -0.04 M0.74 21.85 C5.16 16.65, 10.81 10.65, 19.77 -0.04 M1.14 27.49 C6.64 21.54, 12.98 13.92, 24.76 0.32 M1.14 27.49 C9.82 17.83, 18.92 7.25, 24.76 0.32 M0.88 33.89 C9.23 25.33, 14.74 17.27, 30.4 -0.07 M0.88 33.89 C8.1 25.9, 13.99 18.64, 30.4 -0.07 M0.62 40.29 C6.3 31.87, 16.92 24.22, 35.39 0.29 M0.62 40.29 C10.04 30.3, 19.27 18.86, 35.39 0.29 M1.01 45.93 C13.56 28.84, 27.92 14.43, 41.03 -0.11 M1.01 45.93 C14.03 29.58, 28.47 12.65, 41.03 -0.11 M0.75 52.33 C15.62 31.44, 33.81 13.64, 46.02 0.25 M0.75 52.33 C14.27 37.75, 26.58 22.76, 46.02 0.25 M1.14 57.97 C13.3 42.21, 25.21 30.61, 51.66 -0.14 M1.14 57.97 C13.35 45.82, 23.88 31.74, 51.66 -0.14 M0.88 64.37 C15.97 46.55, 32.88 27.47, 56.65 0.22 M0.88 64.37 C14.92 49.46, 28.72 33.33, 56.65 0.22 M2.59 68.5 C14.66 51.29, 28.69 37.93, 62.29 -0.18 M2.59 68.5 C22.06 48.03, 38.14 26.28, 62.29 -0.18 M4.95 71.88 C25.47 50.57, 42.02 27.28, 67.28 0.18 M4.95 71.88 C17.77 56.62, 32.24 40.72, 67.28 0.18 M7.32 75.26 C26.84 51.59, 48.37 27.07, 72.92 -0.21 M7.32 75.26 C22.01 58.27, 35.4 43.09, 72.92 -0.21 M10.33 77.88 C29.2 54.16, 50.3 29.09, 77.91 0.15 M10.33 77.88 C32.06 52.02, 56.53 25.77, 77.91 0.15 M14.66 79 C28.6 59.02, 44.71 43.2, 83.55 -0.25 M14.66 79 C42.42 48.01, 69.24 16.72, 83.55 -0.25 M20.31 78.6 C40.49 55.34, 59.33 34.92, 88.54 0.11 M20.31 78.6 C44.44 49.75, 67.56 21.75, 88.54 0.11 M25.29 78.96 C45.61 54.41, 66.98 28.43, 94.18 -0.28 M25.29 78.96 C44.02 56.95, 64.77 34.4, 94.18 -0.28 M30.94 78.57 C55.87 50.52, 78.78 23.1, 99.17 0.08 M30.94 78.57 C52.15 51.66, 74.4 28.01, 99.17 0.08 M35.92 78.93 C52.46 59.63, 65.91 43.96, 104.16 0.44 M35.92 78.93 C57.35 56.02, 78.37 32.27, 104.16 0.44 M41.57 78.53 C63.65 51.88, 86.83 21.49, 109.8 0.05 M41.57 78.53 C61.12 57.03, 79.81 34.4, 109.8 0.05 M46.56 78.9 C64.25 57.14, 84.25 33.73, 114.79 0.41 M46.56 78.9 C66.38 57.22, 86.43 33.77, 114.79 0.41 M52.2 78.5 C70.18 57.66, 85.71 37.22, 120.43 0.01 M52.2 78.5 C76.5 49.17, 101.8 19.79, 120.43 0.01 M57.19 78.86 C76.3 58.07, 97.07 35.25, 125.42 0.37 M57.19 78.86 C76.93 57.76, 95.12 35.09, 125.42 0.37 M62.83 78.47 C91.54 47.96, 118.08 16.72, 131.06 -0.02 M62.83 78.47 C84.25 52.36, 107.25 28.09, 131.06 -0.02 M67.82 78.83 C89.05 56.22, 108.55 34.34, 134.08 2.6 M67.82 78.83 C85.78 59.17, 103.25 37.68, 134.08 2.6 M73.46 78.43 C97.61 50.99, 118.89 27.64, 138.41 3.72 M73.46 78.43 C98 50.12, 122.97 21.24, 138.41 3.72 M78.45 78.79 C100.54 55.99, 118.09 34.41, 144.05 3.32 M78.45 78.79 C99.43 53.79, 121.42 29.03, 144.05 3.32 M84.09 78.4 C106.26 56.29, 126.37 33.32, 147.07 5.94 M84.09 78.4 C109.07 49.41, 134.56 21.21, 147.07 5.94 M89.08 78.76 C107.67 58.92, 127.96 36.08, 149.43 9.32 M89.08 78.76 C103.36 60.91, 117.88 43.75, 149.43 9.32 M94.06 79.12 C114.56 56.01, 134.43 33.08, 151.14 13.46 M94.06 79.12 C110.95 60.09, 127.52 40.53, 151.14 13.46 M99.71 78.72 C112.03 66.53, 125.05 52.23, 153.5 16.84 M99.71 78.72 C113.06 63.57, 127.84 46.51, 153.5 16.84 M104.69 79.08 C118.23 63.08, 130.2 50.07, 153.24 23.23 M104.69 79.08 C124.9 57.01, 143.47 34.59, 153.24 23.23 M110.34 78.69 C119.99 65.35, 128.93 55.18, 152.98 29.63 M110.34 78.69 C126.35 60.18, 141.98 41.25, 152.98 29.63 M115.32 79.05 C130.9 61.18, 143.9 45.33, 153.37 35.28 M115.32 79.05 C127.59 63.81, 141.4 49.55, 153.37 35.28 M120.97 78.65 C134.09 63.47, 145.68 49.49, 153.11 41.67 M120.97 78.65 C129.79 70.87, 135.53 61.31, 153.11 41.67 M125.95 79.01 C136.37 68.74, 147.41 55.61, 153.51 47.32 M125.95 79.01 C136.28 68.1, 146.03 55.69, 153.51 47.32 M131.6 78.62 C138.08 73.38, 142.02 67.32, 153.25 53.71 M131.6 78.62 C135.85 72.9, 140.78 67.52, 153.25 53.71 M138.55 76.72 C141.04 74.88, 144.92 68.13, 152.98 60.11 M138.55 76.72 C142.3 73.98, 144.26 70.56, 152.98 60.11" stroke="#40c057" stroke-width="0.5" fill="none"></path><path d="M19.55 0 M19.55 0 C62.14 -1.08, 103.9 1.77, 131.36 0 M19.55 0 C41.58 1.47, 63.85 1.57, 131.36 0 M131.36 0 C143.44 0.58, 149.04 7.27, 150.91 19.55 M131.36 0 C145.17 -0.17, 150.37 8.32, 150.91 19.55 M150.91 19.55 C151.64 32.43, 151.39 46.91, 150.91 58.65 M150.91 19.55 C150.06 33.82, 150.71 50.21, 150.91 58.65 M150.91 58.65 C152.59 69.74, 143.78 76.65, 131.36 78.2 M150.91 58.65 C150.97 69.59, 143.9 77.57, 131.36 78.2 M131.36 78.2 C88.9 79.08, 46.73 77.56, 19.55 78.2 M131.36 78.2 C107.82 77.54, 86.85 77.29, 19.55 78.2 M19.55 78.2 C6.7 80, 0.41 73.63, 0 58.65 M19.55 78.2 C8.65 77.7, -1.24 70.54, 0 58.65 M0 58.65 C-1.43 50.64, -0.77 42.95, 0 19.55 M0 58.65 C0.57 44.16, -0.27 30.52, 0 19.55 M0 19.55 C0.88 5.84, 7.55 0.07, 19.55 0 M0 19.55 C-0.85 5.84, 8.66 1.53, 19.55 0" stroke="#ffffff" stroke-width="1" fill="none"></path></g><g stroke-linecap="round" transform="translate(377.46148681640625 159.80198669433594) rotate(0 75.4571533203125 39.10145568847656)"><path d="M5.2 4.52 C5.2 4.52, 5.2 4.52, 5.2 4.52 M5.2 4.52 C5.2 4.52, 5.2 4.52, 5.2 4.52 M1.01 15.45 C4.11 10.32, 10.6 4.37, 12.16 2.62 M1.01 15.45 C5.37 10.13, 8.18 7.14, 12.16 2.62 M0.74 21.85 C7.36 14.38, 14.15 3.5, 19.77 -0.04 M0.74 21.85 C6.57 16.04, 11.6 8.6, 19.77 -0.04 M1.14 27.49 C10.18 18.51, 17.51 9.39, 24.76 0.32 M1.14 27.49 C8.67 19.48, 15.27 11, 24.76 0.32 M0.88 33.89 C7.76 25.18, 15.11 14.39, 30.4 -0.07 M0.88 33.89 C10.37 22.18, 20.59 10.96, 30.4 -0.07 M0.62 40.29 C11.87 29.2, 23.85 15.29, 35.39 0.29 M0.62 40.29 C15.42 24.25, 28.74 9.45, 35.39 0.29 M1.01 45.93 C15.54 27.44, 32.74 12.34, 41.03 -0.11 M1.01 45.93 C15.24 29.23, 28.94 13.63, 41.03 -0.11 M0.75 52.33 C13.96 35.25, 30.31 18.42, 46.02 0.25 M0.75 52.33 C14.14 37.02, 27.09 20.92, 46.02 0.25 M1.14 57.97 C10.1 45.08, 23.26 31.01, 51.66 -0.14 M1.14 57.97 C15.03 42.61, 26.97 26.69, 51.66 -0.14 M0.88 64.37 C14.99 49.02, 27.8 31.48, 56.65 0.22 M0.88 64.37 C18.55 45.35, 34.95 24.51, 56.65 0.22 M2.59 68.5 C22.51 43.49, 46.28 19.04, 62.29 -0.18 M2.59 68.5 C15.59 52.26, 27.33 38.4, 62.29 -0.18 M4.95 71.88 C29.02 43.56, 51.19 16.25, 67.28 0.18 M4.95 71.88 C24.26 50.73, 42.93 27.61, 67.28 0.18 M7.32 75.26 C33.05 46.22, 57.95 15.11, 72.92 -0.21 M7.32 75.26 C20.99 57.89, 36.55 39.82, 72.92 -0.21 M10.33 77.88 C32.84 51.47, 54.01 27.31, 77.91 0.15 M10.33 77.88 C29.45 57.58, 48.18 34.04, 77.91 0.15 M14.66 79 C38.47 48.93, 66.47 22.73, 83.55 -0.25 M14.66 79 C32.37 58.63, 49.8 38.64, 83.55 -0.25 M20.31 78.6 C34.38 60.95, 51.24 45.14, 88.54 0.11 M20.31 78.6 C43.59 49.59, 67.81 22.76, 88.54 0.11 M25.29 78.96 C51.73 48.31, 76.77 17.65, 94.18 -0.28 M25.29 78.96 C42 61.09, 58.18 41.13, 94.18 -0.28 M30.94 78.57 C47.98 58.02, 65.7 36.31, 99.17 0.08 M30.94 78.57 C53.24 51.1, 78.88 23.35, 99.17 0.08 M35.92 78.93 C48.15 61.33, 64.03 46.9, 104.16 0.44 M35.92 78.93 C57.54 55.72, 78.26 31.91, 104.16 0.44 M41.57 78.53 C67.22 48.36, 89.19 21.25, 109.8 0.05 M41.57 78.53 C59.76 57.88, 76.74 37.8, 109.8 0.05 M46.56 78.9 C73.48 48.66, 98.85 16.14, 114.79 0.41 M46.56 78.9 C70.73 52.75, 93.09 24.81, 114.79 0.41 M52.2 78.5 C74.77 50.13, 97.84 26.09, 120.43 0.01 M52.2 78.5 C75.56 51.11, 98.93 23.48, 120.43 0.01 M57.19 78.86 C74.97 60.98, 90.78 41.03, 125.42 0.37 M57.19 78.86 C72.13 61.72, 85.51 46.81, 125.42 0.37 M62.83 78.47 C81.95 57.7, 100.38 34.7, 131.06 -0.02 M62.83 78.47 C80.94 57.47, 100.88 35.69, 131.06 -0.02 M67.82 78.83 C94.38 49.46, 121.71 17.6, 134.08 2.6 M67.82 78.83 C94.47 49.11, 119.23 20.8, 134.08 2.6 M73.46 78.43 C85.64 61.92, 101.92 49.26, 138.41 3.72 M73.46 78.43 C97.32 51.44, 120.62 25.3, 138.41 3.72 M78.45 78.79 C94.12 59.56, 110.95 44.42, 144.05 3.32 M78.45 78.79 C95.25 59.38, 112.28 40.75, 144.05 3.32 M84.09 78.4 C97.73 64.87, 110.51 50.49, 147.07 5.94 M84.09 78.4 C102.45 57.48, 121.6 35.95, 147.07 5.94 M89.08 78.76 C109.38 58.99, 126.63 34.65, 149.43 9.32 M89.08 78.76 C103.74 60.28, 119.17 43.29, 149.43 9.32 M94.06 79.12 C110.3 60.66, 126.77 39.75, 151.14 13.46 M94.06 79.12 C109.01 61.98, 123.44 43.69, 151.14 13.46 M99.71 78.72 C117.82 60.91, 133.78 40.99, 153.5 16.84 M99.71 78.72 C119.16 58.05, 136.71 35.67, 153.5 16.84 M104.69 79.08 C120.73 59.29, 139.71 40.38, 153.24 23.23 M104.69 79.08 C115.26 66.63, 125.47 53.59, 153.24 23.23 M110.34 78.69 C119.28 64.85, 131.42 54.94, 152.98 29.63 M110.34 78.69 C122.63 64.08, 134.47 50.93, 152.98 29.63 M115.32 79.05 C122.23 68.86, 131.21 60.55, 153.37 35.28 M115.32 79.05 C130.12 62.33, 145.84 45.97, 153.37 35.28 M120.97 78.65 C131.61 65.17, 143.45 51.43, 153.11 41.67 M120.97 78.65 C128.29 70.07, 133.85 64.22, 153.11 41.67 M125.95 79.01 C137.16 68.86, 145.5 58.55, 153.51 47.32 M125.95 79.01 C137.53 66.47, 147.58 53.89, 153.51 47.32 M131.6 78.62 C139.27 70.66, 146.15 60.62, 153.25 53.71 M131.6 78.62 C136.1 72.64, 140.97 67.58, 153.25 53.71 M138.55 76.72 C145.6 70.82, 147.73 63.02, 152.98 60.11 M138.55 76.72 C143.37 71.54, 147.53 68.01, 152.98 60.11" stroke="#40c057" stroke-width="0.5" fill="none"></path><path d="M19.55 0 M19.55 0 C46.58 -1.06, 78.18 -1.91, 131.36 0 M19.55 0 C61.96 -0.08, 104.09 -0.08, 131.36 0 M131.36 0 C144.98 -1.88, 151.66 7.19, 150.91 19.55 M131.36 0 C144.23 -0.54, 152.72 7.63, 150.91 19.55 M150.91 19.55 C150.09 33.46, 150.95 48.54, 150.91 58.65 M150.91 19.55 C149.67 30.04, 150.92 41.56, 150.91 58.65 M150.91 58.65 C148.97 71.07, 142.85 78.25, 131.36 78.2 M150.91 58.65 C148.81 71.19, 143.76 80.02, 131.36 78.2 M131.36 78.2 C107.65 78.31, 80.64 76.23, 19.55 78.2 M131.36 78.2 C88.3 78.22, 44.99 77.37, 19.55 78.2 M19.55 78.2 C8.31 78.61, 1.94 73.54, 0 58.65 M19.55 78.2 C6.01 76.96, -1.15 69.42, 0 58.65 M0 58.65 C-0.25 47.34, -0.06 38.82, 0 19.55 M0 58.65 C-0.57 44.78, -0.5 31.47, 0 19.55 M0 19.55 C-0.67 7.55, 6.59 -0.74, 19.55 0 M0 19.55 C-0.68 8.66, 8.05 1.75, 19.55 0" stroke="#ffffff" stroke-width="1" fill="none"></path></g><g transform="translate(201.23538208007812 165.3615757676422) rotate(0 31.5 30)"><text x="0" y="44" font-family="Tinkoff Sans, Segoe UI Emoji" font-size="48px" fill="#ffffff" text-anchor="start" style="white-space: pre;" direction="ltr">Set</text></g><g transform="translate(416.78631591796875 166.90414428710938) rotate(0 37 30)"><text x="0" y="44" font-family="Tinkoff Sans, Segoe UI Emoji" font-size="48px" fill="#ffffff" text-anchor="start" style="white-space: pre;" direction="ltr">Seq</text></g><g transform="translate(630.186767578125 166.51272583007812) rotate(0 43 30)"><text x="0" y="44" font-family="Tinkoff Sans, Segoe UI Emoji" font-size="48px" fill="#ffffff" text-anchor="start" style="white-space: pre;" direction="ltr">Map</text></g><g stroke-linecap="round"><g transform="translate(301.54400634765625 160.994384765625) rotate(0 37.92759964943298 -35.069573891181506)"><path d="M0.16 -1 C13.02 -12.46, 64.39 -57.92, 77.07 -69.51 M-1.21 1.09 C11.51 -10.64, 62.86 -59.48, 76.19 -71.23" stroke="#ffffff" stroke-width="1" fill="none"></path></g><g transform="translate(301.54400634765625 160.994384765625) rotate(0 37.92759964943298 -35.069573891181506)"><path d="M60.73 -44.38 C67.86 -53.56, 70.12 -60.89, 74.93 -70.47 M61.66 -45.24 C65.02 -51.61, 69.39 -59.03, 76.81 -72.09" stroke="#ffffff" stroke-width="1" fill="none"></path></g><g transform="translate(301.54400634765625 160.994384765625) rotate(0 37.92759964943298 -35.069573891181506)"><path d="M46.83 -59.48 C57.92 -64.28, 64.23 -67.2, 74.93 -70.47 M47.76 -60.34 C54.86 -62.65, 62.9 -66.06, 76.81 -72.09" stroke="#ffffff" stroke-width="1" fill="none"></path></g></g><g stroke-linecap="round"><g transform="translate(452.2564697265625 158.52426147460938) rotate(0 0.5683181191608355 -33.95422656051812)"><path d="M-0.42 -0.23 C-0.14 -11.48, 0.41 -56.44, 0.75 -67.68 M1.56 -1.4 C1.75 -12.45, -0.21 -55.41, -0.28 -66.24" stroke="#ffffff" stroke-width="1" fill="none"></path></g><g transform="translate(452.2564697265625 158.52426147460938) rotate(0 0.5683181191608355 -33.95422656051812)"><path d="M10.37 -38.59 C8.02 -43.41, 5.63 -51.8, -2.07 -64.55 M11.57 -38.5 C7.19 -46.53, 4.32 -55.42, 0.46 -65.87" stroke="#ffffff" stroke-width="1" fill="none"></path></g><g transform="translate(452.2564697265625 158.52426147460938) rotate(0 0.5683181191608355 -33.95422656051812)"><path d="M-10.14 -38.02 C-7.96 -42.9, -5.81 -51.41, -2.07 -64.55 M-8.95 -37.93 C-6.85 -46.13, -3.24 -55.2, 0.46 -65.87" stroke="#ffffff" stroke-width="1" fill="none"></path></g></g><g stroke-linecap="round"><g transform="translate(602.0263061523438 161.82763671875) rotate(0 -39.20007069084443 -38.28125412064006)"><path d="M-0.31 0.11 C-13.39 -12.53, -65.94 -63.86, -79.29 -76.67 M1.72 -0.88 C-11.42 -13.29, -66.83 -62.96, -80.12 -75.45" stroke="#ffffff" stroke-width="1" fill="none"></path></g><g transform="translate(602.0263061523438 161.82763671875) rotate(0 -39.20007069084443 -38.28125412064006)"><path d="M-52.22 -63.61 C-59.72 -68.24, -66.28 -70.9, -81.31 -75.95 M-51.71 -63.02 C-62.78 -68.84, -72.26 -72.76, -80.96 -74.86" stroke="#ffffff" stroke-width="1" fill="none"></path></g><g transform="translate(602.0263061523438 161.82763671875) rotate(0 -39.20007069084443 -38.28125412064006)"><path d="M-66.07 -48.47 C-70.26 -56.57, -73.61 -62.73, -81.31 -75.95 M-65.56 -47.88 C-71.63 -59.32, -76.09 -68.72, -80.96 -74.86" stroke="#ffffff" stroke-width="1" fill="none"></path></g></g><g stroke-linecap="round" transform="translate(10 305.40806579589844) rotate(0 75.4571533203125 39.10145568847656)"><path d="M5.2 4.52 C5.2 4.52, 5.2 4.52, 5.2 4.52 M5.2 4.52 C5.2 4.52, 5.2 4.52, 5.2 4.52 M1.01 15.45 C4.55 12.64, 7.57 7.87, 12.16 2.62 M1.01 15.45 C4.64 10.63, 9.22 5.27, 12.16 2.62 M0.74 21.85 C6.77 14.87, 13.32 5.34, 19.77 -0.04 M0.74 21.85 C6.2 16.61, 11.69 9.99, 19.77 -0.04 M1.14 27.49 C9.59 17.83, 19.65 8.21, 24.76 0.32 M1.14 27.49 C6.97 20.81, 12.69 14.02, 24.76 0.32 M0.88 33.89 C10.11 22.22, 20.92 12.27, 30.4 -0.07 M0.88 33.89 C7.97 25.14, 12.95 18.75, 30.4 -0.07 M0.62 40.29 C9.11 32.99, 17.27 21.2, 35.39 0.29 M0.62 40.29 C9.68 28.67, 20.74 18.27, 35.39 0.29 M1.01 45.93 C6.95 37.88, 16.67 28.46, 41.03 -0.11 M1.01 45.93 C12.87 30.99, 26.71 15.06, 41.03 -0.11 M0.75 52.33 C15.73 34.24, 30.23 19.66, 46.02 0.25 M0.75 52.33 C14.1 37.51, 26.03 22.47, 46.02 0.25 M1.14 57.97 C12.07 44.47, 20.93 33.66, 51.66 -0.14 M1.14 57.97 C16.35 41.34, 29.43 24.45, 51.66 -0.14 M0.88 64.37 C14.68 47.23, 27.98 31.62, 56.65 0.22 M0.88 64.37 C14.5 49.5, 26.99 34.59, 56.65 0.22 M2.59 68.5 C15.58 52.24, 28.52 38.23, 62.29 -0.18 M2.59 68.5 C15.08 54.19, 27.63 40.77, 62.29 -0.18 M4.95 71.88 C29.4 41.94, 54.02 16.35, 67.28 0.18 M4.95 71.88 C24.21 48.47, 45.46 24.62, 67.28 0.18 M7.32 75.26 C18.71 62.07, 34.34 46.16, 72.92 -0.21 M7.32 75.26 C25.23 54.75, 43.43 33.42, 72.92 -0.21 M10.33 77.88 C29.73 54.87, 48.36 32.64, 77.91 0.15 M10.33 77.88 C32.51 52.72, 56.35 24.66, 77.91 0.15 M14.66 79 C32.31 58.33, 51.67 38.47, 83.55 -0.25 M14.66 79 C33.95 56.23, 53.68 33.54, 83.55 -0.25 M20.31 78.6 C37.33 56.63, 59.85 33.06, 88.54 0.11 M20.31 78.6 C36.13 59.91, 52.66 40.76, 88.54 0.11 M25.29 78.96 C41.29 60.44, 54.99 47.3, 94.18 -0.28 M25.29 78.96 C48.54 53.9, 72.41 26.78, 94.18 -0.28 M30.94 78.57 C45.14 61.28, 62.55 39.86, 99.17 0.08 M30.94 78.57 C45.6 60.94, 60.97 43.37, 99.17 0.08 M35.92 78.93 C48.22 63.96, 63.87 45.59, 104.16 0.44 M35.92 78.93 C57.06 54.33, 77.43 30.79, 104.16 0.44 M41.57 78.53 C59.63 59.26, 74.89 38.68, 109.8 0.05 M41.57 78.53 C58.77 58.9, 76.48 40.54, 109.8 0.05 M46.56 78.9 C69.67 52.83, 92.03 27.8, 114.79 0.41 M46.56 78.9 C73.13 48.26, 99.9 16.7, 114.79 0.41 M52.2 78.5 C76.06 47.51, 103.9 18.67, 120.43 0.01 M52.2 78.5 C73.87 53.47, 95.37 29.9, 120.43 0.01 M57.19 78.86 C81.87 52.33, 106.25 22.71, 125.42 0.37 M57.19 78.86 C82.9 48.57, 108.88 20.55, 125.42 0.37 M62.83 78.47 C77.2 59, 95.64 41.3, 131.06 -0.02 M62.83 78.47 C88.31 51.51, 112.96 22.79, 131.06 -0.02 M67.82 78.83 C85.47 58.81, 99.57 39.55, 134.08 2.6 M67.82 78.83 C92.44 50.33, 114.74 24.23, 134.08 2.6 M73.46 78.43 C87.24 61.23, 103.41 45.43, 138.41 3.72 M73.46 78.43 C97.74 48.42, 124.37 19.25, 138.41 3.72 M78.45 78.79 C96.74 60.96, 112.67 39.87, 144.05 3.32 M78.45 78.79 C105.44 48.08, 130.61 17.68, 144.05 3.32 M84.09 78.4 C106.12 51.1, 128.91 26.3, 147.07 5.94 M84.09 78.4 C105.78 53, 127.9 25.53, 147.07 5.94 M89.08 78.76 C113.06 51.72, 131.22 29.33, 149.43 9.32 M89.08 78.76 C107.38 59, 124.02 38.33, 149.43 9.32 M94.06 79.12 C114.14 56.7, 135.55 31.98, 151.14 13.46 M94.06 79.12 C108.42 63.87, 122.08 47.77, 151.14 13.46 M99.71 78.72 C114.74 60.15, 126.81 44.22, 153.5 16.84 M99.71 78.72 C111.58 64.09, 123.59 49.73, 153.5 16.84 M104.69 79.08 C124 57.59, 141.28 35.48, 153.24 23.23 M104.69 79.08 C123.34 56.91, 143.42 34.03, 153.24 23.23 M110.34 78.69 C120.73 67.47, 126.77 59.68, 152.98 29.63 M110.34 78.69 C122.22 66.58, 133.08 53.03, 152.98 29.63 M115.32 79.05 C128.77 64.24, 142.02 49.42, 153.37 35.28 M115.32 79.05 C122.33 70.12, 131.94 60.52, 153.37 35.28 M120.97 78.65 C132.6 66.3, 143.96 52.26, 153.11 41.67 M120.97 78.65 C130.14 68.1, 139.95 56.01, 153.11 41.67 M125.95 79.01 C134.22 66.79, 142.84 59.91, 153.51 47.32 M125.95 79.01 C131.48 71.74, 138.3 64.88, 153.51 47.32 M131.6 78.62 C137.96 68.13, 149.15 60.69, 153.25 53.71 M131.6 78.62 C137.39 71.73, 144.12 63.84, 153.25 53.71 M138.55 76.72 C142.27 69.61, 150.27 63.17, 152.98 60.11 M138.55 76.72 C140.59 73.94, 143.92 69.08, 152.98 60.11" stroke="#228be6" stroke-width="0.5" fill="none"></path><path d="M19.55 0 M19.55 0 C56.9 -0.73, 95.58 0.62, 131.36 0 M19.55 0 C43.85 -1.07, 70.48 0.11, 131.36 0 M131.36 0 C145.83 -0.81, 151.8 5.54, 150.91 19.55 M131.36 0 C146.25 -1.49, 151.42 6.87, 150.91 19.55 M150.91 19.55 C152.55 30.78, 152.16 45.26, 150.91 58.65 M150.91 19.55 C151.51 34.07, 150.16 47.44, 150.91 58.65 M150.91 58.65 C150.52 72.48, 142.65 78.52, 131.36 78.2 M150.91 58.65 C150.99 69.92, 144.26 78.08, 131.36 78.2 M131.36 78.2 C103.77 79.45, 75.65 78.12, 19.55 78.2 M131.36 78.2 C99.3 79.2, 67.21 79.02, 19.55 78.2 M19.55 78.2 C7.56 77.85, 0.83 73.61, 0 58.65 M19.55 78.2 C5.12 75.95, 1.31 72.64, 0 58.65 M0 58.65 C-1.15 50.27, 0.28 37.9, 0 19.55 M0 58.65 C-1.22 49.17, -0.65 38.38, 0 19.55 M0 19.55 C-0.16 6.56, 6.2 1.03, 19.55 0 M0 19.55 C-0.52 5.05, 7.16 1.92, 19.55 0" stroke="#ffffff" stroke-width="1" fill="none"></path></g><g stroke-linecap="round"><g transform="translate(97.42169189453125 304.63348388671875) rotate(0 33.89208677299325 -37.90561632175928)"><path d="M-0.93 1.01 C10.58 -11.72, 57.44 -62.19, 68.71 -75.21 M0.78 0.5 C12.24 -12.04, 56.85 -64.03, 68.21 -76.82" stroke="#ffffff" stroke-width="1" fill="none"></path></g><g transform="translate(97.42169189453125 304.63348388671875) rotate(0 33.89208677299325 -37.90561632175928)"><path d="M59.11 -47.41 C61.68 -58.29, 61.43 -63.52, 66.45 -77.82 M58.28 -49.77 C61.07 -59.09, 64.98 -70.16, 67.68 -76.08" stroke="#ffffff" stroke-width="1" fill="none"></path></g><g transform="translate(97.42169189453125 304.63348388671875) rotate(0 33.89208677299325 -37.90561632175928)"><path d="M43.64 -60.9 C50.53 -68.01, 54.47 -69.58, 66.45 -77.82 M42.81 -63.26 C51.37 -67.71, 60.98 -73.81, 67.68 -76.08" stroke="#ffffff" stroke-width="1" fill="none"></path></g></g><g transform="translate(24.7052001953125 320.3248291015625) rotate(0 60 22.5)"><text x="0" y="33" font-family="Tinkoff Sans, Segoe UI Emoji" font-size="36px" fill="#ffffff" text-anchor="start" style="white-space: pre;" direction="ltr">HashSet</text></g><g stroke-linecap="round" transform="translate(255.5040283203125 304.3663787841797) rotate(0 87.34951782226562 39.10145568847656)"><path d="M5.2 4.52 C5.2 4.52, 5.2 4.52, 5.2 4.52 M5.2 4.52 C5.2 4.52, 5.2 4.52, 5.2 4.52 M1.01 15.45 C4.99 10.08, 7.17 6.36, 12.16 2.62 M1.01 15.45 C4.04 11.94, 7.58 7.22, 12.16 2.62 M0.74 21.85 C8.63 15.05, 15.86 4.85, 19.77 -0.04 M0.74 21.85 C4.1 17.9, 9.04 13.69, 19.77 -0.04 M1.14 27.49 C7.83 20.2, 15.33 12.49, 24.76 0.32 M1.14 27.49 C7.22 19.39, 15.26 10.47, 24.76 0.32 M0.88 33.89 C7.96 23.59, 16.23 13.51, 30.4 -0.07 M0.88 33.89 C8.49 25.03, 17.9 15.68, 30.4 -0.07 M0.62 40.29 C10.04 29.74, 23.78 13.91, 35.39 0.29 M0.62 40.29 C6.62 32.87, 15.03 24.98, 35.39 0.29 M1.01 45.93 C15.33 32.49, 27.92 17.51, 41.03 -0.11 M1.01 45.93 C14.41 29.86, 27.63 16.21, 41.03 -0.11 M0.75 52.33 C14.57 33.43, 31.27 17.48, 46.02 0.25 M0.75 52.33 C9.45 42.86, 19.43 30.73, 46.02 0.25 M1.14 57.97 C20.38 38.08, 37.31 17.1, 51.66 -0.14 M1.14 57.97 C17.23 41.01, 32.7 23.33, 51.66 -0.14 M0.88 64.37 C18.26 45.3, 36.24 24.21, 56.65 0.22 M0.88 64.37 C21.08 42.75, 40.02 20.04, 56.65 0.22 M3.25 67.75 C16.86 53.89, 28.49 41.21, 62.29 -0.18 M3.25 67.75 C21.59 47.49, 40.56 24.46, 62.29 -0.18 M4.95 71.88 C22.24 52.62, 36.59 33.46, 67.28 0.18 M4.95 71.88 C29.22 44.1, 53.19 15.41, 67.28 0.18 M7.32 75.26 C24.43 55.76, 40.25 40.15, 72.92 -0.21 M7.32 75.26 C32.41 46.83, 58.51 18.31, 72.92 -0.21 M10.99 77.13 C24.43 62.22, 38.37 43.26, 77.91 0.15 M10.99 77.13 C36.48 47.22, 64.01 16.48, 77.91 0.15 M15.98 77.49 C36.2 53.44, 59.05 27.33, 83.55 -0.25 M15.98 77.49 C38.21 52.87, 59.82 27.76, 83.55 -0.25 M20.31 78.6 C44.08 52.07, 64.5 26.82, 88.54 0.11 M20.31 78.6 C43.36 52.48, 65.87 27.01, 88.54 0.11 M25.29 78.96 C39.19 61.56, 56.7 43.03, 94.18 -0.28 M25.29 78.96 C44.46 59.29, 61.81 37.26, 94.18 -0.28 M30.94 78.57 C46.43 59.19, 64.87 40.29, 99.17 0.08 M30.94 78.57 C45.41 62.12, 59.93 45.09, 99.17 0.08 M35.92 78.93 C59.11 51.7, 82.71 27.74, 104.16 0.44 M35.92 78.93 C56.53 56.2, 78.21 31.24, 104.16 0.44 M41.57 78.53 C59.21 59.26, 75.21 40.69, 109.8 0.05 M41.57 78.53 C56.26 60.8, 72.86 42.33, 109.8 0.05 M46.56 78.9 C63.77 60.47, 77.5 41.47, 114.79 0.41 M46.56 78.9 C66.5 56.98, 83.29 36.58, 114.79 0.41 M52.2 78.5 C76.28 53.5, 95.43 27.43, 120.43 0.01 M52.2 78.5 C65.31 60.65, 80.03 44.54, 120.43 0.01 M57.19 78.86 C78.52 53.08, 104.16 23.8, 125.42 0.37 M57.19 78.86 C82.79 49.24, 107.42 20.67, 125.42 0.37 M62.83 78.47 C83.06 55.54, 106.21 28.89, 131.06 -0.02 M62.83 78.47 C83.67 52.32, 105.86 29.19, 131.06 -0.02 M67.82 78.83 C92.56 50.63, 117.46 21.8, 136.05 0.34 M67.82 78.83 C87.71 54.14, 110.33 30.09, 136.05 0.34 M73.46 78.43 C99.05 50.63, 121.53 22.47, 141.69 -0.06 M73.46 78.43 C97.85 48.87, 123.61 20.25, 141.69 -0.06 M78.45 78.79 C99.25 52.01, 123 29.82, 146.68 0.3 M78.45 78.79 C105.13 47.77, 133.65 17.89, 146.68 0.3 M84.09 78.4 C102.35 60.05, 121.55 37.9, 152.32 -0.09 M84.09 78.4 C108.01 50.84, 133.88 22.01, 152.32 -0.09 M89.08 78.76 C114.17 51.15, 138.58 22.43, 156.65 1.02 M89.08 78.76 C106.14 59.17, 123.68 39.83, 156.65 1.02 M94.06 79.12 C115.42 53.01, 139.26 27, 160.98 2.14 M94.06 79.12 C113.93 56.33, 133.28 33.49, 160.98 2.14 M99.71 78.72 C125.44 48.19, 148.26 21.13, 165.31 3.25 M99.71 78.72 C115.74 58.8, 132.57 38.94, 165.31 3.25 M104.69 79.08 C124.3 59.51, 141.7 37.68, 168.99 5.12 M104.69 79.08 C127.68 55.15, 148.58 29.97, 168.99 5.12 M110.34 78.69 C135.69 49.96, 156.84 22.93, 172.01 7.75 M110.34 78.69 C132.88 54.02, 153.22 29.6, 172.01 7.75 M115.32 79.05 C137.25 52.69, 161.11 28.97, 173.71 11.88 M115.32 79.05 C132.87 59.74, 149.58 39.48, 173.71 11.88 M120.97 78.65 C138.67 55.68, 156.22 37.55, 175.42 16.01 M120.97 78.65 C142.1 54.09, 163.63 28.61, 175.42 16.01 M125.95 79.01 C142.53 61.22, 159.69 38.67, 175.81 21.66 M125.95 79.01 C142.81 60.03, 162 39.94, 175.81 21.66 M131.6 78.62 C142.26 64.12, 155.19 50.53, 175.55 28.05 M131.6 78.62 C141.36 67.81, 151.27 56.39, 175.55 28.05 M136.58 78.98 C149.1 61.42, 165.24 46.59, 175.95 33.7 M136.58 78.98 C148.25 64.73, 160.73 51.27, 175.95 33.7 M142.23 78.58 C156.71 63.33, 167.6 49.21, 175.68 40.09 M142.23 78.58 C150.02 70.12, 156.86 61.16, 175.68 40.09 M147.21 78.94 C153.37 70.76, 163.24 62.24, 175.42 46.49 M147.21 78.94 C155.9 68.72, 165.95 57.5, 175.42 46.49 M152.86 78.55 C161.76 67.73, 171.35 56.07, 175.82 52.14 M152.86 78.55 C158.76 70.9, 166.51 64.4, 175.82 52.14 M157.19 79.66 C161.53 76.59, 166.34 69.77, 174.9 59.29 M157.19 79.66 C160.54 75.39, 164.38 70.76, 174.9 59.29 M163.49 78.52 C166.74 75.52, 171.61 69.37, 173.98 66.44 M163.49 78.52 C167.02 75.01, 170.26 70.93, 173.98 66.44" stroke="#40c057" stroke-width="0.5" fill="none"></path><path d="M19.55 0 M19.55 0 C59.91 1.31, 96.26 0.1, 155.15 0 M19.55 0 C67.67 -0.36, 116.24 -0.97, 155.15 0 M155.15 0 C166.5 0.49, 175.17 8.32, 174.7 19.55 M155.15 0 C169.4 -0.32, 176.44 6.6, 174.7 19.55 M174.7 19.55 C172.83 29.35, 175.05 36.6, 174.7 58.65 M174.7 19.55 C175.51 30.72, 175.66 44.1, 174.7 58.65 M174.7 58.65 C175.98 71.62, 166.66 76.38, 155.15 78.2 M174.7 58.65 C176.19 73.2, 168.29 80.28, 155.15 78.2 M155.15 78.2 C123.14 77, 92.21 76.21, 19.55 78.2 M155.15 78.2 C106.41 76.45, 57.6 78.2, 19.55 78.2 M19.55 78.2 C7.68 77.25, 1.04 70.89, 0 58.65 M19.55 78.2 C7.8 77.81, 0.13 70.65, 0 58.65 M0 58.65 C1.52 48.34, -0.37 42.81, 0 19.55 M0 58.65 C-0.38 43.88, 0.1 30.74, 0 19.55 M0 19.55 C-0.28 7.51, 4.8 0.52, 19.55 0 M0 19.55 C-1.34 6.58, 8.7 -2.18, 19.55 0" stroke="#ffffff" stroke-width="1" fill="none"></path></g><g transform="translate(269.07421875 319.97314453125) rotate(0 72.5 22.5)"><text x="0" y="33" font-family="Tinkoff Sans, Segoe UI Emoji" font-size="36px" fill="#ffffff" text-anchor="start" style="white-space: pre;" direction="ltr">LinearSeq</text></g><g stroke-linecap="round"><g transform="translate(373.7373733248562 303.3663787841797) rotate(0 21.960444267896605 -33.48252261392773)"><path d="M0.25 -0.16 C7.47 -11.45, 35.58 -55.87, 42.67 -66.8 M-1.08 -1.29 C6.59 -12.49, 37.86 -54.42, 45 -65.5" stroke="#ffffff" stroke-width="1" fill="none"></path></g><g transform="translate(373.7373733248562 303.3663787841797) rotate(0 21.960444267896605 -33.48252261392773)"><path d="M36.96 -37.74 C38.18 -44.66, 41.86 -51.63, 45.69 -66.12 M36.34 -35.96 C38.76 -42.91, 40.09 -50.55, 45.83 -65.12" stroke="#ffffff" stroke-width="1" fill="none"></path></g><g transform="translate(373.7373733248562 303.3663787841797) rotate(0 21.960444267896605 -33.48252261392773)"><path d="M20.15 -49.51 C25.59 -53.57, 33.41 -57.64, 45.69 -66.12 M19.53 -47.73 C25.91 -51.95, 31.15 -56.86, 45.83 -65.12" stroke="#ffffff" stroke-width="1" fill="none"></path></g></g><g stroke-linecap="round" transform="translate(224.0615234375 435.3022918701172) rotate(0 75.4571533203125 39.10145568847656)"><path d="M5.2 4.52 C5.2 4.52, 5.2 4.52, 5.2 4.52 M5.2 4.52 C5.2 4.52, 5.2 4.52, 5.2 4.52 M1.01 15.45 C3.45 10.24, 5.7 9.57, 12.16 2.62 M1.01 15.45 C2.87 13.41, 5.59 9.89, 12.16 2.62 M0.74 21.85 C5.68 13.39, 12.1 6.51, 19.77 -0.04 M0.74 21.85 C9.21 12.46, 15.32 4.74, 19.77 -0.04 M1.14 27.49 C8.18 15.88, 17.89 8.49, 24.76 0.32 M1.14 27.49 C9.38 17.15, 20.24 7.32, 24.76 0.32 M0.88 33.89 C7.93 22.4, 19.64 14.01, 30.4 -0.07 M0.88 33.89 C11.04 23.62, 19.83 13, 30.4 -0.07 M0.62 40.29 C10.52 29.14, 19.72 19.45, 35.39 0.29 M0.62 40.29 C9.11 31.06, 15.92 23.08, 35.39 0.29 M1.01 45.93 C9.23 36.01, 17.49 25.63, 41.03 -0.11 M1.01 45.93 C9.62 35.49, 18.33 23.61, 41.03 -0.11 M0.75 52.33 C16.21 33.93, 29.9 16.75, 46.02 0.25 M0.75 52.33 C13.22 39.12, 25.87 24.8, 46.02 0.25 M1.14 57.97 C16.54 43.17, 32.49 25.1, 51.66 -0.14 M1.14 57.97 C17.58 40.21, 32.4 20.33, 51.66 -0.14 M0.88 64.37 C20.35 45.84, 36.7 23.79, 56.65 0.22 M0.88 64.37 C16.85 44.34, 33.94 25.45, 56.65 0.22 M2.59 68.5 C26.5 42.16, 50.89 14.07, 62.29 -0.18 M2.59 68.5 C22.83 44.09, 42.81 19.83, 62.29 -0.18 M4.95 71.88 C26.79 46.14, 48.79 20.96, 67.28 0.18 M4.95 71.88 C20.25 52.58, 38.24 33.73, 67.28 0.18 M7.32 75.26 C19.68 57.33, 37.15 44.18, 72.92 -0.21 M7.32 75.26 C33.04 45.18, 58.92 15.93, 72.92 -0.21 M10.33 77.88 C26.33 61.93, 40.25 46.26, 77.91 0.15 M10.33 77.88 C32.18 51, 54.34 26.08, 77.91 0.15 M14.66 79 C32.77 56.64, 51.16 35.8, 83.55 -0.25 M14.66 79 C37.68 53.39, 60.18 25.78, 83.55 -0.25 M20.31 78.6 C43.48 55.46, 63.27 30.44, 88.54 0.11 M20.31 78.6 C37.25 58.49, 54.82 40.08, 88.54 0.11 M25.29 78.96 C47.95 52.4, 70.16 28.6, 94.18 -0.28 M25.29 78.96 C47.58 52.51, 70.58 26.23, 94.18 -0.28 M30.94 78.57 C46.06 61.61, 58.31 48.42, 99.17 0.08 M30.94 78.57 C58.48 47.51, 85.57 17.15, 99.17 0.08 M35.92 78.93 C59.37 53.23, 79.55 28.66, 104.16 0.44 M35.92 78.93 C59.94 50.18, 85.83 22.42, 104.16 0.44 M41.57 78.53 C57.14 59.17, 76.87 38.95, 109.8 0.05 M41.57 78.53 C60.51 56.95, 80.8 33.27, 109.8 0.05 M46.56 78.9 C65.35 57.31, 83.08 36.66, 114.79 0.41 M46.56 78.9 C66.88 57.28, 86.6 33.89, 114.79 0.41 M52.2 78.5 C78.19 51.42, 101.46 21.56, 120.43 0.01 M52.2 78.5 C73.67 53.36, 95.58 28.24, 120.43 0.01 M57.19 78.86 C83.42 46.42, 108.16 18.77, 125.42 0.37 M57.19 78.86 C81.39 48.81, 106.41 20.3, 125.42 0.37 M62.83 78.47 C83.8 55.31, 100.88 34.05, 131.06 -0.02 M62.83 78.47 C77.39 61.61, 91.11 45.84, 131.06 -0.02 M67.82 78.83 C90.63 50.07, 114.45 25.51, 134.08 2.6 M67.82 78.83 C93.65 51.43, 116.76 23.39, 134.08 2.6 M73.46 78.43 C89.94 60.71, 105.44 41.72, 138.41 3.72 M73.46 78.43 C96 53.12, 116.19 29.2, 138.41 3.72 M78.45 78.79 C95.04 60.92, 109.57 45.48, 144.05 3.32 M78.45 78.79 C94.88 59.57, 111.44 41.06, 144.05 3.32 M84.09 78.4 C103.28 56.08, 122.81 35.38, 147.07 5.94 M84.09 78.4 C96.59 64.24, 110.95 48.09, 147.07 5.94 M89.08 78.76 C106.16 58.33, 126.12 36.24, 149.43 9.32 M89.08 78.76 C106.46 57.24, 124.34 38.4, 149.43 9.32 M94.06 79.12 C112.13 60.63, 131.02 38.85, 151.14 13.46 M94.06 79.12 C105.74 64.21, 119.88 50.25, 151.14 13.46 M99.71 78.72 C115.89 56.95, 133.83 37.65, 153.5 16.84 M99.71 78.72 C116.65 59.82, 135.57 38.1, 153.5 16.84 M104.69 79.08 C118.12 63.46, 131.81 48.95, 153.24 23.23 M104.69 79.08 C119.19 63.51, 133.29 48.34, 153.24 23.23 M110.34 78.69 C120.82 64.73, 134.19 53.07, 152.98 29.63 M110.34 78.69 C123.84 63.38, 138.47 45.68, 152.98 29.63 M115.32 79.05 C127.51 63.81, 140.86 50.59, 153.37 35.28 M115.32 79.05 C129.1 63.3, 144.52 46.63, 153.37 35.28 M120.97 78.65 C132.07 68.31, 138.18 56.12, 153.11 41.67 M120.97 78.65 C130.09 70.29, 136.15 60.11, 153.11 41.67 M125.95 79.01 C134.73 67.43, 142.45 57.27, 153.51 47.32 M125.95 79.01 C136.08 66.14, 147.15 54.98, 153.51 47.32 M131.6 78.62 C135.28 71.76, 140.66 66.82, 153.25 53.71 M131.6 78.62 C138.41 70.81, 146.74 61.23, 153.25 53.71 M138.55 76.72 C142.62 70.43, 147.46 64.69, 152.98 60.11 M138.55 76.72 C142.32 71.04, 148.81 66.73, 152.98 60.11" stroke="#228be6" stroke-width="0.5" fill="none"></path><path d="M19.55 0 M19.55 0 C48.67 1.88, 81.36 1.49, 131.36 0 M19.55 0 C46.05 -1.63, 73.01 -0.61, 131.36 0 M131.36 0 C143.56 1.57, 152.2 4.77, 150.91 19.55 M131.36 0 C144.12 -0.3, 150.11 5.74, 150.91 19.55 M150.91 19.55 C149.69 29.08, 149.8 38.4, 150.91 58.65 M150.91 19.55 C151.43 31.01, 150.67 40.9, 150.91 58.65 M150.91 58.65 C149.25 69.73, 146.25 78.6, 131.36 78.2 M150.91 58.65 C151.59 71.38, 142.66 76.71, 131.36 78.2 M131.36 78.2 C88.52 79.85, 46.04 79.64, 19.55 78.2 M131.36 78.2 C93.18 77.89, 55.6 78.1, 19.55 78.2 M19.55 78.2 C6.64 79.19, -1.69 70.55, 0 58.65 M19.55 78.2 C8.14 78.91, -2.24 71.46, 0 58.65 M0 58.65 C-1.49 44.11, -0.42 28.58, 0 19.55 M0 58.65 C-0.86 47.81, -0.31 38.2, 0 19.55 M0 19.55 C-0.6 7.8, 8.24 -1.79, 19.55 0 M0 19.55 C-0.81 6.26, 7.51 -2.27, 19.55 0" stroke="#ffffff" stroke-width="1" fill="none"></path></g><g stroke-linecap="round" transform="translate(487.7314758300781 305.58433532714844) rotate(0 87.34951782226562 39.10145568847656)"><path d="M5.2 4.52 C5.2 4.52, 5.2 4.52, 5.2 4.52 M5.2 4.52 C5.2 4.52, 5.2 4.52, 5.2 4.52 M1.01 15.45 C4.55 10.91, 9.61 8.72, 12.16 2.62 M1.01 15.45 C2.57 12.11, 5.86 10.76, 12.16 2.62 M0.74 21.85 C7.45 16.19, 11.75 7.24, 19.77 -0.04 M0.74 21.85 C7.97 14.98, 13.46 7.62, 19.77 -0.04 M1.14 27.49 C8.71 19.59, 16.52 11.65, 24.76 0.32 M1.14 27.49 C5.87 22.46, 11.55 15.75, 24.76 0.32 M0.88 33.89 C9.22 23.04, 22.99 10.11, 30.4 -0.07 M0.88 33.89 C7.88 25.48, 16.59 17.8, 30.4 -0.07 M0.62 40.29 C10.85 30.73, 15.4 23.32, 35.39 0.29 M0.62 40.29 C10.19 28.95, 19.87 17.01, 35.39 0.29 M1.01 45.93 C15.25 29.1, 29.31 12.18, 41.03 -0.11 M1.01 45.93 C11.83 34.02, 19.7 24.21, 41.03 -0.11 M0.75 52.33 C12.65 36.16, 29.12 22.34, 46.02 0.25 M0.75 52.33 C12.64 39.53, 25.19 24.17, 46.02 0.25 M1.14 57.97 C15.8 39.63, 30.92 21.25, 51.66 -0.14 M1.14 57.97 C16.16 39.72, 32.6 22.07, 51.66 -0.14 M0.88 64.37 C19.14 41.13, 39.21 18.2, 56.65 0.22 M0.88 64.37 C16.78 47.28, 31.68 28.99, 56.65 0.22 M3.25 67.75 C27.07 39.73, 52.56 12.88, 62.29 -0.18 M3.25 67.75 C17.53 51.68, 32.05 33.86, 62.29 -0.18 M4.95 71.88 C23.99 52.7, 39.77 31.06, 67.28 0.18 M4.95 71.88 C29.5 44.61, 51.9 17.6, 67.28 0.18 M7.32 75.26 C25.05 56.81, 39.09 36.95, 72.92 -0.21 M7.32 75.26 C30.3 48.7, 52.95 23.2, 72.92 -0.21 M10.99 77.13 C34.68 51.07, 57.63 27.99, 77.91 0.15 M10.99 77.13 C28.61 55.91, 47.6 35.04, 77.91 0.15 M15.98 77.49 C38.35 53.42, 58.71 28.9, 83.55 -0.25 M15.98 77.49 C36.93 53.44, 57.75 29.65, 83.55 -0.25 M20.31 78.6 C40.85 54.54, 63.48 27.96, 88.54 0.11 M20.31 78.6 C33.93 62.13, 49.26 45.2, 88.54 0.11 M25.29 78.96 C44.37 57.79, 62.04 38.7, 94.18 -0.28 M25.29 78.96 C47.35 52.24, 68.94 28.82, 94.18 -0.28 M30.94 78.57 C48.14 59.34, 65.54 41.09, 99.17 0.08 M30.94 78.57 C49.98 54.74, 70.52 31.03, 99.17 0.08 M35.92 78.93 C60.55 51.62, 85.26 22.81, 104.16 0.44 M35.92 78.93 C60.72 49.57, 85.39 21.52, 104.16 0.44 M41.57 78.53 C64.23 53.78, 82.51 30.79, 109.8 0.05 M41.57 78.53 C67.9 48.32, 95.22 17.8, 109.8 0.05 M46.56 78.9 C72.94 50.14, 99.59 17.97, 114.79 0.41 M46.56 78.9 C71.04 51.66, 94.48 25.48, 114.79 0.41 M52.2 78.5 C69.12 63.77, 81.7 46.69, 120.43 0.01 M52.2 78.5 C78.9 48.72, 105.66 17.14, 120.43 0.01 M57.19 78.86 C77.78 56.04, 94.61 34.58, 125.42 0.37 M57.19 78.86 C80 52.24, 103.29 26.03, 125.42 0.37 M62.83 78.47 C84.97 51.28, 108.33 28.33, 131.06 -0.02 M62.83 78.47 C85.41 51.29, 109.03 25.02, 131.06 -0.02 M67.82 78.83 C81.04 60.31, 97.63 44.38, 136.05 0.34 M67.82 78.83 C90.51 53.11, 112.93 26.84, 136.05 0.34 M73.46 78.43 C96.49 52.6, 121.19 25.43, 141.69 -0.06 M73.46 78.43 C96.52 51.09, 117.98 25.83, 141.69 -0.06 M78.45 78.79 C105.48 51.06, 132.22 21.1, 146.68 0.3 M78.45 78.79 C98.97 55.46, 119.36 31.56, 146.68 0.3 M84.09 78.4 C106.59 51.78, 131.43 24.97, 152.32 -0.09 M84.09 78.4 C99.73 60.08, 115.87 43.11, 152.32 -0.09 M89.08 78.76 C106.34 61.99, 121.84 40.04, 156.65 1.02 M89.08 78.76 C113.79 50.75, 136.56 25.16, 156.65 1.02 M94.06 79.12 C118.1 49.41, 145.57 19.84, 160.98 2.14 M94.06 79.12 C114.25 56.4, 135.52 32.32, 160.98 2.14 M99.71 78.72 C115.95 62.89, 130.76 42.86, 165.31 3.25 M99.71 78.72 C122.84 52.85, 143.71 29.28, 165.31 3.25 M104.69 79.08 C126.52 56.54, 144.74 33.04, 168.99 5.12 M104.69 79.08 C118.29 63.32, 132.53 48.85, 168.99 5.12 M110.34 78.69 C127.75 60.2, 141.4 44.25, 172.01 7.75 M110.34 78.69 C125.58 62.27, 140.39 44.43, 172.01 7.75 M115.32 79.05 C135.16 55.61, 151.98 37.83, 173.71 11.88 M115.32 79.05 C128.71 62.59, 143.45 47.78, 173.71 11.88 M120.97 78.65 C132.93 65.87, 142.19 52.22, 175.42 16.01 M120.97 78.65 C135.48 60.56, 149.62 44.78, 175.42 16.01 M125.95 79.01 C137.92 68.48, 147.54 55.48, 175.81 21.66 M125.95 79.01 C136.9 66.55, 149.91 52.63, 175.81 21.66 M131.6 78.62 C143.66 68.37, 151.99 55.4, 175.55 28.05 M131.6 78.62 C142.11 65.52, 155.32 50.86, 175.55 28.05 M136.58 78.98 C151.36 64.53, 162.83 46.28, 175.95 33.7 M136.58 78.98 C146.71 66, 158.36 54.77, 175.95 33.7 M142.23 78.58 C153.73 65.51, 162.99 54.06, 175.68 40.09 M142.23 78.58 C152.86 65.61, 164.51 54.79, 175.68 40.09 M147.21 78.94 C154.42 70.99, 164.28 61.11, 175.42 46.49 M147.21 78.94 C159.11 66.22, 168.95 54.24, 175.42 46.49 M152.86 78.55 C158.92 71.83, 165.2 65.55, 175.82 52.14 M152.86 78.55 C161.22 67.65, 171.53 56.74, 175.82 52.14 M157.19 79.66 C161.42 72.71, 166.15 67.31, 174.9 59.29 M157.19 79.66 C162.08 73.44, 166.72 69.23, 174.9 59.29 M163.49 78.52 C165.74 77.44, 168.21 72.62, 173.98 66.44 M163.49 78.52 C166.88 74.96, 168.78 72, 173.98 66.44" stroke="#40c057" stroke-width="0.5" fill="none"></path><path d="M19.55 0 M19.55 0 C63.54 -1.68, 111.39 -0.11, 155.15 0 M19.55 0 C70.99 1.11, 121.53 1.96, 155.15 0 M155.15 0 C167.95 -0.1, 173.34 8.2, 174.7 19.55 M155.15 0 C167.14 0.68, 176.71 4.5, 174.7 19.55 M174.7 19.55 C175.35 31.96, 174.7 42.51, 174.7 58.65 M174.7 19.55 C173.64 33.43, 173.7 47.56, 174.7 58.65 M174.7 58.65 C176.53 73.19, 167.9 79.69, 155.15 78.2 M174.7 58.65 C174.04 70.3, 168.79 77.87, 155.15 78.2 M155.15 78.2 C103.42 78.6, 48.05 77.58, 19.55 78.2 M155.15 78.2 C104.46 78.05, 51.31 79.28, 19.55 78.2 M19.55 78.2 C7.42 77.32, -0.89 71.26, 0 58.65 M19.55 78.2 C7.44 76.72, -0.14 70.56, 0 58.65 M0 58.65 C-1.14 42.16, -0.71 27.6, 0 19.55 M0 58.65 C0.72 45.04, 0.48 32.21, 0 19.55 M0 19.55 C-0.73 6.86, 8.03 -1.96, 19.55 0 M0 19.55 C-2.21 4.3, 5 0.85, 19.55 0" stroke="#ffffff" stroke-width="1" fill="none"></path></g><g transform="translate(491.959228515625 320.5791015625) rotate(0 84 22.5)"><text x="0" y="33" font-family="Tinkoff Sans, Segoe UI Emoji" font-size="36px" fill="#ffffff" text-anchor="start" style="white-space: pre;" direction="ltr">IndexedSeq</text></g><g stroke-linecap="round"><g transform="translate(551.7203979492188 304.7220458984375) rotate(0 -20.716130902869622 -34.13294474397787)"><path d="M0.05 0.44 C-6.68 -10.67, -34.03 -55.67, -40.95 -66.75 M-1.38 -0.38 C-8.15 -11.86, -34.7 -57.47, -41.49 -68.7" stroke="#ffffff" stroke-width="1" fill="none"></path></g><g transform="translate(551.7203979492188 304.7220458984375) rotate(0 -20.716130902869622 -34.13294474397787)"><path d="M-17.57 -48.34 C-23.62 -54.03, -28.24 -60.83, -43.07 -66.98 M-18.91 -50.17 C-24.24 -53.54, -29.9 -58.2, -41.45 -68.57" stroke="#ffffff" stroke-width="1" fill="none"></path></g><g transform="translate(551.7203979492188 304.7220458984375) rotate(0 -20.716130902869622 -34.13294474397787)"><path d="M-35.23 -37.9 C-36.81 -46.23, -36.96 -55.68, -43.07 -66.98 M-36.57 -39.72 C-37.61 -45.43, -39.07 -52.56, -41.45 -68.57" stroke="#ffffff" stroke-width="1" fill="none"></path></g></g><g transform="translate(267.90802001953125 444.34625244140625) rotate(0 34.5 30)"><text x="0" y="44" font-family="Tinkoff Sans, Segoe UI Emoji" font-size="48px" fill="#ffffff" text-anchor="start" style="white-space: pre;" direction="ltr">List</text></g><g stroke-linecap="round"><g transform="translate(299.9844970703125 436.6632080078125) rotate(0 10.065420355163496 -28.217044781409243)"><path d="M0.51 -0.44 C4.06 -9.27, 17.52 -45.03, 20.82 -54.04 M-0.69 -1.71 C2.76 -10.84, 16.57 -47.4, 19.9 -56" stroke="#ffffff" stroke-width="1" fill="none"></path></g><g transform="translate(299.9844970703125 436.6632080078125) rotate(0 10.065420355163496 -28.217044781409243)"><path d="M18.72 -26.81 C20.33 -35.15, 19.66 -43.3, 18.31 -54.68 M19.46 -26.69 C20.2 -36.39, 20.06 -44.98, 19.99 -55.03" stroke="#ffffff" stroke-width="1" fill="none"></path></g><g transform="translate(299.9844970703125 436.6632080078125) rotate(0 10.065420355163496 -28.217044781409243)"><path d="M0.13 -33.91 C6.46 -40.5, 10.58 -46.83, 18.31 -54.68 M0.86 -33.79 C7.1 -41.54, 12.43 -48.04, 19.99 -55.03" stroke="#ffffff" stroke-width="1" fill="none"></path></g></g><g stroke-linecap="round" transform="translate(507.1915283203125 435.23643493652344) rotate(0 75.4571533203125 39.10145568847656)"><path d="M5.2 4.52 C5.2 4.52, 5.2 4.52, 5.2 4.52 M5.2 4.52 C5.2 4.52, 5.2 4.52, 5.2 4.52 M1.01 15.45 C5.64 10.58, 10.26 5.17, 12.16 2.62 M1.01 15.45 C3.76 11.57, 6.17 8.26, 12.16 2.62 M0.74 21.85 C6.82 16.1, 9.45 12.18, 19.77 -0.04 M0.74 21.85 C5.93 16.21, 13.09 7.89, 19.77 -0.04 M1.14 27.49 C6.5 17.59, 15.47 10.94, 24.76 0.32 M1.14 27.49 C7.91 18.14, 15.55 9.47, 24.76 0.32 M0.88 33.89 C9.36 24.55, 18.85 10.23, 30.4 -0.07 M0.88 33.89 C9.68 23.94, 19.07 11.17, 30.4 -0.07 M0.62 40.29 C14.3 23.93, 27.47 9.34, 35.39 0.29 M0.62 40.29 C7.91 31.95, 15.55 23.8, 35.39 0.29 M1.01 45.93 C9.75 32.75, 18.94 23.68, 41.03 -0.11 M1.01 45.93 C12.76 31.94, 26.29 16.79, 41.03 -0.11 M0.75 52.33 C14.59 34, 33.2 16.43, 46.02 0.25 M0.75 52.33 C14.18 34.99, 29.38 18.54, 46.02 0.25 M1.14 57.97 C21.22 36.49, 40.55 12.85, 51.66 -0.14 M1.14 57.97 C19.44 36.71, 35.77 17.87, 51.66 -0.14 M0.88 64.37 C18.29 40.7, 37.28 19.38, 56.65 0.22 M0.88 64.37 C14.11 49.53, 27.92 32.67, 56.65 0.22 M2.59 68.5 C18.58 47.08, 39.18 27.58, 62.29 -0.18 M2.59 68.5 C22.49 44.93, 43.59 20.44, 62.29 -0.18 M4.95 71.88 C18.3 58.68, 29.92 40.95, 67.28 0.18 M4.95 71.88 C24.33 50.14, 44.25 27.76, 67.28 0.18 M7.32 75.26 C25.74 54.14, 39.02 35.8, 72.92 -0.21 M7.32 75.26 C23.82 55.58, 43.11 34.35, 72.92 -0.21 M10.33 77.88 C25.46 61.07, 42.55 43.68, 77.91 0.15 M10.33 77.88 C33.55 51.25, 57.21 23.46, 77.91 0.15 M14.66 79 C35.13 54.3, 54.11 32.31, 83.55 -0.25 M14.66 79 C38.13 54.5, 59.24 29.17, 83.55 -0.25 M20.31 78.6 C46.88 45.97, 73.68 17.87, 88.54 0.11 M20.31 78.6 C41.07 55.33, 60.12 30.92, 88.54 0.11 M25.29 78.96 C44.61 57.15, 63.37 34.82, 94.18 -0.28 M25.29 78.96 C50.53 48.32, 76.88 18.76, 94.18 -0.28 M30.94 78.57 C55.36 51.69, 76.23 26.12, 99.17 0.08 M30.94 78.57 C54.22 51.13, 77.84 23.04, 99.17 0.08 M35.92 78.93 C55.91 53.53, 79.19 30.86, 104.16 0.44 M35.92 78.93 C58 52.25, 80.35 27.96, 104.16 0.44 M41.57 78.53 C55.63 61.8, 74.13 42.92, 109.8 0.05 M41.57 78.53 C59.01 58.65, 77.67 38.95, 109.8 0.05 M46.56 78.9 C70.52 49.4, 97.92 20.13, 114.79 0.41 M46.56 78.9 C70.01 51.31, 94.29 24.57, 114.79 0.41 M52.2 78.5 C70.13 58.31, 84.83 42.13, 120.43 0.01 M52.2 78.5 C67.11 61.59, 80.47 45.11, 120.43 0.01 M57.19 78.86 C82.96 48.5, 107.83 21.57, 125.42 0.37 M57.19 78.86 C74.06 60.26, 88.62 43.04, 125.42 0.37 M62.83 78.47 C83.3 56.91, 100.95 31.92, 131.06 -0.02 M62.83 78.47 C86.96 50.98, 109.78 23.8, 131.06 -0.02 M67.82 78.83 C88.89 53.75, 108.12 30.81, 134.08 2.6 M67.82 78.83 C82.8 61.4, 99.77 43.01, 134.08 2.6 M73.46 78.43 C94.04 57.53, 112.57 34.6, 138.41 3.72 M73.46 78.43 C90.24 58.89, 107.45 39.15, 138.41 3.72 M78.45 78.79 C91.47 64.38, 106.79 46.38, 144.05 3.32 M78.45 78.79 C95.94 59.72, 112.51 39.44, 144.05 3.32 M84.09 78.4 C105.5 52.02, 128.54 27.24, 147.07 5.94 M84.09 78.4 C103.58 56.4, 122.71 33.88, 147.07 5.94 M89.08 78.76 C108.5 55.16, 126.39 36.28, 149.43 9.32 M89.08 78.76 C104.75 59.53, 121.11 39.95, 149.43 9.32 M94.06 79.12 C111.87 55.36, 133.14 36.77, 151.14 13.46 M94.06 79.12 C107.16 63.67, 122.6 47.44, 151.14 13.46 M99.71 78.72 C112.1 61.91, 127.48 43.43, 153.5 16.84 M99.71 78.72 C112.07 63.63, 125.7 48.01, 153.5 16.84 M104.69 79.08 C115.62 62.7, 129.41 49.15, 153.24 23.23 M104.69 79.08 C116.3 66.01, 126.95 53.12, 153.24 23.23 M110.34 78.69 C124.72 60.85, 144.35 41.95, 152.98 29.63 M110.34 78.69 C120.38 65.55, 131.31 53.98, 152.98 29.63 M115.32 79.05 C127.74 62.78, 141.11 47.29, 153.37 35.28 M115.32 79.05 C123.71 68.88, 132.05 58.89, 153.37 35.28 M120.97 78.65 C133.95 63.44, 143.53 50.7, 153.11 41.67 M120.97 78.65 C133.53 64.15, 145.08 50.9, 153.11 41.67 M125.95 79.01 C132.74 70.69, 138.78 66.71, 153.51 47.32 M125.95 79.01 C132.24 72.92, 136.97 65.38, 153.51 47.32 M131.6 78.62 C141.01 68.6, 147.55 58.3, 153.25 53.71 M131.6 78.62 C138.06 70.72, 147.25 61.52, 153.25 53.71 M138.55 76.72 C142.51 72.17, 144.5 69.35, 152.98 60.11 M138.55 76.72 C143.46 72.07, 146.75 66.39, 152.98 60.11" stroke="#228be6" stroke-width="0.5" fill="none"></path><path d="M19.55 0 M19.55 0 C60.94 -0.24, 100.48 0.45, 131.36 0 M19.55 0 C61.33 -0.65, 104.91 0.31, 131.36 0 M131.36 0 C144.52 -1.29, 149.58 6.77, 150.91 19.55 M131.36 0 C145.51 -0.08, 150.29 6.45, 150.91 19.55 M150.91 19.55 C150.33 34.65, 151.45 48.97, 150.91 58.65 M150.91 19.55 C150.91 30.48, 150.24 42.04, 150.91 58.65 M150.91 58.65 C152.22 70.27, 143.74 76.3, 131.36 78.2 M150.91 58.65 C148.9 72.34, 146.62 79.67, 131.36 78.2 M131.36 78.2 C91.64 77.11, 49.52 79.92, 19.55 78.2 M131.36 78.2 C102.84 79.12, 73.98 78.92, 19.55 78.2 M19.55 78.2 C7.3 80.07, -1.98 70.12, 0 58.65 M19.55 78.2 C5.13 76.72, -0.04 72.46, 0 58.65 M0 58.65 C-0.39 45.66, -0.92 34.71, 0 19.55 M0 58.65 C-0.66 48.76, 0.84 39.17, 0 19.55 M0 19.55 C-0.75 8.04, 8.31 1.61, 19.55 0 M0 19.55 C2.26 8.04, 7.65 0.97, 19.55 0" stroke="#ffffff" stroke-width="1" fill="none"></path></g><g transform="translate(522.0635986328125 443.9630126953125) rotate(0 61.5 30)"><text x="0" y="44" font-family="Tinkoff Sans, Segoe UI Emoji" font-size="48px" fill="#ffffff" text-anchor="start" style="white-space: pre;" direction="ltr">Vector</text></g><g stroke-linecap="round"><g transform="translate(604.3464965820312 435.4456787109375) rotate(0 -5.14751657009117 -25.565162406526554)"><path d="M-0.72 -0.21 C-2.4 -8.22, -9.1 -40.63, -10.72 -49.05 M1.1 -1.37 C-0.64 -9.66, -9.42 -42.81, -11.39 -50.92" stroke="#ffffff" stroke-width="1" fill="none"></path></g><g transform="translate(604.3464965820312 435.4456787109375) rotate(0 -5.14751657009117 -25.565162406526554)"><path d="M2.56 -29.07 C0.36 -33.86, -5.95 -40.78, -13.28 -51.68 M3.46 -30.52 C-1.74 -36.89, -6.12 -42.69, -12.03 -50.96" stroke="#ffffff" stroke-width="1" fill="none"></path></g><g transform="translate(604.3464965820312 435.4456787109375) rotate(0 -5.14751657009117 -25.565162406526554)"><path d="M-14.27 -24.77 C-12.27 -30.53, -14.42 -38.51, -13.28 -51.68 M-13.37 -26.23 C-13.14 -34.07, -12.12 -41.24, -12.03 -50.96" stroke="#ffffff" stroke-width="1" fill="none"></path></g></g><g stroke-linecap="round" transform="translate(736.1395874023438 303.61253356933594) rotate(0 75.4571533203125 39.10145568847656)"><path d="M5.2 4.52 C5.2 4.52, 5.2 4.52, 5.2 4.52 M5.2 4.52 C5.2 4.52, 5.2 4.52, 5.2 4.52 M1.01 15.45 C2.58 12.51, 7.95 8.93, 12.16 2.62 M1.01 15.45 C3.18 11.96, 6.54 7.75, 12.16 2.62 M0.74 21.85 C4.47 16.08, 9.93 9.93, 19.77 -0.04 M0.74 21.85 C4.86 15.21, 10.39 10.01, 19.77 -0.04 M1.14 27.49 C8.15 21, 12.8 14.36, 24.76 0.32 M1.14 27.49 C9.21 17.54, 19.92 7.06, 24.76 0.32 M0.88 33.89 C7.4 23.94, 15.22 16.96, 30.4 -0.07 M0.88 33.89 C10.85 21.53, 21.21 9.56, 30.4 -0.07 M0.62 40.29 C7.98 31.4, 14.88 22.67, 35.39 0.29 M0.62 40.29 C13.81 24.62, 25.45 10.37, 35.39 0.29 M1.01 45.93 C17.04 27.16, 31.33 10.81, 41.03 -0.11 M1.01 45.93 C10.12 35.08, 18.88 26.48, 41.03 -0.11 M0.75 52.33 C11.24 42.47, 18.66 29.72, 46.02 0.25 M0.75 52.33 C18.09 32.3, 34.25 12.32, 46.02 0.25 M1.14 57.97 C16.56 39.32, 37.45 18, 51.66 -0.14 M1.14 57.97 C12.45 44.74, 22.69 32.7, 51.66 -0.14 M0.88 64.37 C19.2 45.49, 34.26 24.35, 56.65 0.22 M0.88 64.37 C21.19 41.19, 40.91 18.47, 56.65 0.22 M2.59 68.5 C23.9 40.71, 48.74 16.53, 62.29 -0.18 M2.59 68.5 C21.44 48.35, 39.56 26.57, 62.29 -0.18 M4.95 71.88 C24.28 49.23, 42.34 29.06, 67.28 0.18 M4.95 71.88 C26.43 46.63, 47.94 21.17, 67.28 0.18 M7.32 75.26 C27.19 49.64, 47.11 27.92, 72.92 -0.21 M7.32 75.26 C32.51 45.6, 59.63 13.96, 72.92 -0.21 M10.33 77.88 C30.42 52.78, 54.81 29.18, 77.91 0.15 M10.33 77.88 C33.22 50.73, 54.01 25.23, 77.91 0.15 M14.66 79 C30.65 60.81, 45.74 41.16, 83.55 -0.25 M14.66 79 C29.13 62.97, 43.32 45.47, 83.55 -0.25 M20.31 78.6 C41.52 53.39, 66.74 27.39, 88.54 0.11 M20.31 78.6 C47.4 47.85, 73.91 15.54, 88.54 0.11 M25.29 78.96 C44.89 57.11, 67.17 33.19, 94.18 -0.28 M25.29 78.96 C39.97 63.77, 54.35 46.97, 94.18 -0.28 M30.94 78.57 C50.83 56.94, 70.68 34.13, 99.17 0.08 M30.94 78.57 C57.88 46.77, 85.13 15.73, 99.17 0.08 M35.92 78.93 C53.63 57.5, 71 41.19, 104.16 0.44 M35.92 78.93 C52.44 59.52, 70.36 38.93, 104.16 0.44 M41.57 78.53 C63.51 51.78, 87.28 28.7, 109.8 0.05 M41.57 78.53 C59.71 60.06, 75.85 40.05, 109.8 0.05 M46.56 78.9 C71.14 50.68, 96.01 22.34, 114.79 0.41 M46.56 78.9 C70.93 51.31, 94.35 23.87, 114.79 0.41 M52.2 78.5 C80.21 48.13, 105.14 17.39, 120.43 0.01 M52.2 78.5 C72.25 57.49, 90.53 34.17, 120.43 0.01 M57.19 78.86 C77.55 54.92, 96.24 32.31, 125.42 0.37 M57.19 78.86 C80.52 50.36, 106.27 22.02, 125.42 0.37 M62.83 78.47 C78.01 59.47, 95.13 42.51, 131.06 -0.02 M62.83 78.47 C79.53 58.9, 97.1 38.34, 131.06 -0.02 M67.82 78.83 C81.9 64.57, 95.4 48.96, 134.08 2.6 M67.82 78.83 C81.38 62.75, 96 48.34, 134.08 2.6 M73.46 78.43 C88.46 63.6, 101.11 45.64, 138.41 3.72 M73.46 78.43 C94.78 53.7, 117.75 27.7, 138.41 3.72 M78.45 78.79 C96.77 61.36, 112.6 41.56, 144.05 3.32 M78.45 78.79 C99.65 56.81, 117.88 35.07, 144.05 3.32 M84.09 78.4 C99.69 58.3, 117.28 38.98, 147.07 5.94 M84.09 78.4 C108.02 50.17, 130.4 24.21, 147.07 5.94 M89.08 78.76 C105.13 61.18, 121.79 40.5, 149.43 9.32 M89.08 78.76 C109.3 55.2, 130.61 31.46, 149.43 9.32 M94.06 79.12 C111.73 59.35, 129.57 36.7, 151.14 13.46 M94.06 79.12 C114.32 55.93, 135.64 30.19, 151.14 13.46 M99.71 78.72 C117.56 55.4, 134.48 35.41, 153.5 16.84 M99.71 78.72 C114.01 62.43, 128.34 45.96, 153.5 16.84 M104.69 79.08 C118.34 63.36, 131.99 47.64, 153.24 23.23 M104.69 79.08 C115.38 66.85, 125.72 55.74, 153.24 23.23 M110.34 78.69 C119.43 70.14, 127.26 58.91, 152.98 29.63 M110.34 78.69 C124.55 62.26, 140.29 43.98, 152.98 29.63 M115.32 79.05 C130.22 62.12, 143.24 46.11, 153.37 35.28 M115.32 79.05 C128.56 62.7, 141.98 47.33, 153.37 35.28 M120.97 78.65 C128.78 70.16, 132.99 61.81, 153.11 41.67 M120.97 78.65 C129.75 68.77, 139.64 57.34, 153.11 41.67 M125.95 79.01 C134.19 68.95, 142.62 62.27, 153.51 47.32 M125.95 79.01 C135.87 66.65, 146.34 55.61, 153.51 47.32 M131.6 78.62 C141 69.84, 149.82 59.98, 153.25 53.71 M131.6 78.62 C137.1 71.59, 143.29 64.99, 153.25 53.71 M138.55 76.72 C141.7 72.77, 146.81 65.83, 152.98 60.11 M138.55 76.72 C144.17 71.1, 149.43 64.5, 152.98 60.11" stroke="#228be6" stroke-width="0.5" fill="none"></path><path d="M19.55 0 M19.55 0 C44.11 -2.44, 63.76 0.71, 131.36 0 M19.55 0 C58.99 -0.19, 100.82 0.02, 131.36 0 M131.36 0 C143.48 -1.19, 149.96 5.79, 150.91 19.55 M131.36 0 C142.59 1.01, 150.68 7.04, 150.91 19.55 M150.91 19.55 C152 33.89, 151.35 45.77, 150.91 58.65 M150.91 19.55 C151.39 28, 149.7 37.26, 150.91 58.65 M150.91 58.65 C151.4 72.84, 145.06 77.63, 131.36 78.2 M150.91 58.65 C149.9 72.55, 142.47 78.14, 131.36 78.2 M131.36 78.2 C102.55 79.61, 74.64 81.21, 19.55 78.2 M131.36 78.2 C97.15 79, 63.95 78.01, 19.55 78.2 M19.55 78.2 C4.61 77.84, 0.66 73.37, 0 58.65 M19.55 78.2 C7.95 80.23, 2.07 69.52, 0 58.65 M0 58.65 C1.44 48.87, -0.76 37.16, 0 19.55 M0 58.65 C-0.35 50.1, -0.23 40.49, 0 19.55 M0 19.55 C0.48 6.87, 5.84 1.07, 19.55 0 M0 19.55 C2.3 8.46, 5.94 -0.77, 19.55 0" stroke="#ffffff" stroke-width="1" fill="none"></path></g><g transform="translate(742.9719848632812 321.4693603515625) rotate(0 68.5 22.5)"><text x="0" y="33" font-family="Tinkoff Sans, Segoe UI Emoji" font-size="36px" fill="#ffffff" text-anchor="start" style="white-space: pre;" direction="ltr">HashMap</text></g><g stroke-linecap="round"><g transform="translate(779.8969116210938 301.916259765625) rotate(0 -20.88441585759631 -35.32121774499305)"><path d="M0.79 0.59 C-6.35 -11.21, -34.63 -57.74, -41.88 -69.65 M-0.25 -0.14 C-7.59 -11.76, -35.34 -59.64, -42.56 -71.23" stroke="#ffffff" stroke-width="1" fill="none"></path></g><g transform="translate(779.8969116210938 301.916259765625) rotate(0 -20.88441585759631 -35.32121774499305)"><path d="M-18.29 -51.47 C-26.61 -59.86, -37.54 -66.77, -42.8 -69.77 M-18.98 -53.3 C-26.71 -57.12, -32.24 -61.65, -41.95 -71.08" stroke="#ffffff" stroke-width="1" fill="none"></path></g><g transform="translate(779.8969116210938 301.916259765625) rotate(0 -20.88441585759631 -35.32121774499305)"><path d="M-35.9 -40.93 C-37.62 -53.45, -41.85 -64.37, -42.8 -69.77 M-36.58 -42.76 C-39.51 -49.68, -40.14 -57.13, -41.95 -71.08" stroke="#ffffff" stroke-width="1" fill="none"></path></g></g></svg>