<svg version="1.1" xmlns="http://www.w3.org/2000/svg" viewBox="0 0 1734.6216256277894 776.1125139508933" width="3469.243251255579" height="1552.2250279017867">
  <!-- svg-source:excalidraw -->
  
  <defs>
    <style>
      @font-face {
        font-family: "Virgil";
        src: url("https://excalidraw.com/Virgil.woff2");
      }
      @font-face {
        font-family: "Cascadia";
        src: url("https://excalidraw.com/Cascadia.woff2");
      }
    </style>
  </defs>
  <g stroke-linecap="round" transform="translate(10 210.90498570033532) rotate(0 139.81310163225442 116.80339268275665)"><path d="M2.87 -1.47 C55.59 -1.1, 113.96 1.4, 280 -1.28 M-0.31 -0.39 C58.83 -1.57, 117.28 0.07, 280 0.66 M281.25 -0.09 C277.42 71.57, 272.71 139.93, 282.51 232.67 M280.97 -0.64 C276.68 68.41, 277.57 139.62, 280.6 233.48 M278.72 234.21 C220.86 234.8, 166.09 233.23, -0.71 230.6 M280.87 234.69 C215.09 234.48, 152.7 235.27, -0.01 234.6 M-1 235.54 C-0.7 166.73, -6.54 95.82, 0.59 1.85 M0.07 234.03 C0.21 168.8, 2.13 105.29, -1.06 0.87" stroke="#000000" stroke-width="1" fill="none"></path></g><g transform="translate(117.45413643973222 164.98329380580424) rotate(0 36 42)"><text x="0" y="63" font-family="Tinkoff Sans, Segoe UI Emoji" font-size="68.21838378906241px" fill="#000000" text-anchor="start" style="white-space: pre;" direction="ltr">01</text></g><g transform="translate(49.25990513392867 294.21717180524604) rotate(0 96 33.5)"><text x="0" y="50" font-family="Tinkoff Sans, Segoe UI Emoji" font-size="54.16807338169645px" fill="#000000" text-anchor="start" style="white-space: pre;" direction="ltr">Вводная</text></g><g stroke-linecap="round" transform="translate(365.53680419921875 208.12174769810315) rotate(0 139.81310163225442 116.80339268275665)"><path d="M1.31 -0.17 C73.4 0.86, 145.64 2.82, 277.73 -1.25 M-1.01 0.06 C84.2 -0.79, 166.89 -0.82, 279.79 -0.55 M281.38 -2.15 C275.76 91.41, 276.02 181.44, 279.58 231.4 M279.88 1.08 C282.38 83.63, 282.97 164.08, 278.11 233.01 M282.68 233.45 C195.26 232.87, 115.76 229.67, -1.48 232.38 M280.61 234.39 C173.8 233.31, 70.35 232.35, 0.2 232.23 M0.64 231.39 C-2.03 151.04, -1.73 66.51, -2.39 -2.22 M0.36 234.84 C0.4 177.16, 0.57 122.73, 0.77 1.07" stroke="#000000" stroke-width="1" fill="none"></path></g><g transform="translate(472.9909406389511 162.0299857003355) rotate(0 36 42)"><text x="0" y="63" font-family="Tinkoff Sans, Segoe UI Emoji" font-size="68.21838378906241px" fill="#000000" text-anchor="start" style="white-space: pre;" direction="ltr">02</text></g><g transform="translate(405.92507498604937 269.75080217633956) rotate(0 100 58)"><text x="100" y="43" font-family="Tinkoff Sans, Segoe UI Emoji" font-size="46.976703139349794px" fill="#000000" text-anchor="middle" style="white-space: pre;" direction="ltr">Базовый</text><text x="100" y="101" font-family="Tinkoff Sans, Segoe UI Emoji" font-size="46.976703139349794px" fill="#000000" text-anchor="middle" style="white-space: pre;" direction="ltr">синтаксис</text></g><g stroke-linecap="round" transform="translate(733.3045741489952 205.85843331473268) rotate(0 139.81310163225442 116.80339268275665)"><path d="M0.81 -2.47 C102.99 2.24, 203.72 -0.78, 280.29 0.01 M0.65 -0.23 C80.9 -2.27, 162.5 -3.24, 278.55 1.06 M280.52 -1.09 C278.05 81, 281.32 169.37, 281.38 232.96 M278.85 -1.38 C278.13 82.44, 280.41 161.91, 277.96 232.52 M281.99 235.35 C173.68 229.48, 68.61 230.03, -1.12 236.61 M280.15 234.9 C207.92 231.81, 137.68 233.76, 0.82 233.79 M-1.77 233.34 C2.24 185.43, 1.16 139.66, -2.03 0.87 M0.91 234.59 C0.47 161.87, -1.37 90.04, -0.33 -0.98" stroke="#000000" stroke-width="1" fill="none"></path></g><g transform="translate(840.7587105887276 160.10092599051416) rotate(0 36 42)"><text x="0" y="63" font-family="Tinkoff Sans, Segoe UI Emoji" font-size="68.21838378906241px" fill="#000000" text-anchor="start" style="white-space: pre;" direction="ltr">03</text></g><g transform="translate(778.6373029436381 285.7906232561388) rotate(0 99.5 33.5)"><text x="0" y="50" font-family="Tinkoff Sans, Segoe UI Emoji" font-size="54.16807338169645px" fill="#000000" text-anchor="start" style="white-space: pre;" direction="ltr">Функции</text></g><g stroke-linecap="round" transform="translate(1088.192443847656 202.1064278738843) rotate(0 139.81310163225442 116.80339268275665)"><path d="M-1.78 2.48 C111.96 -3.03, 221.33 -2.08, 280.88 0.52 M1 0.34 C56.97 1.37, 113.97 -0.02, 279.68 1.16 M280.41 -1.84 C285.29 79.98, 279.68 155.74, 280.15 232 M278.6 0.22 C279.72 49.85, 279.53 98.37, 280.58 231.99 M277.7 235.36 C190.57 230.89, 92.98 231.66, -0.93 235.68 M280.27 232.92 C170.77 237.73, 63.94 238.63, -0.97 234.04 M2.65 232.68 C-0.98 145.54, 1.89 52.05, 0.58 1.45 M0.57 232.83 C-2.73 151.34, -0.76 72.8, -1.25 -1.45" stroke="#000000" stroke-width="1" fill="none"></path></g><g transform="translate(1195.6465802873884 156.37098039899604) rotate(0 35.999999999999886 42)"><text x="0" y="63" font-family="Tinkoff Sans, Segoe UI Emoji" font-size="68.21838378906241px" fill="#000000" text-anchor="start" style="white-space: pre;" direction="ltr">04</text></g><g transform="translate(1109.674464634486 257.9531424386165) rotate(0 120.5 67)"><text x="120.5" y="32.666666666666664" font-family="Tinkoff Sans, Segoe UI Emoji" font-size="36.05466918905709px" fill="#000000" text-anchor="middle" style="white-space: pre;" direction="ltr">Алгебраические</text><text x="120.5" y="77.33333333333333" font-family="Tinkoff Sans, Segoe UI Emoji" font-size="36.05466918905709px" fill="#000000" text-anchor="middle" style="white-space: pre;" direction="ltr">типы</text><text x="120.5" y="122" font-family="Tinkoff Sans, Segoe UI Emoji" font-size="36.05466918905709px" fill="#000000" text-anchor="middle" style="white-space: pre;" direction="ltr">данных</text></g><g stroke-linecap="round" transform="translate(1440.7803344726562 197.21289062500034) rotate(0 139.81310163225453 116.80339268275665)"><path d="M0 0 C0 0, 0 0, 0 0 M0 0 C0 0, 0 0, 0 0 M-0.4 6.31 C2.49 3.56, 1.86 3.04, 5.47 0.93 M-0.92 6.8 C1.73 4.04, 2.13 3.71, 4.19 0.88 M1.5 12.8 C4.61 7.29, 9.84 3.05, 11.91 0.08 M-0.78 13.34 C4.96 8.31, 7.2 3.07, 9.69 0.24 M-3.2 20.47 C7.22 9.82, 12.12 8.63, 17.88 -3.05 M1.5 17.63 C1.75 15.45, 8.24 9.99, 16.52 1.65 M-2.79 25.27 C9.09 17.27, 15.2 8.31, 22.37 -3.63 M0.84 23.3 C8.56 13.55, 14.44 6.15, 21.05 -0.33 M0.18 30.45 C12.28 15.49, 18.4 8.76, 24.95 -1 M-0.24 28.98 C11.28 19.03, 17.69 10.83, 24.51 -1.36 M-3.51 33.33 C11.78 21.98, 24.16 9.62, 31.05 1.07 M-0.35 36.4 C6.92 28.38, 15.25 19.28, 30.73 -0.6 M1.41 40.88 C15.18 26.3, 24.27 14.84, 35.87 1.61 M-0.82 41.47 C12.7 30.59, 23.46 14.54, 35.24 -0.06 M1.7 49.09 C13.23 39.13, 19.32 25.46, 38.56 1.51 M-1.15 50.91 C16.98 27.58, 34.54 8.5, 43.07 1.74 M1.02 50.82 C14.51 36.54, 36.05 16.68, 49.79 2.73 M2.2 53.47 C12.67 39.37, 26.44 25.65, 46.1 -1.76 M3.58 59 C13.54 42.39, 25.44 31.51, 49.9 -0.67 M1.07 60.36 C20.55 35.45, 43.72 12.17, 52.82 1.27 M3.6 66.4 C16.53 45.87, 33.23 31.07, 60.52 0.66 M0.78 68.44 C15.27 49.18, 32.29 31.92, 57.66 1.52 M-3.79 73.1 C12.66 58.11, 29.15 40.53, 62.72 -1.54 M0.74 72.9 C19.48 50.67, 41.38 26.1, 62.84 -1.07 M0.38 77.81 C16.91 56.58, 44.11 30.21, 68.59 -2 M1 77.94 C19.76 53.5, 42.93 29.38, 67.64 -0.85 M-3.65 81.74 C25.62 54.53, 52.44 25.32, 71.4 1.16 M1.46 85.98 C30.51 50.62, 58.74 16.83, 74.21 -0.02 M1.3 91.79 C26.3 55.95, 58.88 26.64, 77.2 -2.37 M1.13 92.11 C32.07 57.12, 62.06 18.81, 80.91 -0.19 M-1.21 100.33 C24.66 67.92, 47.53 40.87, 86.96 -4.02 M1.33 97.2 C26.34 70.13, 50.4 42.29, 84.12 0.04 M1.67 100.65 C31.15 68.64, 62.37 36.49, 88.22 -1.2 M0.24 102.69 C26.02 72.65, 50.33 42.46, 91.51 1.55 M-1.01 106.33 C31.19 71.74, 63.37 35.34, 93.16 1.81 M1.55 111.2 C25.31 74.75, 51.93 45.76, 95.92 -0.92 M1.47 119.04 C35.62 67.78, 80.17 30.18, 98.26 1.02 M-0.43 113.76 C28.88 76.5, 63.76 38.06, 100.62 1.74 M1.12 119.77 C40.21 75.23, 78.6 31.88, 106.41 -0.17 M0.55 122.25 C31.82 84.06, 60.17 48.84, 105.15 -0.6 M0.71 124.63 C23.84 101, 44.94 75.99, 110.56 0.15 M-0.15 128.53 C44.34 77.95, 88.28 27.06, 110.59 -0.88 M0.69 132.25 C37.92 94.14, 77.67 46.01, 115.15 2.3 M-1.47 133.19 C25.42 105.26, 50.7 78.34, 116.8 0.39 M-1.94 139.17 C47.15 85.28, 89.71 36.64, 123.07 0.34 M-2.05 140.23 C44.86 90.13, 83.41 44.18, 122.92 -0.24 M3.9 143.68 C50.71 86.8, 99.48 32.13, 126.51 -2.49 M-1.12 146.22 C48.62 95.17, 96.23 40.23, 126.03 1.55 M-0.96 149.33 C41.27 102.42, 87.71 52.64, 132.46 1.84 M0.81 150.93 C33.44 117.37, 64.71 82.27, 132.29 -0.85 M-0.92 159 C33.01 116.97, 64.69 82.95, 134.68 -1.41 M1.27 157.78 C48.7 106.48, 93.85 51.96, 136.32 0.89 M-1.7 162.26 C50.21 111.59, 97.15 55.88, 145.65 -1.67 M-1.22 165.42 C30.23 125.11, 62.91 90.4, 144.27 -0.2 M2.43 172.97 C54.42 107.94, 112.82 45.73, 149.48 2.86 M-0.61 172.53 C41.01 125.22, 81.31 78.8, 147.45 -1.41 M-0.99 179.64 C39.78 125.07, 83.86 78.1, 153.78 1.27 M0.88 176.46 C48.34 120.38, 95.86 65.42, 154.31 -1.68 M-2.41 180.63 C60.47 111.66, 121.06 46.92, 156.95 0.9 M0.47 184.42 C57.74 119.21, 112.7 53.97, 158.01 1.38 M0.48 189.13 C50.55 124.53, 108.89 59.2, 164.44 1.42 M-0.33 188.5 C29.73 152.16, 65.39 111.66, 164.32 0.99 M-1.04 196.36 C49.76 139.55, 95.1 87.51, 171.05 -1.03 M1.03 193.34 C67.55 118.78, 134.72 41.75, 170.01 1.03 M-1.81 198.6 C50.53 146.21, 106.14 86.15, 176.91 0.41 M0.14 201.98 C34.94 157.24, 72.81 115.51, 173.75 -1.43 M-0.56 204.99 C63.67 140.25, 124.38 65.36, 182.78 1.24 M-1.09 206.53 C35.49 164.84, 73.03 122.92, 180.68 -0.05 M2.18 215.68 C59.63 143.18, 124.77 74.54, 186.49 -0.11 M0.38 213.51 C74.05 130.12, 146.38 46.69, 184.5 0.79 M0.22 218.33 C69.74 139.92, 137.18 61.08, 190.81 1.08 M-0.04 218.5 C42.49 169.47, 87.02 120.41, 190.73 -1 M-1.28 224.49 C41.7 176.76, 87.61 124.78, 194.03 -1.4 M-0.59 224.15 C75.3 139.86, 151.4 51.1, 196.16 -0.55 M-2.54 230.18 C59.41 166.29, 112.83 100.48, 203.2 -2.72 M0.38 232.01 C63.55 158.54, 124.54 86.91, 202.33 -0.8 M3.93 236.2 C79.14 141.2, 156.64 54.67, 207.88 1.36 M2.72 235.64 C78.9 144.65, 159.16 52.55, 207.75 -1.67 M6.28 234.74 C54.96 184.16, 101.47 127.6, 210.6 1.62 M7.29 234.31 C78.75 159.5, 145.4 80.76, 211.89 0.23 M15.21 234.52 C93.18 144.29, 167.05 51, 217.9 -1.24 M11.77 234.52 C86.66 151.19, 162.18 63.11, 216.4 -1.13 M18.63 235.64 C75.39 171.21, 129.51 106.94, 224.48 1.57 M18.04 234.49 C89.73 145.89, 165.94 59.95, 223.18 -0.66 M24.24 236.7 C84.57 169.97, 135.6 106.34, 227.6 -1.11 M23.12 236.49 C77.38 177.86, 129.69 117.15, 227.16 -0.68 M29.19 235.97 C72.66 183.15, 114.1 138.2, 233.88 -2.17 M27.17 234.64 C93.94 155.51, 165.68 74.92, 234.32 1.12 M31.69 234.67 C81.45 177.79, 132.44 124.05, 238.84 2.21 M33.4 234.82 C106.09 151.18, 179.67 66.67, 239.53 -0.41 M40.64 238.12 C92.53 174.01, 150.13 111.61, 242.63 1.29 M39 234.01 C108.38 156.26, 179.02 74.42, 244.99 -1.02 M47.27 236.26 C110.63 157.44, 176.29 80.66, 251.64 1.44 M43.61 234.43 C112.2 156.71, 177.56 80.47, 248.67 -0.24 M51.87 233.29 C124.75 152.27, 195.23 73.5, 255.04 1.63 M48.74 234.27 C125.17 152.82, 198.97 67.43, 254.99 -0.57 M51.96 234.62 C129.76 153.67, 202.8 74.86, 257.41 0.33 M54.23 236.95 C103.32 180.73, 149.72 128.32, 260.01 0.24 M60.84 232.86 C103.82 191.7, 142.43 145.06, 267.35 -1.22 M60.95 235.18 C122.31 161.77, 182.77 91.81, 265.63 0.66 M66.35 236.53 C144.4 145.8, 226.16 55.69, 267.28 2.14 M66.38 236.31 C111.04 184.81, 155.14 131.71, 270.47 0.25 M73.14 237.04 C118.65 179.51, 168.35 127.06, 276.3 0 M71.03 236.02 C144.38 148.13, 222.43 60.25, 275.51 -0.33 M75.26 235.56 C126.56 175.25, 179.43 117.81, 279.34 2.51 M76.47 236.05 C139.9 161.42, 205.14 86.25, 280 0.68 M82.01 237.75 C138.36 164.34, 202.57 93.27, 281.79 6.74 M80.93 234.18 C154.17 159.14, 222.59 78.31, 281.71 6.22 M84.6 234.71 C130.63 185.5, 171 133.92, 279.37 12.81 M85.94 236.41 C129.67 184.62, 177.14 130.22, 279.39 11.76 M94.08 232.47 C158.16 153.58, 225.35 76.45, 279.87 19.53 M91.99 235.2 C136.5 179.97, 182.22 125.52, 279.97 17.67 M95.18 232.87 C165.82 161.15, 229.12 83.23, 282.92 25.71 M96.38 236.36 C153.58 171.63, 207.68 111.51, 279.32 25.88 M103.34 233.99 C168.46 163.71, 230.07 94.48, 278.45 28.56 M103.6 233.95 C148.71 176.56, 200.11 119.15, 278.94 31.7 M105.34 233.82 C161.03 169.85, 221.47 101.24, 279.48 39.72 M108.18 235.03 C168.81 169.78, 225.79 105.45, 280.09 37.19 M111.56 237.82 C176.71 169.12, 230.17 98.4, 277.5 41.09 M114.33 233.74 C164.28 174.61, 218.85 114.89, 278.97 44.69 M120.32 237.18 C157.2 193.91, 192.77 155.49, 282.33 50.1 M118.61 236.65 C155.28 194.38, 192.14 151.08, 279.73 50.01 M126.41 235.69 C159.3 195.66, 195.27 153.22, 278.75 53.1 M123.56 236.11 C182.01 165.94, 239.42 99.49, 280.13 55.3 M129.65 234.27 C177.59 180.4, 227.28 121.18, 280.99 59.28 M129.81 236.13 C182.11 173.54, 236.5 111.19, 281.38 62.65 M138.13 232.31 C188.3 181.71, 239.17 124.67, 278.55 68.05 M133.28 235.34 C190.55 171.08, 244.61 109.66, 279.89 66.62 M143.1 238.33 C183.77 185.96, 233.66 126.12, 278.53 71.46 M140.83 236.75 C181.14 183.56, 224.58 136.11, 281.16 75.51 M148.77 236.9 C184.62 186.92, 229.45 138.85, 284.1 81.21 M146.82 236.83 C193.72 176.2, 245.16 117.77, 280.88 78.92 M146.66 233.7 C193.06 186.24, 244.13 132.92, 278.53 86.99 M148.75 235.29 C175.94 206.35, 199.64 175.66, 278.88 87.43 M155.72 238.35 C182.38 199.8, 216.31 170.48, 281.57 89.91 M156.09 235.06 C196.66 190.39, 239.54 142.37, 282.05 91.66 M164.22 235.39 C194.65 196.29, 235.92 152.1, 277.64 101.79 M162.39 234.01 C205.3 183.74, 248.9 133.67, 280.46 96.87 M169.66 235.39 C211.85 187.97, 250.86 132.29, 276.27 103.13 M167.67 237.28 C205.11 192.5, 240.08 151.2, 281.95 106.33 M170.09 234.57 C207.12 200.66, 236.2 160.91, 282.07 111.18 M173.21 236.11 C202.8 196.66, 235.3 162.16, 279.29 110.36 M175 234.16 C195.64 209.21, 221.37 187.69, 282.28 119.12 M178.15 236.63 C205.38 197.89, 239.58 159.73, 281.52 116.84 M178.81 232.28 C209.3 209.31, 235.86 179.47, 280.3 123.88 M180.64 234.95 C217.16 190.19, 254.83 148.52, 281.11 124.33 M184.47 239.11 C217.71 205.28, 244.98 167.42, 278.57 125.52 M187.16 237.67 C212.24 209.61, 237.23 181.24, 280.51 128.79 M193.62 235.92 C221.82 202.6, 248.77 173.05, 281.48 138.66 M194.31 236.24 C218.51 209.26, 239.5 183.9, 280.8 136.27 M198.16 238.28 C229.49 197.03, 264.43 158.25, 276.82 144.27 M198.15 235.51 C227.93 200.69, 259.22 163.8, 278.81 142.09 M202.44 239.16 C224.76 217.93, 240.97 193.45, 283.46 144.87 M203.98 236.05 C228.12 205.82, 255.17 179.73, 280.43 147.28 M206.83 232.03 C222.73 218.61, 244.61 196.57, 276.74 156.36 M207.69 234.65 C224.65 217.13, 238.26 200.04, 281.8 153.77 M213.87 234 C242.97 209.56, 264.84 183.34, 279.44 155.42 M213.57 234.76 C233.02 212.89, 250.54 192.76, 281.86 157.07 M219.92 236.99 C234.75 221.86, 253.19 203.02, 280.67 166.86 M219.56 234.9 C234.68 218.81, 245.99 202.84, 281 164.95 M221.23 238.77 C233.95 221.91, 252.66 205.81, 277.32 171.52 M223.15 235.11 C239.77 217.58, 251.97 202.46, 280.14 170.66 M229.59 234.16 C245.47 216.34, 261.1 202.65, 277.7 181.4 M230.65 237.42 C239.7 223.26, 251.25 210.65, 280.12 179.34 M238.48 238.09 C249.42 220.56, 259.12 208.16, 279.01 187.47 M234.97 236.2 C250.92 217.95, 267.12 199.35, 280.79 185.21 M238.65 236.79 C254.37 217.6, 271.65 204.12, 282.25 191.15 M241.02 234.72 C251.68 221.87, 259.19 210.85, 279.67 190.24 M248.29 234.89 C261.67 224.07, 270.09 208.75, 279.1 199.61 M247.42 235.46 C257.84 221.13, 271.52 209.15, 280.47 196.91 M248.63 238.5 C258.03 222.95, 273.23 209.5, 281.42 201.63 M251.89 236.65 C262.42 220.69, 273.76 211.14, 282.32 203.3 M254.04 238.42 C263.98 223.41, 276.77 214.27, 280.87 206.83 M257.04 234.64 C264.23 226.65, 271.8 218.08, 281.02 207.61 M263.71 233.19 C264.95 224, 279.36 217.53, 278.36 213.41 M263.65 236.4 C267.33 228.51, 273.22 220.5, 278.25 215.27 M267.76 236.26 C271.61 231.12, 272.65 223.15, 278.97 219.61 M268.53 233.88 C269.53 231.78, 274.25 226.05, 282.11 219.7 M271.42 235.22 C274.86 234.66, 277.05 229.38, 281.8 224.4 M273.23 236.09 C274.35 232.78, 276.97 230.71, 281.14 225.53 M277.23 235.68 C278.36 234.94, 279.58 233.06, 280.24 232.16 M277.75 234.75 C278.71 234.02, 278.99 233.49, 281 231.8" stroke="#376085" stroke-width="0.5" fill="none"></path><path d="M-2.48 0.79 C106.72 5.95, 213.29 4.09, 280.9 -0.44 M1.1 0.63 C86.93 1.27, 172.3 1.37, 280.39 0.85 M282.22 -0.9 C277.67 75.92, 281.01 154.27, 280.44 232.49 M279.59 -0.33 C277 85.94, 277.14 170.99, 280.01 235.03 M279.33 234.75 C192.96 238.63, 108.98 237.88, -2.72 236.04 M280.79 233.23 C197.21 231.94, 114.21 231.98, -0.29 233.15 M-2.36 235.96 C0.83 144.69, 2.55 63.01, -1.85 3.2 M1.51 233.82 C-1.46 160.99, -3.35 85.61, 0.43 -1.44" stroke="#000000" stroke-width="1" fill="none"></path></g><g transform="translate(1548.5905674525666 151.29119873046932) rotate(0 36 42)"><text x="0" y="63" font-family="Tinkoff Sans, Segoe UI Emoji" font-size="68.21838378906241px" fill="#000000" text-anchor="start" style="white-space: pre;" direction="ltr">05</text></g><g transform="translate(1445.9478672572545 247.89228166852718) rotate(0 133.27598353794633 63.532995736727116)"><text x="133.27598353794636" y="47.53299573672711" font-family="Tinkoff Sans, Segoe UI Emoji" font-size="51.75127782294801px" fill="#000000" text-anchor="middle" style="white-space: pre;" direction="ltr">Коллекции и</text><text x="133.27598353794636" y="111.06599147345422" font-family="Tinkoff Sans, Segoe UI Emoji" font-size="51.75127782294801px" fill="#000000" text-anchor="middle" style="white-space: pre;" direction="ltr">контейнеры</text></g><g stroke-linecap="round" transform="translate(16.859784807477467 532.50572858538) rotate(0 139.81310163225447 116.80339268275665)"><path d="M2.02 -1.57 C98.49 0.53, 188.36 1.94, 277.22 0.85 M1.2 0.29 C108.7 -2.29, 221.48 -0.84, 281.06 0.87 M277.44 3.26 C277.27 83.67, 278.77 168.78, 282.45 231.23 M279.52 1.51 C276.52 47.64, 275.73 94.13, 279.67 232.23 M282.03 235.23 C198.29 234.46, 118.17 237.63, 0.91 233.09 M278.68 235.08 C175.2 229.3, 70.22 229.41, 0.29 234.52 M-3.03 235.35 C3.18 161.45, -0.97 91.11, -1.31 -0.8 M-0.53 231.95 C2.5 146.77, 3.35 61.69, 0.82 -0.45" stroke="#000000" stroke-width="1" fill="none"></path></g><g transform="translate(124.3139212472098 486.7541503906258) rotate(0 36 42)"><text x="0" y="63" font-family="Tinkoff Sans, Segoe UI Emoji" font-size="68.21838378906241px" fill="#000000" text-anchor="start" style="white-space: pre;" direction="ltr">06</text></g><g transform="translate(61.404811314174026 618.5724312918531) rotate(0 91.49999999999994 33.5)"><text x="0" y="50" font-family="Tinkoff Sans, Segoe UI Emoji" font-size="54.16807338169645px" fill="#000000" text-anchor="start" style="white-space: pre;" direction="ltr">Implicits</text></g><g stroke-linecap="round" transform="translate(369.3280465262276 530.3778686523441) rotate(0 139.81310163225442 116.80339268275665)"><path d="M-2.74 2.67 C95.21 0.14, 185.11 2.69, 282.4 1.9 M-0.36 0.54 C72.72 3.72, 149.18 4.86, 279.71 0.96 M279.78 -0.37 C279.49 76.58, 277.65 152.83, 281.14 236.71 M279.86 -1.39 C281.31 75.29, 280.06 150.97, 281.03 233.4 M278.86 234.45 C189.54 236.38, 98.66 239.82, 0.16 232.82 M279.29 234.28 C193.8 234.84, 108.56 235.64, 0.14 233.68 M2.3 236.97 C-0.83 159.46, 3.31 84, -2.75 -0.37 M-1.33 234.26 C0.58 182.88, 1.53 132.07, -0.51 1.64" stroke="#000000" stroke-width="1" fill="none"></path></g><g transform="translate(476.7821829659599 489.24499511718807) rotate(0 36 42)"><text x="0" y="63" font-family="Tinkoff Sans, Segoe UI Emoji" font-size="68.21838378906241px" fill="#000000" text-anchor="start" style="white-space: pre;" direction="ltr">07</text></g><g transform="translate(390.03683907645063 583.0783952985495) rotate(0 118.5 66.5)"><text x="118.5" y="49.5" font-family="Tinkoff Sans, Segoe UI Emoji" font-size="54.16807338169645px" fill="#000000" text-anchor="middle" style="white-space: pre;" direction="ltr">Monoid</text><text x="118.5" y="116" font-family="Tinkoff Sans, Segoe UI Emoji" font-size="54.16807338169645px" fill="#000000" text-anchor="middle" style="white-space: pre;" direction="ltr">Applicative</text></g><g stroke-linecap="round" transform="translate(733.552551269531 532.3838326590405) rotate(0 139.81310163225442 116.80339268275665)"><path d="M-1.46 2.11 C78.66 6.4, 157.95 4.35, 279.49 -2.11 M0 0.74 C99.67 -0.16, 202.27 -1.18, 278.9 -1.27 M279.39 2.38 C281.45 80.95, 281.29 165.42, 281.14 234.69 M280.48 -0.65 C281.29 48.79, 278.03 98.89, 277.97 233.53 M280.74 235.18 C222.76 228.81, 163.55 228.19, -2.65 231.78 M280.52 233.9 C180.48 235.42, 83.7 234.75, 0.65 232.91 M-2.83 230.95 C2.71 178.62, -0.95 129.04, -2.14 -1.75 M1.48 234.19 C1.98 142.83, 4.61 49.91, -0.47 -0.59" stroke="#000000" stroke-width="1" fill="none"></path></g><g transform="translate(841.0066877092634 486.4621407645095) rotate(0 36 42)"><text x="0" y="63" font-family="Tinkoff Sans, Segoe UI Emoji" font-size="68.21838378906241px" fill="#000000" text-anchor="start" style="white-space: pre;" direction="ltr">08</text></g><g transform="translate(802.5536673409595 616.2533569335941) rotate(0 75 33.5)"><text x="0" y="50" font-family="Tinkoff Sans, Segoe UI Emoji" font-size="54.16807338169645px" fill="#000000" text-anchor="start" style="white-space: pre;" direction="ltr">Monad</text></g><g stroke-linecap="round" transform="translate(1089.5399257114952 525.7235892159604) rotate(0 139.81310163225442 116.80339268275665)"><path d="M1 0.08 C107.31 0.87, 211.33 0.33, 276.66 -2.25 M-0.42 -0.77 C61.65 0.76, 121.1 0.75, 280.46 0.51 M276.73 1.33 C274.82 48.63, 274.07 101.65, 280.02 236.45 M279.26 1.51 C281.13 75.27, 279.47 153.36, 279.09 234.8 M278.29 235.98 C170.51 231.81, 58.02 227.67, -1.72 232.57 M279.7 233.66 C219.74 234.58, 159.1 235.76, 0.83 234.63 M-2.38 232.06 C-4.9 146.66, -3.88 58.86, -1.63 -0.98 M0.95 235.24 C-1.78 182.23, -1.69 132.46, -0.44 -0.82" stroke="#000000" stroke-width="1" fill="none"></path></g><g transform="translate(1196.9940621512276 479.80189732142924) rotate(0 36.000000000000114 42)"><text x="0" y="63" font-family="Tinkoff Sans, Segoe UI Emoji" font-size="68.21838378906241px" fill="#000000" text-anchor="start" style="white-space: pre;" direction="ltr">09</text></g><g transform="translate(1098.2621111188614 604.2680576869424) rotate(0 131.3159942626953 39.847612052128234)"><text x="0" y="29.847612052128234" font-family="Tinkoff Sans, Segoe UI Emoji" font-size="32.0750413017067px" fill="#000000" text-anchor="start" style="white-space: pre;" direction="ltr">Асинхронное</text><text x="0" y="69.69522410425647" font-family="Tinkoff Sans, Segoe UI Emoji" font-size="32.0750413017067px" fill="#000000" text-anchor="start" style="white-space: pre;" direction="ltr">программирование</text></g><g stroke-linecap="round" transform="translate(1444.9954223632808 520.6213989257815) rotate(0 139.8131016322543 116.80339268275665)"><path d="M-0.81 2.52 C107.56 -1.43, 209.17 0.29, 281.65 -1.51 M-0.13 -0.31 C84.42 3.95, 167.54 3.41, 279.87 0.32 M278.02 2.68 C279.07 63.04, 281.26 128.64, 282.41 230.95 M279.51 -1.26 C282.05 77.36, 280.29 154.98, 281.29 234.22 M280.14 235.52 C192.27 233.24, 105.47 233.27, -2.91 231.6 M281.02 233.36 C209.8 235.96, 139.82 233.47, -0.12 234.56 M1.77 230.5 C1.15 178.75, 1.02 123.71, 2.52 -1.81 M0.73 234.11 C-2.63 173.82, -3.43 116.86, -0.22 1.38" stroke="#000000" stroke-width="1" fill="none"></path></g><g transform="translate(1552.2795322963166 474.69970703125045) rotate(0 36 42)"><text x="0" y="63" font-family="Tinkoff Sans, Segoe UI Emoji" font-size="68.21838378906241px" fill="#000000" text-anchor="start" style="white-space: pre;" direction="ltr">10</text></g><g transform="translate(1465.4354858398438 597.7371215820315) rotate(0 117 33.5)"><text x="0" y="50" font-family="Tinkoff Sans, Segoe UI Emoji" font-size="54.16807338169645px" fill="#000000" text-anchor="start" style="white-space: pre;" direction="ltr">Монада IO</text></g><g transform="translate(1341.6062360491069 10) rotate(0 77.87261090959828 33.059127272942646)"><text x="77.87261090959825" y="49.11825454588531" font-family="Tinkoff Sans, Segoe UI Emoji" font-size="52.89460363670823px" fill="#000000" text-anchor="middle" style="white-space: pre;" direction="ltr">Мы тут</text></g><g stroke-linecap="round"><g transform="translate(1434.2543247767858 71.02845110212047) rotate(0 36.050499753682516 59.39397517450425)"><path d="M-0.15 -0.89 C9.51 6.89, 45.43 27.94, 57.35 47.84 C69.26 67.74, 69.02 106.74, 71.35 118.49 M-1.68 1.25 C7.86 9.75, 43.81 29.68, 56.39 49.42 C68.97 69.16, 71.33 108.03, 73.78 119.68" stroke="#000000" stroke-width="1" fill="none"></path></g><g transform="translate(1434.2543247767858 71.02845110212047) rotate(0 36.050499753682516 59.39397517450425)"><path d="M58.01 93.27 C63.5 98.54, 66.57 105.15, 73.2 121.34 M60.26 93.81 C64.32 101.2, 67.66 110.52, 74.54 120.44" stroke="#000000" stroke-width="1" fill="none"></path></g><g transform="translate(1434.2543247767858 71.02845110212047) rotate(0 36.050499753682516 59.39397517450425)"><path d="M78.31 90.26 C78.69 96.26, 76.63 103.64, 73.2 121.34 M80.56 90.8 C78.36 99, 75.42 109.25, 74.54 120.44" stroke="#000000" stroke-width="1" fill="none"></path></g></g></svg>