<svg version="1.1" xmlns="http://www.w3.org/2000/svg" viewBox="0 0 509.83984375 336.9961166381836" width="509.83984375" height="336.9961166381836" filter="invert(93%) hue-rotate(180deg)">
  <!-- svg-source:excalidraw -->
  
  <defs>
    <style>
      @font-face {
        font-family: "Virgil";
        src: url("https://excalidraw.com/Virgil.woff2");
      }
      @font-face {
        font-family: "Cascadia";
        src: url("https://excalidraw.com/Cascadia.woff2");
      }
    </style>
  </defs>
  <g stroke-linecap="round" transform="translate(158.49386596679688 10) rotate(0 95.19009399414062 41.46599578857422)"><path d="M4.86 5.55 C4.86 5.55, 4.86 5.55, 4.86 5.55 M4.86 5.55 C4.86 5.55, 4.86 5.55, 4.86 5.55 M0.66 16.48 C7.41 10, 11.67 6.2, 13.13 2.14 M0.66 16.48 C5.59 11.38, 10 6.56, 13.13 2.14 M1.06 22.12 C7.17 18.14, 9.4 13.29, 18.77 1.74 M1.06 22.12 C6.77 16.13, 10.75 11.18, 18.77 1.74 M0.8 28.52 C6.58 19.23, 13.94 11.66, 23.76 2.1 M0.8 28.52 C6.51 21.45, 10.44 15.63, 23.76 2.1 M0.54 34.92 C12.38 24.42, 20.45 12.47, 28.75 2.46 M0.54 34.92 C11.71 22.51, 22.09 9.8, 28.75 2.46 M0.93 40.56 C8.48 30.71, 17.53 22.6, 34.39 2.07 M0.93 40.56 C12.74 28.01, 23.18 15.33, 34.39 2.07 M0.67 46.96 C10.44 33.66, 25.78 18.92, 39.38 2.43 M0.67 46.96 C12.74 33.65, 23.5 20.05, 39.38 2.43 M1.06 52.6 C10.98 42.32, 20.25 31.56, 45.02 2.04 M1.06 52.6 C13.17 36.89, 25.93 22.59, 45.02 2.04 M0.8 59 C17.75 36.99, 37.71 16.74, 50.01 2.4 M0.8 59 C12.15 46.84, 25.09 31.59, 50.01 2.4 M0.54 65.4 C20.19 44.17, 35.39 22.64, 54.99 2.76 M0.54 65.4 C20.63 41.57, 40.14 17.67, 54.99 2.76 M2.9 68.78 C18.24 52.41, 33.62 35.64, 60.64 2.36 M2.9 68.78 C17.27 53.72, 29.68 39, 60.64 2.36 M4.61 72.91 C24.64 45.98, 47.37 21.98, 65.62 2.72 M4.61 72.91 C26.97 46.83, 49.09 22.39, 65.62 2.72 M5.66 77.8 C20.19 61.4, 39.18 43.76, 71.27 2.33 M5.66 77.8 C30.63 49.49, 54.17 20.61, 71.27 2.33 M8.68 80.42 C25.51 59.96, 46.95 39.42, 76.25 2.69 M8.68 80.42 C22.82 63.8, 37.21 47.38, 76.25 2.69 M12.36 82.29 C37.05 56.87, 57.43 30.55, 81.9 2.29 M12.36 82.29 C27.37 63.86, 43.23 45.8, 81.9 2.29 M17.34 82.65 C43.09 55.5, 66.94 23.24, 86.88 2.65 M17.34 82.65 C32.99 63.67, 51.3 43.7, 86.88 2.65 M21.67 83.77 C39.63 61.95, 56.38 43.47, 92.53 2.26 M21.67 83.77 C48.71 51.44, 77.99 17.75, 92.53 2.26 M26.66 84.13 C52.34 54, 79.35 22.89, 97.51 2.62 M26.66 84.13 C49.33 59.87, 70.18 35.56, 97.51 2.62 M32.3 83.73 C60.39 51.79, 87.54 20.89, 103.16 2.22 M32.3 83.73 C59.12 53.67, 86.07 22.93, 103.16 2.22 M37.29 84.09 C54.23 62.75, 70.72 43.57, 108.14 2.58 M37.29 84.09 C55.01 63.27, 71.51 43.94, 108.14 2.58 M42.93 83.7 C60.44 65.2, 73.17 48.41, 113.79 2.19 M42.93 83.7 C63.34 60.01, 86.27 33.97, 113.79 2.19 M47.92 84.06 C66.29 65.44, 82.88 43.85, 118.77 2.55 M47.92 84.06 C65.45 63.89, 82.17 42.07, 118.77 2.55 M53.56 83.66 C77.44 56.7, 102.89 28.95, 124.42 2.15 M53.56 83.66 C79.76 55.62, 104 27.73, 124.42 2.15 M58.55 84.02 C76.71 61.32, 96.82 37.77, 129.4 2.51 M58.55 84.02 C77.02 61.17, 97.65 39.54, 129.4 2.51 M64.19 83.63 C80.74 66.55, 93.41 47.58, 135.05 2.12 M64.19 83.63 C91.81 52.65, 118.52 20.78, 135.05 2.12 M69.18 83.99 C86.84 63.01, 104.05 43.5, 140.03 2.48 M69.18 83.99 C84.56 65.84, 100.02 47.59, 140.03 2.48 M74.82 83.59 C102.44 54.83, 127.48 22.29, 145.68 2.08 M74.82 83.59 C96.29 57.54, 119.71 30.17, 145.68 2.08 M79.81 83.95 C94.23 64.16, 111.78 46.72, 150.67 2.44 M79.81 83.95 C105.34 54.53, 132.25 25.03, 150.67 2.44 M85.45 83.56 C105.58 58.81, 126.17 32.72, 156.31 2.05 M85.45 83.56 C108.43 57.04, 133.24 29.12, 156.31 2.05 M90.44 83.92 C107.38 63.79, 127.47 45.23, 161.3 2.41 M90.44 83.92 C112.62 57.25, 134.89 31.28, 161.3 2.41 M96.08 83.52 C117.62 57.82, 139.9 34.15, 166.28 2.77 M96.08 83.52 C113.44 63.33, 131.47 43.23, 166.28 2.77 M101.07 83.88 C117.01 64.9, 132.02 47.87, 171.93 2.38 M101.07 83.88 C121.14 61.01, 142.64 36.17, 171.93 2.38 M106.71 83.49 C124.08 62.71, 139.68 44.21, 176.91 2.74 M106.71 83.49 C131.93 52.15, 158.12 22.7, 176.91 2.74 M111.7 83.85 C138.1 56.05, 163.76 23.78, 181.24 3.85 M111.7 83.85 C128.04 66.51, 142.23 50.14, 181.24 3.85 M117.34 83.46 C145.91 52.4, 171.08 20.45, 185.57 4.97 M117.34 83.46 C133.77 63.45, 152.03 44.13, 185.57 4.97 M122.33 83.82 C144.4 58.63, 166.53 34.66, 187.28 9.1 M122.33 83.82 C148 55.16, 175.21 25.49, 187.28 9.1 M127.97 83.42 C139.87 69.99, 155.03 54.48, 188.99 13.23 M127.97 83.42 C145.09 62.93, 161.25 43.85, 188.99 13.23 M132.96 83.78 C154.72 57.79, 173.73 35.09, 191.35 16.61 M132.96 83.78 C150.79 62.99, 169.5 42.15, 191.35 16.61 M138.6 83.39 C157.22 59.1, 175.99 40.29, 191.09 23.01 M138.6 83.39 C157.43 62.61, 173.55 43.76, 191.09 23.01 M143.59 83.75 C154.41 69.99, 168.37 55.99, 191.48 28.65 M143.59 83.75 C161.14 62.77, 178.87 42.64, 191.48 28.65 M148.58 84.11 C161.91 69.25, 171.52 57.62, 191.22 35.05 M148.58 84.11 C163.59 67.32, 179.87 49.91, 191.22 35.05 M154.22 83.71 C163.08 72.94, 169.5 64.09, 191.62 40.69 M154.22 83.71 C168.02 67.98, 180.73 52.47, 191.62 40.69 M159.21 84.07 C164.77 76.94, 172.64 66.73, 191.36 47.09 M159.21 84.07 C170.77 70.91, 179.52 60.65, 191.36 47.09 M164.85 83.68 C171.8 74.87, 181.58 65.15, 191.09 53.49 M164.85 83.68 C170.63 76.2, 177.31 68.85, 191.09 53.49 M170.49 83.28 C176.59 73.5, 186.33 68.84, 191.49 59.13 M170.49 83.28 C176.96 76.12, 183.32 68.23, 191.49 59.13 M176.79 82.13 C179.4 79.46, 183.91 73.75, 192.54 64.02 M176.79 82.13 C182.3 76.7, 186.69 71.69, 192.54 64.02" stroke="#40c057" stroke-width="0.5" fill="none"></path><path d="M20.73 0 M20.73 0 C68.95 1.4, 118.68 0.58, 169.65 0 M20.73 0 C75.94 1.51, 130.97 1.36, 169.65 0 M169.65 0 C182.12 1.56, 190.59 8.54, 190.38 20.73 M169.65 0 C184.38 -0.26, 188.57 9.01, 190.38 20.73 M190.38 20.73 C191.97 28.4, 191.27 37.95, 190.38 62.2 M190.38 20.73 C190.71 30.4, 189.72 38.79, 190.38 62.2 M190.38 62.2 C191.3 74.32, 183.68 83.75, 169.65 82.93 M190.38 62.2 C190.79 77.51, 182.9 81.62, 169.65 82.93 M169.65 82.93 C133.84 81.79, 99 84.01, 20.73 82.93 M169.65 82.93 C114.79 82.63, 62.17 83.16, 20.73 82.93 M20.73 82.93 C7.12 81.94, 0.67 76.39, 0 62.2 M20.73 82.93 C6.93 84.26, 2.2 74.25, 0 62.2 M0 62.2 C-1.17 47.85, 0.26 33.65, 0 20.73 M0 62.2 C-0.5 53.61, -1.02 44.66, 0 20.73 M0 20.73 C0.6 6.22, 6.49 -0.08, 20.73 0 M0 20.73 C-1.38 9.11, 7.85 1.09, 20.73 0" stroke="#ffffff" stroke-width="1" fill="none"></path></g><g transform="translate(218.69851684570312 26.165054321289062) rotate(0 42.5 22.5)"><text x="0" y="33" font-family="Tinkoff Sans, Segoe UI Emoji" font-size="36px" fill="#ffffff" text-anchor="start" style="white-space: pre;" direction="ltr">Either</text></g><g stroke-linecap="round" transform="translate(10 244.06412506103516) rotate(0 90.24874877929688 41.46599578857422)"><path d="M4.86 5.55 C4.86 5.55, 4.86 5.55, 4.86 5.55 M4.86 5.55 C4.86 5.55, 4.86 5.55, 4.86 5.55 M0.66 16.48 C5.16 12.34, 11.47 4.11, 13.13 2.14 M0.66 16.48 C4.91 11.49, 8.1 7.91, 13.13 2.14 M1.06 22.12 C5.68 16.25, 8.31 12.42, 18.77 1.74 M1.06 22.12 C4.27 17.61, 8.18 13.04, 18.77 1.74 M0.8 28.52 C8.5 19.24, 15.23 14.25, 23.76 2.1 M0.8 28.52 C9.02 19.62, 15.44 11.96, 23.76 2.1 M0.54 34.92 C11.94 22.67, 20.16 9.65, 28.75 2.46 M0.54 34.92 C8.25 25.7, 17.12 15.18, 28.75 2.46 M0.93 40.56 C9.15 33.25, 16.58 23.84, 34.39 2.07 M0.93 40.56 C11.84 27.23, 22.1 15.29, 34.39 2.07 M0.67 46.96 C13.56 34.53, 23.83 20.24, 39.38 2.43 M0.67 46.96 C14.43 32.43, 28.88 16.34, 39.38 2.43 M1.06 52.6 C17.04 32.67, 33.81 15.74, 45.02 2.04 M1.06 52.6 C15.39 36.06, 30.72 17.94, 45.02 2.04 M0.8 59 C15.68 41.22, 31.59 23.74, 50.01 2.4 M0.8 59 C13.54 43.58, 27.16 28.76, 50.01 2.4 M0.54 65.4 C22.09 44.08, 39.91 17.93, 54.99 2.76 M0.54 65.4 C12.64 49.91, 26.04 35.46, 54.99 2.76 M2.9 68.78 C23.43 42.31, 47.38 19.18, 60.64 2.36 M2.9 68.78 C20.82 49.28, 36.52 28.58, 60.64 2.36 M2.64 75.17 C17.18 57.48, 34.06 41.18, 65.62 2.72 M2.64 75.17 C23.36 50.54, 43.82 26.18, 65.62 2.72 M5.66 77.8 C19.91 62.06, 35.23 43.09, 71.27 2.33 M5.66 77.8 C26.79 54.08, 48.17 31.12, 71.27 2.33 M8.68 80.42 C24.35 66.26, 38.11 47.85, 76.25 2.69 M8.68 80.42 C25.59 62.96, 41.21 44, 76.25 2.69 M13.01 81.54 C27.09 61.55, 43.74 45.24, 81.9 2.29 M13.01 81.54 C30.5 59.28, 49.79 38.61, 81.9 2.29 M17.34 82.65 C33.78 64.07, 50.29 45.72, 86.88 2.65 M17.34 82.65 C41.72 53.58, 68.41 26.35, 86.88 2.65 M21.67 83.77 C38.44 61.54, 59.02 41.19, 92.53 2.26 M21.67 83.77 C47.24 55.31, 72.62 26.05, 92.53 2.26 M26.66 84.13 C50.45 55.68, 75.92 25.7, 97.51 2.62 M26.66 84.13 C44.03 62.98, 62.6 44.13, 97.51 2.62 M32.3 83.73 C50.85 65.52, 68.18 43.2, 103.16 2.22 M32.3 83.73 C49.68 62.71, 67.52 44.18, 103.16 2.22 M37.29 84.09 C59.87 56.56, 82.84 29.82, 108.14 2.58 M37.29 84.09 C53.95 66.19, 68.6 48.46, 108.14 2.58 M42.93 83.7 C59.15 60.11, 81.25 40.53, 113.79 2.19 M42.93 83.7 C60.11 64.49, 77.16 42.86, 113.79 2.19 M47.92 84.06 C69.33 59.1, 90.95 34.48, 118.77 2.55 M47.92 84.06 C72.39 55.79, 99.75 25.39, 118.77 2.55 M53.56 83.66 C71.05 64.05, 86.99 42.02, 124.42 2.15 M53.56 83.66 C78.24 55.79, 101.96 27.5, 124.42 2.15 M58.55 84.02 C78.22 61.36, 99.12 37.16, 129.4 2.51 M58.55 84.02 C80.1 60.73, 100.55 36.74, 129.4 2.51 M64.19 83.63 C82.96 64.94, 99.24 43.98, 135.05 2.12 M64.19 83.63 C91.3 52.11, 116.91 22.31, 135.05 2.12 M69.18 83.99 C85.63 66.97, 99.21 51.74, 140.03 2.48 M69.18 83.99 C85.17 67.52, 99.49 49.34, 140.03 2.48 M74.82 83.59 C100.85 55.67, 125.83 26.63, 145.68 2.08 M74.82 83.59 C91.93 63.83, 109.6 44.55, 145.68 2.08 M79.81 83.95 C108.11 50.68, 134.26 21.31, 150.67 2.44 M79.81 83.95 C99.83 61.75, 119.27 39.4, 150.67 2.44 M85.45 83.56 C112.65 50.84, 140.66 19.11, 156.31 2.05 M85.45 83.56 C106.46 60.5, 126.89 36.19, 156.31 2.05 M90.44 83.92 C104.06 65.92, 119.77 47.78, 161.95 1.66 M90.44 83.92 C118.1 50.89, 146.66 19.32, 161.95 1.66 M96.08 83.52 C114.07 61.15, 137.59 37.49, 166.28 2.77 M96.08 83.52 C120.77 54.91, 145.59 25.81, 166.28 2.77 M101.07 83.88 C126.49 53.37, 153.32 26.17, 170.61 3.89 M101.07 83.88 C118.6 65.63, 133.57 46.88, 170.61 3.89 M106.71 83.49 C120.74 65.87, 137.21 48.51, 174.94 5 M106.71 83.49 C126.96 58.56, 148.14 34.66, 174.94 5 M111.7 83.85 C136.76 54.08, 162.22 27.23, 177.96 7.62 M111.7 83.85 C127.24 66.3, 141.76 46.64, 177.96 7.62 M117.34 83.46 C135.33 64.17, 152.46 46.83, 180.33 11 M117.34 83.46 C134.04 64.25, 150.88 43.57, 180.33 11 M122.33 83.82 C141.77 62.52, 162.33 37.98, 180.72 16.65 M122.33 83.82 C145.06 58.41, 166.57 33.07, 180.72 16.65 M127.97 83.42 C139.16 69.3, 148.91 58.16, 181.11 22.29 M127.97 83.42 C140.1 68.07, 154.56 52.82, 181.11 22.29 M132.96 83.78 C149.7 63.79, 168.45 42.37, 180.85 28.69 M132.96 83.78 C143.26 71.72, 154.16 59.57, 180.85 28.69 M138.6 83.39 C152.53 67.29, 167.36 52.24, 181.25 34.33 M138.6 83.39 C151.19 68.25, 164.54 55.6, 181.25 34.33 M143.59 83.75 C157.96 70.24, 171.1 54.94, 180.99 40.73 M143.59 83.75 C153.76 72.14, 163.35 59.54, 180.99 40.73 M148.58 84.11 C160.76 68.5, 171.71 57.24, 181.38 46.37 M148.58 84.11 C158.3 72.87, 170.42 58.81, 181.38 46.37 M154.22 83.71 C162.53 74.43, 170.25 62.16, 181.12 52.77 M154.22 83.71 C164.93 72.39, 175.15 59.27, 181.12 52.77 M159.86 83.32 C167.96 73.67, 173.77 64.31, 180.86 59.17 M159.86 83.32 C165.96 75.35, 174.04 67.43, 180.86 59.17 M166.82 81.41 C169.51 77.71, 175.01 73.35, 181.91 64.06 M166.82 81.41 C169.52 77.63, 173.28 75.05, 181.91 64.06" stroke="#228be6" stroke-width="0.5" fill="none"></path><path d="M20.73 0 M20.73 0 C60.39 -0.49, 95.85 -0.9, 159.76 0 M20.73 0 C60.42 -0.15, 100.33 -0.6, 159.76 0 M159.76 0 C172.59 1.99, 178.7 8.33, 180.5 20.73 M159.76 0 C174.74 0.5, 179.07 7.55, 180.5 20.73 M180.5 20.73 C181.23 30.99, 180.32 44.78, 180.5 62.2 M180.5 20.73 C179.85 35.47, 179.93 50.37, 180.5 62.2 M180.5 62.2 C180.43 75.21, 175.06 81.43, 159.76 82.93 M180.5 62.2 C181.51 75.82, 173.16 82.94, 159.76 82.93 M159.76 82.93 C117.18 81.61, 73.18 81.9, 20.73 82.93 M159.76 82.93 C130.81 82.53, 100.31 82.15, 20.73 82.93 M20.73 82.93 C5.58 81.86, 0.8 76.7, 0 62.2 M20.73 82.93 C8.38 81.19, 1.23 77.33, 0 62.2 M0 62.2 C1.5 54.39, -0.63 44.23, 0 20.73 M0 62.2 C0 47.32, -0.48 31.49, 0 20.73 M0 20.73 C0.23 5.78, 8.02 -0.34, 20.73 0 M0 20.73 C-2.14 8.11, 8.25 0.39, 20.73 0" stroke="#ffffff" stroke-width="1" fill="none"></path></g><g stroke-linecap="round"><g transform="translate(118.6371646890641 246.61233520507835) rotate(0 22.475988567977197 -78.69732948592952)"><path d="M0.76 -0.95 C8.18 -26.91, 37.83 -130.67, 45.25 -156.72 M-0.3 1.17 C6.95 -25.07, 37.12 -132.37, 44.65 -158.56" stroke="#ffffff" stroke-width="1" fill="none"></path></g><g transform="translate(118.6371646890641 246.61233520507835) rotate(0 22.475988567977197 -78.69732948592952)"><path d="M45.25 -127.54 C47.17 -138.3, 45.44 -149.62, 46.24 -159.23 M47.19 -128.71 C46.18 -138.6, 46.42 -146.64, 44.85 -159.04" stroke="#ffffff" stroke-width="1" fill="none"></path></g><g transform="translate(118.6371646890641 246.61233520507835) rotate(0 22.475988567977197 -78.69732948592952)"><path d="M25.51 -133.14 C34.54 -141.99, 39.96 -151.29, 46.24 -159.23 M27.44 -134.31 C32.39 -142.33, 38.6 -148.67, 44.85 -159.04" stroke="#ffffff" stroke-width="1" fill="none"></path></g></g><g transform="translate(17.953094482421875 262.26086164202013) rotate(0 81 24)"><text x="0" y="36" font-family="Tinkoff Sans, Segoe UI Emoji" font-size="39.12780691964284px" fill="#ffffff" text-anchor="start" style="white-space: pre;" direction="ltr">Left(           )</text></g><g transform="translate(83.78952026367188 260.9286547209087) rotate(0 43.674560546875 25.85993716591284)"><text x="0" y="38.719874331825665" font-family="Tinkoff Sans, Segoe UI Emoji" font-size="41.375899465460535px" fill="#fa5677" text-anchor="start" style="white-space: pre;" direction="ltr">value</text></g><g stroke-linecap="round" transform="translate(300.00738525390625 243.71231842041016) rotate(0 99.91622924804688 41.46599578857422)"><path d="M4.86 5.55 C4.86 5.55, 4.86 5.55, 4.86 5.55 M4.86 5.55 C4.86 5.55, 4.86 5.55, 4.86 5.55 M0.66 16.48 C4 12.82, 8.41 6.33, 13.13 2.14 M0.66 16.48 C5.5 11.51, 9.56 5.92, 13.13 2.14 M1.06 22.12 C9 14.44, 13.52 7.18, 18.77 1.74 M1.06 22.12 C4.16 17.19, 7.76 13.81, 18.77 1.74 M0.8 28.52 C6.55 20.88, 15.4 11.49, 23.76 2.1 M0.8 28.52 C6.63 21.64, 13.05 14.2, 23.76 2.1 M0.54 34.92 C8.8 26.73, 15.21 19.8, 28.75 2.46 M0.54 34.92 C6.82 27.1, 15.3 18.76, 28.75 2.46 M0.93 40.56 C13.87 23.71, 27.96 10.9, 34.39 2.07 M0.93 40.56 C10.3 29.18, 21.27 17.41, 34.39 2.07 M0.67 46.96 C16.54 31.59, 29.2 12.78, 39.38 2.43 M0.67 46.96 C15.43 30.47, 28.17 14.85, 39.38 2.43 M1.06 52.6 C12.38 37.16, 24.94 22.78, 45.02 2.04 M1.06 52.6 C10.52 42.5, 20.24 30.12, 45.02 2.04 M0.8 59 C15.09 45.27, 28.84 28.04, 50.01 2.4 M0.8 59 C16.58 39.86, 33.83 20.28, 50.01 2.4 M0.54 65.4 C18.14 47.55, 32.98 26.68, 54.99 2.76 M0.54 65.4 C14.93 48.1, 29.23 30.94, 54.99 2.76 M2.9 68.78 C15.5 52.32, 25.94 41.34, 60.64 2.36 M2.9 68.78 C22.17 45.51, 43.45 22.46, 60.64 2.36 M4.61 72.91 C26.55 48.27, 47.34 26.44, 65.62 2.72 M4.61 72.91 C17.9 58.84, 29.87 42.68, 65.62 2.72 M5.66 77.8 C31.32 49.93, 56.23 19.08, 71.27 2.33 M5.66 77.8 C30.42 51.47, 53.15 24.98, 71.27 2.33 M8.68 80.42 C36.6 51.15, 61.86 20.01, 76.25 2.69 M8.68 80.42 C26.54 60.57, 43.03 40.61, 76.25 2.69 M12.36 82.29 C26.75 63.4, 45.83 43.64, 81.9 2.29 M12.36 82.29 C32.14 58.54, 53.26 33.06, 81.9 2.29 M17.34 82.65 C36.29 60.86, 58 38.52, 86.88 2.65 M17.34 82.65 C41.09 54.98, 64.44 28.91, 86.88 2.65 M21.67 83.77 C39.45 64.46, 57.63 42.05, 92.53 2.26 M21.67 83.77 C46.58 55.5, 70.48 27.74, 92.53 2.26 M26.66 84.13 C52.57 56.64, 75.55 25.97, 97.51 2.62 M26.66 84.13 C45.53 62.95, 63.3 42.36, 97.51 2.62 M32.3 83.73 C47.5 65.49, 63.98 48.35, 103.16 2.22 M32.3 83.73 C47.44 65.94, 62.36 48.71, 103.16 2.22 M37.29 84.09 C57.81 57, 80.06 32.31, 108.14 2.58 M37.29 84.09 C60.34 56.47, 85.75 27.37, 108.14 2.58 M42.93 83.7 C67.11 55.78, 89.11 30.96, 113.79 2.19 M42.93 83.7 C60.25 63.67, 76.9 45.05, 113.79 2.19 M47.92 84.06 C62.86 65.37, 83.14 44.83, 118.77 2.55 M47.92 84.06 C74.21 55.47, 99.94 25.76, 118.77 2.55 M53.56 83.66 C72.25 62.45, 90.42 42.52, 124.42 2.15 M53.56 83.66 C75.6 56.66, 98.76 30.83, 124.42 2.15 M58.55 84.02 C85.42 55.29, 112.22 22.4, 129.4 2.51 M58.55 84.02 C74.4 66.19, 89.6 49.78, 129.4 2.51 M64.19 83.63 C89.08 54.67, 114.17 26, 135.05 2.12 M64.19 83.63 C92.13 53.76, 116.97 22.76, 135.05 2.12 M69.18 83.99 C87.7 60.69, 107.81 38.5, 140.03 2.48 M69.18 83.99 C89.12 61.27, 109.16 39.12, 140.03 2.48 M74.82 83.59 C101.38 52.81, 127.98 21.62, 145.68 2.08 M74.82 83.59 C95.68 60.41, 116.11 35.9, 145.68 2.08 M79.81 83.95 C101.22 57.54, 127.57 28.75, 150.67 2.44 M79.81 83.95 C96.34 67.59, 111.55 48.47, 150.67 2.44 M85.45 83.56 C102.6 63.05, 119.34 44.59, 156.31 2.05 M85.45 83.56 C111.4 53.51, 138.74 21.92, 156.31 2.05 M90.44 83.92 C108.38 63.65, 124.64 44.82, 161.3 2.41 M90.44 83.92 C119.15 51.84, 144.76 21.09, 161.3 2.41 M96.08 83.52 C109.69 66.34, 125.62 49.61, 166.28 2.77 M96.08 83.52 C115.28 59.32, 135.89 36.75, 166.28 2.77 M101.07 83.88 C117.09 63.38, 135.28 45.35, 171.93 2.38 M101.07 83.88 C117.9 66.07, 134.58 46.7, 171.93 2.38 M106.71 83.49 C126.71 61.22, 150.13 37.63, 178.88 0.47 M106.71 83.49 C127.03 58.52, 148.3 36.32, 178.88 0.47 M111.7 83.85 C126.21 67.25, 141.78 48.74, 183.87 0.83 M111.7 83.85 C132.76 58.3, 153.31 34.64, 183.87 0.83 M117.34 83.46 C138.84 60.44, 158.99 35.98, 188.2 1.95 M117.34 83.46 C135.12 63.48, 152.82 43.6, 188.2 1.95 M122.33 83.82 C140.5 62.56, 162.34 36.5, 191.87 3.82 M122.33 83.82 C137.31 65.99, 151.41 50.95, 191.87 3.82 M127.97 83.42 C146.6 57.84, 167.81 35.88, 195.55 5.69 M127.97 83.42 C143.25 65.62, 158.31 49.48, 195.55 5.69 M132.96 83.78 C150.52 66.82, 165.2 48.64, 197.25 9.82 M132.96 83.78 C152.14 62.11, 169.8 42.04, 197.25 9.82 M138.6 83.39 C157.13 63.46, 174.13 43.08, 198.96 13.95 M138.6 83.39 C154.18 66.78, 167.73 50.57, 198.96 13.95 M143.59 83.75 C168.58 55.66, 188.05 29.89, 201.32 17.33 M143.59 83.75 C163.43 60.18, 181.74 37.65, 201.32 17.33 M148.58 84.11 C162.58 66.69, 176.55 49.69, 201.06 23.73 M148.58 84.11 C166.76 63.58, 184.35 44.09, 201.06 23.73 M154.22 83.71 C173.77 62.24, 191.48 40.69, 201.46 29.37 M154.22 83.71 C167.33 68.3, 179.58 53.77, 201.46 29.37 M159.21 84.07 C173.36 68.66, 186.78 52.63, 201.2 35.77 M159.21 84.07 C174.76 66.53, 187.44 51.89, 201.2 35.77 M164.85 83.68 C173.33 74.07, 182.73 61.06, 201.59 41.41 M164.85 83.68 C174.46 71.61, 184.48 60.4, 201.59 41.41 M169.84 84.04 C182.07 74.14, 190.65 61.36, 201.33 47.81 M169.84 84.04 C177.34 73.96, 185.41 65.68, 201.33 47.81 M175.48 83.64 C184.33 70.79, 196.32 60.57, 201.72 53.45 M175.48 83.64 C181.43 75.52, 187.37 68.7, 201.72 53.45 M180.47 84 C187.65 75.58, 193.77 71.13, 201.46 59.85 M180.47 84 C186.78 78.31, 191.62 71, 201.46 59.85 M186.77 82.85 C191.19 78.67, 194.73 71.21, 202.51 64.74 M186.77 82.85 C192.29 77.36, 197.11 71.81, 202.51 64.74" stroke="#228be6" stroke-width="0.5" fill="none"></path><path d="M20.73 0 M20.73 0 C69.35 1.15, 118.19 1.33, 179.1 0 M20.73 0 C53.39 0.1, 87.06 1.75, 179.1 0 M179.1 0 C193.19 -0.85, 199.15 6.23, 199.83 20.73 M179.1 0 C191.97 1.09, 201.5 8.7, 199.83 20.73 M199.83 20.73 C202.03 30.35, 201.82 41.61, 199.83 62.2 M199.83 20.73 C199.98 36.85, 198.93 50.87, 199.83 62.2 M199.83 62.2 C200.79 74.9, 193.37 83.84, 179.1 82.93 M199.83 62.2 C199.12 74.17, 193 82.62, 179.1 82.93 M179.1 82.93 C145.25 83.07, 112.83 83.38, 20.73 82.93 M179.1 82.93 C123.14 80.85, 68.15 82.33, 20.73 82.93 M20.73 82.93 C7.55 82.81, 1.04 76.29, 0 62.2 M20.73 82.93 C4.91 83.59, -0.09 77.65, 0 62.2 M0 62.2 C0.82 47.3, -1.24 31.51, 0 20.73 M0 62.2 C-0.24 48.55, 1.1 32.43, 0 20.73 M0 20.73 C1.8 8.52, 6.9 -0.49, 20.73 0 M0 20.73 C2.26 6.15, 8.43 -0.71, 20.73 0" stroke="#ffffff" stroke-width="1" fill="none"></path></g><g stroke-linecap="round"><g transform="translate(386.818966291019 245.20701391699822) rotate(0 -20.994744552343377 -77.08875049981337)"><path d="M0.56 0.03 C-6.17 -25.44, -34.31 -126.82, -41.44 -152.42 M-0.6 -0.99 C-7.43 -26.85, -36.01 -128.95, -42.55 -154.21" stroke="#ffffff" stroke-width="1" fill="none"></path></g><g transform="translate(386.818966291019 245.20701391699822) rotate(0 -20.994744552343377 -77.08875049981337)"><path d="M-25.22 -130.22 C-27.99 -136.63, -33.61 -138.23, -42.51 -153.23 M-25.35 -129.05 C-30.39 -137.52, -36.19 -145.76, -43.15 -154.95" stroke="#ffffff" stroke-width="1" fill="none"></path></g><g transform="translate(386.818966291019 245.20701391699822) rotate(0 -20.994744552343377 -77.08875049981337)"><path d="M-45.03 -124.85 C-43.59 -132.5, -44.98 -135.25, -42.51 -153.23 M-45.16 -123.69 C-43.95 -133.84, -43.44 -143.78, -43.15 -154.95" stroke="#ffffff" stroke-width="1" fill="none"></path></g></g><g transform="translate(305.9493713378906 263.62261962890625) rotate(0 92 22.5)"><text x="0" y="33" font-family="Tinkoff Sans, Segoe UI Emoji" font-size="36px" fill="#ffffff" text-anchor="start" style="white-space: pre;" direction="ltr">Right(             )</text></g><g transform="translate(392.5306091308594 260.094378019634) rotate(0 43.5 25.5)"><text x="0" y="38" font-family="Tinkoff Sans, Segoe UI Emoji" font-size="41.375899465460535px" fill="#fa5677" text-anchor="start" style="white-space: pre;" direction="ltr">value</text></g></svg>