<svg version="1.1" xmlns="http://www.w3.org/2000/svg" viewBox="0 0 664.4380493164062 338.44124603271484" width="664.4380493164062" height="338.44124603271484" filter="invert(93%) hue-rotate(180deg)">
  <!-- svg-source:excalidraw -->
  
  <defs>
    <style>
      @font-face {
        font-family: "Virgil";
        src: url("https://excalidraw.com/Virgil.woff2");
      }
      @font-face {
        font-family: "Cascadia";
        src: url("https://excalidraw.com/Cascadia.woff2");
      }
    </style>
  </defs>
  <g stroke-linecap="round" transform="translate(191.70718383789062 10) rotate(0 95.19009399414062 41.46599578857422)"><path d="M4.86 5.55 C4.86 5.55, 4.86 5.55, 4.86 5.55 M4.86 5.55 C4.86 5.55, 4.86 5.55, 4.86 5.55 M0.66 16.48 C7.41 10, 11.67 6.2, 13.13 2.14 M0.66 16.48 C5.59 11.38, 10 6.56, 13.13 2.14 M1.06 22.12 C7.17 18.14, 9.4 13.29, 18.77 1.74 M1.06 22.12 C6.77 16.13, 10.75 11.18, 18.77 1.74 M0.8 28.52 C6.58 19.23, 13.94 11.66, 23.76 2.1 M0.8 28.52 C6.51 21.45, 10.44 15.63, 23.76 2.1 M0.54 34.92 C12.38 24.42, 20.45 12.47, 28.75 2.46 M0.54 34.92 C11.71 22.51, 22.09 9.8, 28.75 2.46 M0.93 40.56 C8.48 30.71, 17.53 22.6, 34.39 2.07 M0.93 40.56 C12.74 28.01, 23.18 15.33, 34.39 2.07 M0.67 46.96 C10.44 33.66, 25.78 18.92, 39.38 2.43 M0.67 46.96 C12.74 33.65, 23.5 20.05, 39.38 2.43 M1.06 52.6 C10.98 42.32, 20.25 31.56, 45.02 2.04 M1.06 52.6 C13.17 36.89, 25.93 22.59, 45.02 2.04 M0.8 59 C17.75 36.99, 37.71 16.74, 50.01 2.4 M0.8 59 C12.15 46.84, 25.09 31.59, 50.01 2.4 M0.54 65.4 C20.19 44.17, 35.39 22.64, 54.99 2.76 M0.54 65.4 C20.63 41.57, 40.14 17.67, 54.99 2.76 M2.9 68.78 C18.24 52.41, 33.62 35.64, 60.64 2.36 M2.9 68.78 C17.27 53.72, 29.68 39, 60.64 2.36 M4.61 72.91 C24.64 45.98, 47.37 21.98, 65.62 2.72 M4.61 72.91 C26.97 46.83, 49.09 22.39, 65.62 2.72 M5.66 77.8 C20.19 61.4, 39.18 43.76, 71.27 2.33 M5.66 77.8 C30.63 49.49, 54.17 20.61, 71.27 2.33 M8.68 80.42 C25.51 59.96, 46.95 39.42, 76.25 2.69 M8.68 80.42 C22.82 63.8, 37.21 47.38, 76.25 2.69 M12.36 82.29 C37.05 56.87, 57.43 30.55, 81.9 2.29 M12.36 82.29 C27.37 63.86, 43.23 45.8, 81.9 2.29 M17.34 82.65 C43.09 55.5, 66.94 23.24, 86.88 2.65 M17.34 82.65 C32.99 63.67, 51.3 43.7, 86.88 2.65 M21.67 83.77 C39.63 61.95, 56.38 43.47, 92.53 2.26 M21.67 83.77 C48.71 51.44, 77.99 17.75, 92.53 2.26 M26.66 84.13 C52.34 54, 79.35 22.89, 97.51 2.62 M26.66 84.13 C49.33 59.87, 70.18 35.56, 97.51 2.62 M32.3 83.73 C60.39 51.79, 87.54 20.89, 103.16 2.22 M32.3 83.73 C59.12 53.67, 86.07 22.93, 103.16 2.22 M37.29 84.09 C54.23 62.75, 70.72 43.57, 108.14 2.58 M37.29 84.09 C55.01 63.27, 71.51 43.94, 108.14 2.58 M42.93 83.7 C60.44 65.2, 73.17 48.41, 113.79 2.19 M42.93 83.7 C63.34 60.01, 86.27 33.97, 113.79 2.19 M47.92 84.06 C66.29 65.44, 82.88 43.85, 118.77 2.55 M47.92 84.06 C65.45 63.89, 82.17 42.07, 118.77 2.55 M53.56 83.66 C77.44 56.7, 102.89 28.95, 124.42 2.15 M53.56 83.66 C79.76 55.62, 104 27.73, 124.42 2.15 M58.55 84.02 C76.71 61.32, 96.82 37.77, 129.4 2.51 M58.55 84.02 C77.02 61.17, 97.65 39.54, 129.4 2.51 M64.19 83.63 C80.74 66.55, 93.41 47.58, 135.05 2.12 M64.19 83.63 C91.81 52.65, 118.52 20.78, 135.05 2.12 M69.18 83.99 C86.84 63.01, 104.05 43.5, 140.03 2.48 M69.18 83.99 C84.56 65.84, 100.02 47.59, 140.03 2.48 M74.82 83.59 C102.44 54.83, 127.48 22.29, 145.68 2.08 M74.82 83.59 C96.29 57.54, 119.71 30.17, 145.68 2.08 M79.81 83.95 C94.23 64.16, 111.78 46.72, 150.67 2.44 M79.81 83.95 C105.34 54.53, 132.25 25.03, 150.67 2.44 M85.45 83.56 C105.58 58.81, 126.17 32.72, 156.31 2.05 M85.45 83.56 C108.43 57.04, 133.24 29.12, 156.31 2.05 M90.44 83.92 C107.38 63.79, 127.47 45.23, 161.3 2.41 M90.44 83.92 C112.62 57.25, 134.89 31.28, 161.3 2.41 M96.08 83.52 C117.62 57.82, 139.9 34.15, 166.28 2.77 M96.08 83.52 C113.44 63.33, 131.47 43.23, 166.28 2.77 M101.07 83.88 C117.01 64.9, 132.02 47.87, 171.93 2.38 M101.07 83.88 C121.14 61.01, 142.64 36.17, 171.93 2.38 M106.71 83.49 C124.08 62.71, 139.68 44.21, 176.91 2.74 M106.71 83.49 C131.93 52.15, 158.12 22.7, 176.91 2.74 M111.7 83.85 C138.1 56.05, 163.76 23.78, 181.24 3.85 M111.7 83.85 C128.04 66.51, 142.23 50.14, 181.24 3.85 M117.34 83.46 C145.91 52.4, 171.08 20.45, 185.57 4.97 M117.34 83.46 C133.77 63.45, 152.03 44.13, 185.57 4.97 M122.33 83.82 C144.4 58.63, 166.53 34.66, 187.28 9.1 M122.33 83.82 C148 55.16, 175.21 25.49, 187.28 9.1 M127.97 83.42 C139.87 69.99, 155.03 54.48, 188.99 13.23 M127.97 83.42 C145.09 62.93, 161.25 43.85, 188.99 13.23 M132.96 83.78 C154.72 57.79, 173.73 35.09, 191.35 16.61 M132.96 83.78 C150.79 62.99, 169.5 42.15, 191.35 16.61 M138.6 83.39 C157.22 59.1, 175.99 40.29, 191.09 23.01 M138.6 83.39 C157.43 62.61, 173.55 43.76, 191.09 23.01 M143.59 83.75 C154.41 69.99, 168.37 55.99, 191.48 28.65 M143.59 83.75 C161.14 62.77, 178.87 42.64, 191.48 28.65 M148.58 84.11 C161.91 69.25, 171.52 57.62, 191.22 35.05 M148.58 84.11 C163.59 67.32, 179.87 49.91, 191.22 35.05 M154.22 83.71 C163.08 72.94, 169.5 64.09, 191.62 40.69 M154.22 83.71 C168.02 67.98, 180.73 52.47, 191.62 40.69 M159.21 84.07 C164.77 76.94, 172.64 66.73, 191.36 47.09 M159.21 84.07 C170.77 70.91, 179.52 60.65, 191.36 47.09 M164.85 83.68 C171.8 74.87, 181.58 65.15, 191.09 53.49 M164.85 83.68 C170.63 76.2, 177.31 68.85, 191.09 53.49 M170.49 83.28 C176.59 73.5, 186.33 68.84, 191.49 59.13 M170.49 83.28 C176.96 76.12, 183.32 68.23, 191.49 59.13 M176.79 82.13 C179.4 79.46, 183.91 73.75, 192.54 64.02 M176.79 82.13 C182.3 76.7, 186.69 71.69, 192.54 64.02" stroke="#40c057" stroke-width="0.5" fill="none"></path><path d="M20.73 0 M20.73 0 C68.95 1.4, 118.68 0.58, 169.65 0 M20.73 0 C75.94 1.51, 130.97 1.36, 169.65 0 M169.65 0 C182.12 1.56, 190.59 8.54, 190.38 20.73 M169.65 0 C184.38 -0.26, 188.57 9.01, 190.38 20.73 M190.38 20.73 C191.97 28.4, 191.27 37.95, 190.38 62.2 M190.38 20.73 C190.71 30.4, 189.72 38.79, 190.38 62.2 M190.38 62.2 C191.3 74.32, 183.68 83.75, 169.65 82.93 M190.38 62.2 C190.79 77.51, 182.9 81.62, 169.65 82.93 M169.65 82.93 C133.84 81.79, 99 84.01, 20.73 82.93 M169.65 82.93 C114.79 82.63, 62.17 83.16, 20.73 82.93 M20.73 82.93 C7.12 81.94, 0.67 76.39, 0 62.2 M20.73 82.93 C6.93 84.26, 2.2 74.25, 0 62.2 M0 62.2 C-1.17 47.85, 0.26 33.65, 0 20.73 M0 62.2 C-0.5 53.61, -1.02 44.66, 0 20.73 M0 20.73 C0.6 6.22, 6.49 -0.08, 20.73 0 M0 20.73 C-1.38 9.11, 7.85 1.09, 20.73 0" stroke="#ffffff" stroke-width="1" fill="none"></path></g><g transform="translate(269.8950500488281 26.644943237304688) rotate(0 22 22.5)"><text x="0" y="33" font-family="Tinkoff Sans, Segoe UI Emoji" font-size="36px" fill="#ffffff" text-anchor="start" style="white-space: pre;" direction="ltr">Try</text></g><g stroke-linecap="round" transform="translate(10 245.5092544555664) rotate(0 124.36984252929688 41.46599578857422)"><path d="M4.86 5.55 C4.86 5.55, 4.86 5.55, 4.86 5.55 M4.86 5.55 C4.86 5.55, 4.86 5.55, 4.86 5.55 M0.66 16.48 C5.16 12.34, 11.47 4.11, 13.13 2.14 M0.66 16.48 C4.91 11.49, 8.1 7.91, 13.13 2.14 M1.06 22.12 C5.68 16.25, 8.31 12.42, 18.77 1.74 M1.06 22.12 C4.27 17.61, 8.18 13.04, 18.77 1.74 M0.8 28.52 C8.5 19.24, 15.23 14.25, 23.76 2.1 M0.8 28.52 C9.02 19.62, 15.44 11.96, 23.76 2.1 M0.54 34.92 C11.94 22.67, 20.16 9.65, 28.75 2.46 M0.54 34.92 C8.25 25.7, 17.12 15.18, 28.75 2.46 M0.93 40.56 C9.15 33.25, 16.58 23.84, 34.39 2.07 M0.93 40.56 C11.84 27.23, 22.1 15.29, 34.39 2.07 M0.67 46.96 C13.56 34.53, 23.83 20.24, 39.38 2.43 M0.67 46.96 C14.43 32.43, 28.88 16.34, 39.38 2.43 M1.06 52.6 C17.04 32.67, 33.81 15.74, 45.02 2.04 M1.06 52.6 C15.39 36.06, 30.72 17.94, 45.02 2.04 M0.8 59 C15.68 41.22, 31.59 23.74, 50.01 2.4 M0.8 59 C13.54 43.58, 27.16 28.76, 50.01 2.4 M0.54 65.4 C22.09 44.08, 39.91 17.93, 54.99 2.76 M0.54 65.4 C12.64 49.91, 26.04 35.46, 54.99 2.76 M2.9 68.78 C23.43 42.31, 47.38 19.18, 60.64 2.36 M2.9 68.78 C20.82 49.28, 36.52 28.58, 60.64 2.36 M4.61 72.91 C18.65 55.78, 35.06 40.04, 65.62 2.72 M4.61 72.91 C24.69 49.04, 44.5 25.43, 65.62 2.72 M5.66 77.8 C19.91 62.06, 35.23 43.09, 71.27 2.33 M5.66 77.8 C26.79 54.08, 48.17 31.12, 71.27 2.33 M8.68 80.42 C24.35 66.26, 38.11 47.85, 76.25 2.69 M8.68 80.42 C25.59 62.96, 41.21 44, 76.25 2.69 M12.36 82.29 C26.59 62.12, 43.39 45.63, 81.9 2.29 M12.36 82.29 C30.02 59.83, 49.49 38.95, 81.9 2.29 M17.34 82.65 C33.78 64.07, 50.29 45.72, 86.88 2.65 M17.34 82.65 C41.72 53.58, 68.41 26.35, 86.88 2.65 M21.67 83.77 C38.44 61.54, 59.02 41.19, 92.53 2.26 M21.67 83.77 C47.24 55.31, 72.62 26.05, 92.53 2.26 M26.66 84.13 C50.45 55.68, 75.92 25.7, 97.51 2.62 M26.66 84.13 C44.03 62.98, 62.6 44.13, 97.51 2.62 M32.3 83.73 C50.85 65.52, 68.18 43.2, 103.16 2.22 M32.3 83.73 C49.68 62.71, 67.52 44.18, 103.16 2.22 M37.29 84.09 C59.87 56.56, 82.84 29.82, 108.14 2.58 M37.29 84.09 C53.95 66.19, 68.6 48.46, 108.14 2.58 M42.93 83.7 C59.15 60.11, 81.25 40.53, 113.79 2.19 M42.93 83.7 C60.11 64.49, 77.16 42.86, 113.79 2.19 M47.92 84.06 C69.33 59.1, 90.95 34.48, 118.77 2.55 M47.92 84.06 C72.39 55.79, 99.75 25.39, 118.77 2.55 M53.56 83.66 C71.05 64.05, 86.99 42.02, 124.42 2.15 M53.56 83.66 C78.24 55.79, 101.96 27.5, 124.42 2.15 M58.55 84.02 C78.22 61.36, 99.12 37.16, 129.4 2.51 M58.55 84.02 C80.1 60.73, 100.55 36.74, 129.4 2.51 M64.19 83.63 C82.96 64.94, 99.24 43.98, 135.05 2.12 M64.19 83.63 C91.3 52.11, 116.91 22.31, 135.05 2.12 M69.18 83.99 C85.63 66.97, 99.21 51.74, 140.03 2.48 M69.18 83.99 C85.17 67.52, 99.49 49.34, 140.03 2.48 M74.82 83.59 C100.85 55.67, 125.83 26.63, 145.68 2.08 M74.82 83.59 C91.93 63.83, 109.6 44.55, 145.68 2.08 M79.81 83.95 C108.11 50.68, 134.26 21.31, 150.67 2.44 M79.81 83.95 C99.83 61.75, 119.27 39.4, 150.67 2.44 M85.45 83.56 C112.65 50.84, 140.66 19.11, 156.31 2.05 M85.45 83.56 C106.46 60.5, 126.89 36.19, 156.31 2.05 M90.44 83.92 C103.93 66.08, 119.5 48.1, 161.3 2.41 M90.44 83.92 C117.84 51.2, 146.14 19.92, 161.3 2.41 M96.08 83.52 C114.07 61.15, 137.59 37.49, 166.28 2.77 M96.08 83.52 C120.77 54.91, 145.59 25.81, 166.28 2.77 M101.07 83.88 C126.97 52.82, 154.28 25.08, 171.93 2.38 M101.07 83.88 C118.92 65.28, 134.21 46.17, 171.93 2.38 M106.71 83.49 C121.15 65.39, 138.05 47.54, 176.91 2.74 M106.71 83.49 C127.57 57.86, 149.34 33.27, 176.91 2.74 M111.7 83.85 C138.49 52.08, 165.66 23.27, 182.56 2.34 M111.7 83.85 C128.3 65.01, 143.91 44.1, 182.56 2.34 M117.34 83.46 C137.32 61.97, 156.35 42.44, 187.54 2.7 M117.34 83.46 C135.96 61.95, 154.76 39.03, 187.54 2.7 M122.33 83.82 C145.91 57.71, 170.74 28.25, 193.19 2.31 M122.33 83.82 C149.87 53.01, 176.13 22.2, 193.19 2.31 M127.97 83.42 C142.84 65.3, 156.21 50, 198.17 2.67 M127.97 83.42 C144.17 63.24, 162.88 43.11, 198.17 2.67 M132.96 83.78 C157.99 53.82, 185.22 22.65, 203.82 2.27 M132.96 83.78 C148.38 65.87, 164.4 47.84, 203.82 2.27 M138.6 83.39 C161.18 57.23, 184.96 31.89, 208.8 2.63 M138.6 83.39 C159.37 59.04, 180.88 37, 208.8 2.63 M143.59 83.75 C169.7 57.3, 194.24 28.88, 214.45 2.24 M143.59 83.75 C162.82 61.44, 181.45 38.44, 214.45 2.24 M148.58 84.11 C174.76 52.49, 199.36 25.52, 219.43 2.6 M148.58 84.11 C170.37 58.81, 194.9 30.47, 219.43 2.6 M154.22 83.71 C176.97 57.53, 199.37 28.37, 225.08 2.2 M154.22 83.71 C182.14 52.37, 209.57 19.44, 225.08 2.2 M159.21 84.07 C185.29 53.33, 209.43 22.88, 230.72 1.81 M159.21 84.07 C181.32 58.34, 205.14 32.31, 230.72 1.81 M164.85 83.68 C179.6 66.01, 197.1 47.85, 235.05 2.92 M164.85 83.68 C179.05 66.81, 194.66 50.59, 235.05 2.92 M169.84 84.04 C190.02 61.91, 206.53 39.25, 240.04 3.28 M169.84 84.04 C190.49 60.76, 210.76 37.28, 240.04 3.28 M175.48 83.64 C193.2 65.61, 209.3 43.71, 243.71 5.15 M175.48 83.64 C198.58 58.85, 219.57 32.67, 243.71 5.15 M180.47 84 C200.1 59.37, 222.54 35.23, 245.42 9.29 M180.47 84 C203.26 58.17, 224.99 33.5, 245.42 9.29 M186.11 83.61 C204.48 62.18, 220.94 43.82, 247.13 13.42 M186.11 83.61 C203.65 64.9, 220.22 44.77, 247.13 13.42 M191.1 83.97 C204.24 69.56, 219.55 54.44, 249.49 16.8 M191.1 83.97 C202.98 68.85, 217.17 54.29, 249.49 16.8 M196.74 83.57 C216.84 61.21, 234.46 40.71, 249.23 23.2 M196.74 83.57 C216.55 60.66, 236.23 38.92, 249.23 23.2 M201.73 83.93 C211.69 73.53, 221.23 60.01, 249.62 28.84 M201.73 83.93 C218.85 63.89, 234.27 44.19, 249.62 28.84 M207.37 83.54 C220.1 70.02, 233.14 56.03, 249.36 35.24 M207.37 83.54 C218.7 71.5, 230.27 58.74, 249.36 35.24 M212.36 83.9 C224.28 66.91, 239.5 51.56, 249.75 40.88 M212.36 83.9 C228.03 67.27, 242 50.19, 249.75 40.88 M218 83.51 C227.13 73.29, 237.66 59.41, 249.49 47.28 M218 83.51 C230.57 69.37, 243.47 55.28, 249.49 47.28 M222.99 83.87 C230.73 75.76, 235.94 67.23, 249.89 52.92 M222.99 83.87 C230.96 76.34, 237.83 67.2, 249.89 52.92 M228.63 83.47 C235.4 77.53, 240.85 69.54, 249.63 59.32 M228.63 83.47 C235.96 75.68, 243.26 67.47, 249.63 59.32 M235.59 81.57 C238.28 76.4, 240.85 72.98, 250.68 64.21 M235.59 81.57 C240.65 74.2, 246.78 67.42, 250.68 64.21" stroke="#228be6" stroke-width="0.5" fill="none"></path><path d="M20.73 0 M20.73 0 C80.87 1.82, 141.17 1.4, 228.01 0 M20.73 0 C71.32 -1.18, 122.37 0.18, 228.01 0 M228.01 0 C243.07 -0.66, 249.71 6.44, 248.74 20.73 M228.01 0 C243.78 -1.92, 249.84 8.65, 248.74 20.73 M248.74 20.73 C246.7 32.03, 246.98 41.11, 248.74 62.2 M248.74 20.73 C248.39 32.36, 249.55 44.07, 248.74 62.2 M248.74 62.2 C246.94 76.19, 240.15 81.84, 228.01 82.93 M248.74 62.2 C247.12 74.44, 239.59 81.8, 228.01 82.93 M228.01 82.93 C177.93 80.69, 128.29 82.88, 20.73 82.93 M228.01 82.93 C149.32 82.25, 70.73 83.3, 20.73 82.93 M20.73 82.93 C8.42 84.58, -0.27 77.01, 0 62.2 M20.73 82.93 C7.59 83.09, -2.28 77.58, 0 62.2 M0 62.2 C0.54 46.91, 0.49 33.21, 0 20.73 M0 62.2 C0.18 53.33, -0.83 43.82, 0 20.73 M0 20.73 C0.18 6.69, 5.4 1.41, 20.73 0 M0 20.73 C0.46 8.11, 6.99 0.16, 20.73 0" stroke="#ffffff" stroke-width="1" fill="none"></path></g><g stroke-linecap="round"><g transform="translate(156.99939218997156 247.087615966797) rotate(0 19.33336383537403 -76.64676837596116)"><path d="M0.76 -0.95 C7.13 -26.22, 32.59 -127.25, 38.97 -152.62 M-0.3 1.17 C5.9 -24.38, 31.88 -128.95, 38.37 -154.46" stroke="#ffffff" stroke-width="1" fill="none"></path></g><g transform="translate(156.99939218997156 247.087615966797) rotate(0 19.33336383537403 -76.64676837596116)"><path d="M39.88 -123.52 C41.47 -134.24, 39.41 -145.54, 39.96 -155.13 M41.82 -124.69 C40.54 -134.57, 40.5 -142.58, 38.57 -154.94" stroke="#ffffff" stroke-width="1" fill="none"></path></g><g transform="translate(156.99939218997156 247.087615966797) rotate(0 19.33336383537403 -76.64676837596116)"><path d="M19.98 -128.51 C28.74 -137.55, 33.88 -147.04, 39.96 -155.13 M21.92 -129.68 C26.63 -137.87, 32.62 -144.37, 38.57 -154.94" stroke="#ffffff" stroke-width="1" fill="none"></path></g></g><g transform="translate(17.822906494140625 263.7059910365514) rotate(0 115.5 24)"><text x="0" y="36" font-family="Tinkoff Sans, Segoe UI Emoji" font-size="39.12780691964284px" fill="#ffffff" text-anchor="start" style="white-space: pre;" direction="ltr">Success(           )</text></g><g transform="translate(152.96768188476562 261.63220696700245) rotate(0 43.674560546875 25.85993716591284)"><text x="0" y="38.719874331825665" font-family="Tinkoff Sans, Segoe UI Emoji" font-size="41.375899465460535px" fill="#fa5677" text-anchor="start" style="white-space: pre;" direction="ltr">value</text></g><g stroke-linecap="round" transform="translate(358.88720703125 242.8349380493164) rotate(0 147.77542114257812 41.46599578857422)"><path d="M4.86 5.55 C4.86 5.55, 4.86 5.55, 4.86 5.55 M4.86 5.55 C4.86 5.55, 4.86 5.55, 4.86 5.55 M0.66 16.48 C4 12.82, 8.41 6.33, 13.13 2.14 M0.66 16.48 C5.5 11.51, 9.56 5.92, 13.13 2.14 M1.06 22.12 C9 14.44, 13.52 7.18, 18.77 1.74 M1.06 22.12 C4.16 17.19, 7.76 13.81, 18.77 1.74 M0.8 28.52 C6.55 20.88, 15.4 11.49, 23.76 2.1 M0.8 28.52 C6.63 21.64, 13.05 14.2, 23.76 2.1 M0.54 34.92 C8.8 26.73, 15.21 19.8, 28.75 2.46 M0.54 34.92 C6.82 27.1, 15.3 18.76, 28.75 2.46 M0.93 40.56 C13.87 23.71, 27.96 10.9, 34.39 2.07 M0.93 40.56 C10.3 29.18, 21.27 17.41, 34.39 2.07 M0.67 46.96 C16.54 31.59, 29.2 12.78, 39.38 2.43 M0.67 46.96 C15.43 30.47, 28.17 14.85, 39.38 2.43 M1.06 52.6 C12.38 37.16, 24.94 22.78, 45.02 2.04 M1.06 52.6 C10.52 42.5, 20.24 30.12, 45.02 2.04 M0.8 59 C15.09 45.27, 28.84 28.04, 50.01 2.4 M0.8 59 C16.58 39.86, 33.83 20.28, 50.01 2.4 M0.54 65.4 C18.14 47.55, 32.98 26.68, 54.99 2.76 M0.54 65.4 C14.93 48.1, 29.23 30.94, 54.99 2.76 M2.9 68.78 C15.5 52.32, 25.94 41.34, 60.64 2.36 M2.9 68.78 C22.17 45.51, 43.45 22.46, 60.64 2.36 M4.61 72.91 C26.55 48.27, 47.34 26.44, 65.62 2.72 M4.61 72.91 C17.9 58.84, 29.87 42.68, 65.62 2.72 M5.66 77.8 C31.32 49.93, 56.23 19.08, 71.27 2.33 M5.66 77.8 C30.42 51.47, 53.15 24.98, 71.27 2.33 M8.68 80.42 C36.6 51.15, 61.86 20.01, 76.25 2.69 M8.68 80.42 C26.54 60.57, 43.03 40.61, 76.25 2.69 M12.36 82.29 C26.75 63.4, 45.83 43.64, 81.9 2.29 M12.36 82.29 C32.14 58.54, 53.26 33.06, 81.9 2.29 M17.34 82.65 C36.29 60.86, 58 38.52, 86.88 2.65 M17.34 82.65 C41.09 54.98, 64.44 28.91, 86.88 2.65 M21.67 83.77 C39.45 64.46, 57.63 42.05, 92.53 2.26 M21.67 83.77 C46.58 55.5, 70.48 27.74, 92.53 2.26 M26.66 84.13 C52.57 56.64, 75.55 25.97, 97.51 2.62 M26.66 84.13 C45.53 62.95, 63.3 42.36, 97.51 2.62 M32.3 83.73 C47.5 65.49, 63.98 48.35, 103.16 2.22 M32.3 83.73 C47.44 65.94, 62.36 48.71, 103.16 2.22 M37.29 84.09 C57.81 57, 80.06 32.31, 108.14 2.58 M37.29 84.09 C60.34 56.47, 85.75 27.37, 108.14 2.58 M42.93 83.7 C67.11 55.78, 89.11 30.96, 113.79 2.19 M42.93 83.7 C60.25 63.67, 76.9 45.05, 113.79 2.19 M47.92 84.06 C62.86 65.37, 83.14 44.83, 118.77 2.55 M47.92 84.06 C74.21 55.47, 99.94 25.76, 118.77 2.55 M53.56 83.66 C72.25 62.45, 90.42 42.52, 124.42 2.15 M53.56 83.66 C75.6 56.66, 98.76 30.83, 124.42 2.15 M58.55 84.02 C85.42 55.29, 112.22 22.4, 129.4 2.51 M58.55 84.02 C74.4 66.19, 89.6 49.78, 129.4 2.51 M64.19 83.63 C89.08 54.67, 114.17 26, 135.05 2.12 M64.19 83.63 C92.13 53.76, 116.97 22.76, 135.05 2.12 M69.18 83.99 C87.7 60.69, 107.81 38.5, 140.03 2.48 M69.18 83.99 C89.12 61.27, 109.16 39.12, 140.03 2.48 M74.82 83.59 C101.38 52.81, 127.98 21.62, 145.68 2.08 M74.82 83.59 C95.68 60.41, 116.11 35.9, 145.68 2.08 M79.81 83.95 C101.22 57.54, 127.57 28.75, 150.67 2.44 M79.81 83.95 C96.34 67.59, 111.55 48.47, 150.67 2.44 M85.45 83.56 C102.6 63.05, 119.34 44.59, 156.31 2.05 M85.45 83.56 C111.4 53.51, 138.74 21.92, 156.31 2.05 M90.44 83.92 C108.38 63.65, 124.64 44.82, 161.3 2.41 M90.44 83.92 C119.15 51.84, 144.76 21.09, 161.3 2.41 M96.08 83.52 C109.69 66.34, 125.62 49.61, 166.28 2.77 M96.08 83.52 C115.28 59.32, 135.89 36.75, 166.28 2.77 M101.07 83.88 C117.09 63.38, 135.28 45.35, 171.93 2.38 M101.07 83.88 C117.9 66.07, 134.58 46.7, 171.93 2.38 M106.71 83.49 C126.13 61.87, 148.99 38.92, 176.91 2.74 M106.71 83.49 C126.48 59.17, 147.18 37.62, 176.91 2.74 M111.7 83.85 C125.94 67.56, 141.25 49.34, 182.56 2.34 M111.7 83.85 C132.37 58.75, 152.53 35.54, 182.56 2.34 M117.34 83.46 C138.64 60.67, 158.6 36.42, 187.54 2.7 M117.34 83.46 C134.96 63.66, 152.5 43.97, 187.54 2.7 M122.33 83.82 C140.87 62.13, 163.08 35.64, 193.19 2.31 M122.33 83.82 C137.58 65.67, 151.94 50.31, 193.19 2.31 M127.97 83.42 C147.38 56.92, 169.41 34.02, 198.17 2.67 M127.97 83.42 C143.83 64.96, 159.49 48.15, 198.17 2.67 M132.96 83.78 C152.12 64.91, 168.42 44.86, 203.82 2.27 M132.96 83.78 C154.03 59.92, 173.56 37.69, 203.82 2.27 M138.6 83.39 C160.18 60.02, 180.16 36.21, 208.8 2.63 M138.6 83.39 C156.64 64.06, 172.59 45.1, 208.8 2.63 M143.59 83.75 C173.82 49.69, 198.41 18.03, 214.45 2.24 M143.59 83.75 C167.82 55.04, 190.6 27.37, 214.45 2.24 M148.58 84.11 C167.55 60.81, 186.67 37.9, 219.43 2.6 M148.58 84.11 C172.95 56.52, 196.83 29.79, 219.43 2.6 M154.22 83.71 C182.96 51.87, 209.68 19.95, 225.08 2.2 M154.22 83.71 C173.63 60.78, 192.33 38.82, 225.08 2.2 M159.21 84.07 C182.42 58.32, 204.76 32.03, 230.06 2.56 M159.21 84.07 C184.91 55.14, 207.45 29.15, 230.06 2.56 M164.85 83.68 C181.52 64.27, 199.32 41.6, 235.71 2.17 M164.85 83.68 C184.04 60.97, 203.47 38.93, 235.71 2.17 M169.84 84.04 C194.96 59.54, 216.15 32.26, 240.69 2.53 M169.84 84.04 C187.31 62.38, 205.33 42.65, 240.69 2.53 M175.48 83.64 C200.48 52.08, 228.85 23, 246.34 2.13 M175.48 83.64 C191.37 63.4, 207.59 44.75, 246.34 2.13 M180.47 84 C202.32 58.13, 223.53 36.33, 251.32 2.49 M180.47 84 C200.57 62.48, 219.3 39.19, 251.32 2.49 M186.11 83.61 C205.85 60.89, 225.3 35.12, 256.97 2.1 M186.11 83.61 C208.34 58.81, 230.24 33.62, 256.97 2.1 M191.1 83.97 C213.82 60.4, 236.01 35.76, 261.95 2.46 M191.1 83.97 C205.58 66.27, 220.69 50.64, 261.95 2.46 M196.74 83.57 C218.62 57.44, 242.45 34.16, 267.6 2.07 M196.74 83.57 C223.43 53.05, 249.8 22.15, 267.6 2.07 M201.73 83.93 C215.76 65.6, 235.65 44.5, 272.58 2.43 M201.73 83.93 C218.37 65.46, 234.64 44.86, 272.58 2.43 M207.37 83.54 C229.36 60.53, 250.26 34.54, 277.57 2.79 M207.37 83.54 C234.56 50.92, 261.28 19.87, 277.57 2.79 M212.36 83.9 C229.81 63.68, 248.49 39.86, 283.87 1.64 M212.36 83.9 C236.38 55.79, 260.06 29.65, 283.87 1.64 M218 83.51 C239.11 59.67, 258.87 37.9, 287.54 3.51 M218 83.51 C245.18 53.96, 271.11 22.04, 287.54 3.51 M222.99 83.87 C249.81 52.97, 279 18.96, 291.22 5.38 M222.99 83.87 C240.5 65.38, 257.99 44.9, 291.22 5.38 M228.63 83.47 C243.45 67.91, 258.9 48.1, 292.93 9.51 M228.63 83.47 C247.91 59.98, 268.68 37.84, 292.93 9.51 M233.62 83.83 C252.68 58.83, 274.43 33.67, 294.63 13.64 M233.62 83.83 C256.62 59.32, 277.66 33.96, 294.63 13.64 M239.26 83.44 C256.28 65.81, 269.39 44.57, 297 17.02 M239.26 83.44 C259.79 58.99, 282.46 32.72, 297 17.02 M244.25 83.8 C258.02 68.29, 269.39 55.58, 296.73 23.42 M244.25 83.8 C254.26 72.02, 265.24 57.98, 296.73 23.42 M249.89 83.4 C266.13 63.93, 279.98 47.51, 297.13 29.06 M249.89 83.4 C264.81 66.28, 278.87 49.53, 297.13 29.06 M254.88 83.76 C268.55 68.68, 281.13 53.48, 296.87 35.46 M254.88 83.76 C268.12 68.94, 280.66 53.89, 296.87 35.46 M259.87 84.12 C268.44 71.96, 281.1 61.79, 297.26 41.1 M259.87 84.12 C272.34 71.72, 284.11 56.52, 297.26 41.1 M265.51 83.73 C277.62 68.58, 288.84 56.87, 297 47.5 M265.51 83.73 C272.81 75.22, 279.91 68.1, 297 47.5 M270.5 84.09 C277.9 76.29, 286.16 67.16, 296.74 53.9 M270.5 84.09 C277.69 75.92, 286.51 67.43, 296.74 53.9 M276.14 83.69 C282.41 73.86, 291.83 63.33, 297.13 59.54 M276.14 83.69 C281.47 77.17, 286.3 72.1, 297.13 59.54 M282.44 82.54 C286.71 75.84, 292.17 67.59, 298.18 64.43 M282.44 82.54 C286.82 78.96, 288.96 74.41, 298.18 64.43" stroke="#228be6" stroke-width="0.5" fill="none"></path><path d="M20.73 0 M20.73 0 C104.48 0.29, 188.61 1.61, 274.82 0 M20.73 0 C97.79 1.27, 174.98 0.64, 274.82 0 M274.82 0 C287.52 0.89, 294.36 6.06, 295.55 20.73 M274.82 0 C290.31 -0.09, 295.16 4.77, 295.55 20.73 M295.55 20.73 C294.24 29.2, 295.93 38.7, 295.55 62.2 M295.55 20.73 C296.27 30.38, 295.86 40.52, 295.55 62.2 M295.55 62.2 C293.96 77.41, 289.69 81.33, 274.82 82.93 M295.55 62.2 C297.61 73.78, 286.83 85.13, 274.82 82.93 M274.82 82.93 C212.91 82.44, 150.43 81.28, 20.73 82.93 M274.82 82.93 C180.15 85.25, 85.96 84.06, 20.73 82.93 M20.73 82.93 C6.93 83.92, -0.24 74.97, 0 62.2 M20.73 82.93 C5.14 82.23, -0.58 75.87, 0 62.2 M0 62.2 C0.46 54.36, -1.64 43.32, 0 20.73 M0 62.2 C0.21 48.17, -0.53 36.19, 0 20.73 M0 20.73 C-1.51 5.59, 7.28 0.2, 20.73 0 M0 20.73 C-1.8 5.62, 4.88 1.87, 20.73 0" stroke="#ffffff" stroke-width="1" fill="none"></path></g><g stroke-linecap="round"><g transform="translate(437.9768992797776 243.27157592773443) rotate(0 -29.967052111175803 -76.12103150518148)"><path d="M0.56 0.03 C-9.16 -25.12, -49.27 -125.21, -59.38 -150.49 M-0.6 -0.99 C-10.42 -26.53, -50.96 -127.34, -60.5 -152.28" stroke="#ffffff" stroke-width="1" fill="none"></path></g><g transform="translate(437.9768992797776 243.27157592773443) rotate(0 -29.967052111175803 -76.12103150518148)"><path d="M-40.57 -130.33 C-43.88 -136.3, -50.05 -137.46, -60.45 -151.29 M-40.7 -129.17 C-46.55 -136.99, -53.17 -144.57, -61.09 -153.02" stroke="#ffffff" stroke-width="1" fill="none"></path></g><g transform="translate(437.9768992797776 243.27157592773443) rotate(0 -29.967052111175803 -76.12103150518148)"><path d="M-59.67 -122.82 C-58.93 -130.47, -61.03 -133.24, -60.45 -151.29 M-59.79 -121.66 C-59.64 -131.84, -60.18 -141.81, -61.09 -153.02" stroke="#ffffff" stroke-width="1" fill="none"></path></g></g><g transform="translate(364.8291931152344 262.7452392578125) rotate(0 144 22.5)"><text x="0" y="33" font-family="Tinkoff Sans, Segoe UI Emoji" font-size="36px" fill="#ffffff" text-anchor="start" style="white-space: pre;" direction="ltr">Failure(                         )</text></g><g transform="translate(471.5659484863281 259.21699764854026) rotate(0 86 25.5)"><text x="0" y="38" font-family="Tinkoff Sans, Segoe UI Emoji" font-size="41.375899465460535px" fill="#fa5677" text-anchor="start" style="white-space: pre;" direction="ltr">Throwable</text></g></svg>